<?xml version="1.0" encoding="iso-8859-1"?>
<!-- Generator: Adobe Illustrator 19.0.0, SVG Export Plug-In . SVG Version: 6.00 Build 0)  -->
<svg version="1.1" id="Layer_1" xmlns="http://www.w3.org/2000/svg" xmlns:xlink="http://www.w3.org/1999/xlink" x="0px" y="0px"
	 viewBox="0 0 512 512" style="enable-background:new 0 0 512 512;" xml:space="preserve">
<path style="fill:#334F55;" d="M467.575,401.566V256c0-89.996-73.235-163.21-163.257-163.21h-96.949
	c-90.022,0-163.257,73.214-163.257,163.21v145.566H0v17.644h52.933h405.82H512v-17.644H467.575z"/>
<path style="fill:#E987A6;" d="M61.755,401.566V256c0-80.265,65.322-145.566,145.613-145.566h96.949
	c80.291,0,145.613,65.3,145.613,145.566v145.566H61.755z"/>
<path style="fill:#334F55;" d="M229.376,242.767v-17.644H202.91h-52.933H123.51v17.644h17.644v17.644
	c0,19.458,15.831,35.289,35.289,35.289s35.289-15.831,35.289-35.289v-17.644H229.376z"/>
<path style="fill:#E65F58;" d="M194.088,260.411c0,9.731-7.913,17.644-17.644,17.644c-9.731,0-17.644-7.913-17.644-17.644v-17.644
	h35.289V260.411z"/>
<path style="fill:#334F55;" d="M308.776,225.122h-26.466v17.644h17.644v17.644c0,19.458,15.831,35.289,35.289,35.289
	s35.289-15.831,35.289-35.289v-17.644h17.644v-17.644h-26.466H308.776z"/>
<path style="fill:#E65F58;" d="M352.887,260.411c0,9.731-7.913,17.644-17.644,17.644s-17.644-7.913-17.644-17.644v-17.644h35.289
	V260.411z"/>
<path style="fill:#334F55;" d="M249.605,308.623l-31.192,31.192l12.475,12.475l24.955-24.954l24.955,24.955l12.475-12.475
	l-31.192-31.192C258.634,305.177,253.051,305.177,249.605,308.623z"/>
<g>
</g>
<g>
</g>
<g>
</g>
<g>
</g>
<g>
</g>
<g>
</g>
<g>
</g>
<g>
</g>
<g>
</g>
<g>
</g>
<g>
</g>
<g>
</g>
<g>
</g>
<g>
</g>
<g>
</g>
</svg>
