<?xml version="1.0" encoding="iso-8859-1"?>
<!-- Generator: Adobe Illustrator 19.0.0, SVG Export Plug-In . SVG Version: 6.00 Build 0)  -->
<svg version="1.1" id="Layer_1" xmlns="http://www.w3.org/2000/svg" xmlns:xlink="http://www.w3.org/1999/xlink" x="0px" y="0px"
	 viewBox="0 0 512 512" style="enable-background:new 0 0 512 512;" xml:space="preserve">
<path style="fill:#334F55;" d="M467.862,384V238.345c0-90.052-73.28-163.31-163.358-163.31h-97.009
	c-90.078,0-163.358,73.259-163.358,163.31V384H0v17.655h52.966h17.655h35.754c2.22,19.805,18.88,35.31,39.28,35.31
	s37.06-15.505,39.28-35.31h142.129c2.22,19.805,18.88,35.31,39.28,35.31c20.4,0,37.06-15.505,39.28-35.31h35.755h17.655H512V384
	H467.862z"/>
<path style="fill:#E4AD4B;" d="M441.379,384h-35.31v-52.966h-17.655V384v13.263c0,12.155-9.901,22.047-22.069,22.047
	c-12.168,0-22.069-9.892-22.069-22.047V384v-52.966h-17.655V384H185.379v-52.966h-17.655V384v13.263
	c0,12.155-9.901,22.047-22.069,22.047c-12.168,0-22.069-9.892-22.069-22.047V384v-52.966h-17.655V384h-35.31h-8.828V238.345
	c0-80.315,65.362-145.655,145.703-145.655h97.009c80.341,0,145.703,65.34,145.703,145.655V384H441.379z"/>
<path style="fill:#334F55;" d="M176.552,207.448c-24.336,0-44.138,19.802-44.138,44.138s19.802,44.138,44.138,44.138
	s44.138-19.802,44.138-44.138S200.888,207.448,176.552,207.448z"/>
<path style="fill:#D8D8D8;" d="M176.552,278.069c-14.603,0-26.483-11.879-26.483-26.483s11.879-26.483,26.483-26.483
	s26.483,11.879,26.483,26.483S191.155,278.069,176.552,278.069z"/>
<g>
	<circle style="fill:#334F55;" cx="176.552" cy="251.586" r="17.655"/>
	<path style="fill:#334F55;" d="M335.448,207.448c-24.336,0-44.138,19.802-44.138,44.138s19.802,44.138,44.138,44.138
		c24.336,0,44.138-19.802,44.138-44.138S359.784,207.448,335.448,207.448z"/>
</g>
<path style="fill:#D8D8D8;" d="M335.448,278.069c-14.603,0-26.483-11.879-26.483-26.483s11.879-26.483,26.483-26.483
	s26.483,11.879,26.483,26.483S350.052,278.069,335.448,278.069z"/>
<circle style="fill:#334F55;" cx="335.448" cy="251.586" r="17.655"/>
<g>
</g>
<g>
</g>
<g>
</g>
<g>
</g>
<g>
</g>
<g>
</g>
<g>
</g>
<g>
</g>
<g>
</g>
<g>
</g>
<g>
</g>
<g>
</g>
<g>
</g>
<g>
</g>
<g>
</g>
</svg>
