<?xml version="1.0" encoding="iso-8859-1"?>
<!-- Generator: Adobe Illustrator 19.0.0, SVG Export Plug-In . SVG Version: 6.00 Build 0)  -->
<svg version="1.1" id="Layer_1" xmlns="http://www.w3.org/2000/svg" xmlns:xlink="http://www.w3.org/1999/xlink" x="0px" y="0px"
	 viewBox="0 0 512 512" style="enable-background:new 0 0 512 512;" xml:space="preserve">
<path style="fill:#334F55;" d="M467.862,388.414V242.759c0-90.052-73.28-163.31-163.358-163.31h-97.009
	c-90.078,0-163.358,73.259-163.358,163.31v145.655H0v17.655h52.966h8.828h61.793v17.655c0,4.875,3.953,8.828,8.828,8.828h26.483
	h17.655h8.828h17.655h26.483c4.875,0,8.828-3.953,8.828-8.828v-17.655h88.276v17.655c0,4.875,3.953,8.828,8.828,8.828h26.483h17.655
	h8.828h17.655h26.483c4.875,0,8.828-3.953,8.828-8.828v-17.655h8.828h8.828H512v-17.655H467.862z"/>
<g>
	<path style="fill:#D8D8D8;" d="M220.69,414.897h-17.655v-26.483h-17.655v26.483h-8.828v-26.483h-17.655v26.483h-17.655v-8.828
		v-8.828c0-9.737,7.944-17.655,17.707-17.655h44.034c9.763,0,17.707,7.918,17.707,17.655L220.69,414.897L220.69,414.897z"/>
	<path style="fill:#D8D8D8;" d="M423.724,414.897h-17.655v-26.483h-17.655v26.483h-8.828v-26.483h-17.655v26.483h-17.655v-8.828
		v-8.828c0-9.737,7.944-17.655,17.707-17.655h44.034c9.763,0,17.707,7.918,17.707,17.655v8.828L423.724,414.897L423.724,414.897z"/>
</g>
<path style="fill:#C5D35E;" d="M440.124,388.414c-3.954-15.185-17.677-26.483-34.107-26.483h-44.034
	c-16.429,0-30.152,11.297-34.106,26.483H237.09c-3.954-15.185-17.677-26.483-34.107-26.483h-44.035
	c-16.429,0-30.152,11.297-34.106,26.483H61.793V242.759c0-80.315,65.362-145.655,145.703-145.655h97.009
	c80.341,0,145.703,65.34,145.703,145.655v145.655H440.124z"/>
<path style="fill:#334F55;" d="M216.276,229.517c-17.035,0-30.897,13.862-30.897,30.897s13.862,30.897,30.897,30.897
	s30.897-13.862,30.897-30.897S233.31,229.517,216.276,229.517z"/>
<circle style="fill:#E65F58;" cx="216.276" cy="260.414" r="13.241"/>
<path style="fill:#334F55;" d="M392.828,229.517c-17.035,0-30.897,13.862-30.897,30.897s13.862,30.897,30.897,30.897
	c17.035,0,30.897-13.862,30.897-30.897S409.862,229.517,392.828,229.517z"/>
<circle style="fill:#E65F58;" cx="392.828" cy="260.414" r="13.241"/>
<g>
</g>
<g>
</g>
<g>
</g>
<g>
</g>
<g>
</g>
<g>
</g>
<g>
</g>
<g>
</g>
<g>
</g>
<g>
</g>
<g>
</g>
<g>
</g>
<g>
</g>
<g>
</g>
<g>
</g>
</svg>
