<?xml version="1.0" encoding="iso-8859-1"?>
<!-- Generator: Adobe Illustrator 19.0.0, SVG Export Plug-In . SVG Version: 6.00 Build 0)  -->
<svg version="1.1" id="Layer_1" xmlns="http://www.w3.org/2000/svg" xmlns:xlink="http://www.w3.org/1999/xlink" x="0px" y="0px"
	 viewBox="0 0 512 512" style="enable-background:new 0 0 512 512;" xml:space="preserve">
<circle style="fill:#71E2EF;" cx="256" cy="256" r="256"/>
<path style="fill:#38C6D9;" d="M268.85,511.679c133.063-6.578,239.394-114.75,243.047-248.563L389.279,140.498L263.208,261.484
	l49.888,49.888L90.746,333.576L268.85,511.679z"/>
<path style="fill:#FFEDB5;" d="M372.441,326.68H139.559c-9.478,0-17.161-7.683-17.161-17.161V157.66
	c0-9.478,7.683-17.161,17.161-17.161h232.884c9.478,0,17.161,7.683,17.161,17.161V309.52
	C389.603,318.997,381.919,326.68,372.441,326.68z"/>
<path style="fill:#FEE187;" d="M372.441,140.498H255.426V326.68h117.015c9.478,0,17.161-7.683,17.161-17.161V157.66
	C389.603,148.182,381.919,140.498,372.441,140.498z"/>
<path style="fill:#59595B;" d="M372.441,333.576H139.559c-13.265,0-24.057-10.792-24.057-24.057V157.66
	c0-13.265,10.792-24.057,24.057-24.057h232.882c13.265,0,24.057,10.792,24.057,24.057v151.859
	C396.498,322.784,385.707,333.576,372.441,333.576z M139.559,147.394c-5.66,0-10.266,4.606-10.266,10.266v151.859
	c0,5.66,4.606,10.266,10.266,10.266h232.882c5.66,0,10.266-4.606,10.266-10.266V157.66c0-5.66-4.606-10.266-10.266-10.266H139.559z"
	/>
<path style="fill:#4C4747;" d="M372.441,133.603H255.426v13.791h117.015c5.66,0,10.266,4.606,10.266,10.266v151.859
	c0,5.66-4.606,10.266-10.266,10.266H255.426v13.791h117.015c13.265,0,24.057-10.792,24.057-24.057V157.66
	C396.498,144.394,385.707,133.603,372.441,133.603z"/>
<path style="fill:#3F3F3F;" d="M405.98,341.333H106.02c-10.473,0-18.963-8.49-18.963-18.963l0,0c0-10.473,8.49-18.963,18.963-18.963
	h299.96c10.473,0,18.963,8.49,18.963,18.963l0,0C424.943,332.843,416.453,341.333,405.98,341.333z"/>
<path style="fill:#272525;" d="M405.98,303.407H255.426v37.926H405.98c10.473,0,18.963-8.49,18.963-18.963
	S416.453,303.407,405.98,303.407z"/>
<rect x="176.7" y="170.667" style="fill:#6CAF5F;" width="28.444" height="113.778"/>
<rect x="221.953" y="227.556" style="fill:#E09112;" width="28.444" height="56.889"/>
<rect x="262.034" y="199.111" style="fill:#FF7F4F;" width="28.444" height="85.333"/>
<g>
	<rect x="306.855" y="210.747" style="fill:#A6A8AA;" width="56.889" height="5.172"/>
	<rect x="306.855" y="224.108" style="fill:#A6A8AA;" width="56.889" height="5.172"/>
	<rect x="306.855" y="250.828" style="fill:#A6A8AA;" width="56.889" height="5.172"/>
	<rect x="306.855" y="237.468" style="fill:#A6A8AA;" width="56.889" height="5.172"/>
</g>
<g>
</g>
<g>
</g>
<g>
</g>
<g>
</g>
<g>
</g>
<g>
</g>
<g>
</g>
<g>
</g>
<g>
</g>
<g>
</g>
<g>
</g>
<g>
</g>
<g>
</g>
<g>
</g>
<g>
</g>
</svg>
