<?xml version="1.0" encoding="iso-8859-1"?>
<!-- Generator: Adobe Illustrator 19.0.0, SVG Export Plug-In . SVG Version: 6.00 Build 0)  -->
<svg version="1.1" id="Layer_1" xmlns="http://www.w3.org/2000/svg" xmlns:xlink="http://www.w3.org/1999/xlink" x="0px" y="0px"
	 viewBox="0 0 504.123 504.123" style="enable-background:new 0 0 504.123 504.123;" xml:space="preserve">
<circle style="fill:#4CDBC4;" cx="252.062" cy="252.062" r="252.062"/>
<path style="fill:#FFFFFF;" d="M389.908,113.822H114.215c-11.028,0-19.692,8.665-19.692,19.692v76.406
	c0,11.028,8.665,19.692,19.692,19.692h35.446h202.043h38.203c11.028,0,19.692-8.665,19.692-19.692v-76.406
	C409.6,122.88,400.935,113.822,389.908,113.822z"/>
<polyline style="fill:#3F4B59;" points="354.068,187.865 378.88,187.865 378.88,155.963 125.243,155.963 125.243,187.865 
	150.055,187.865 "/>
<path style="fill:#FF7058;" d="M354.068,170.142H151.237l-15.754,227.643c-0.788,13.391,9.846,24.025,24.025,24.418l185.108,0.394
	c14.178,0,24.812-11.028,24.025-24.025L354.068,170.142z"/>
<polygon style="fill:#324A5E;" points="183.926,170.142 171.717,422.203 224.098,422.597 228.825,170.142 "/>
<polygon style="fill:#FFFFFF;" points="275.692,301.292 276.874,400.935 258.757,400.935 258.363,301.292 "/>
<polygon style="fill:#FFD05B;" points="270.966,170.142 271.36,215.828 335.163,216.222 332.8,170.142 "/>
<g>
	<polygon style="fill:#2B3B4E;" points="299.323,200.468 298.929,184.32 281.6,184.32 281.206,170.142 277.662,170.142 
		277.662,187.471 295.385,187.471 295.778,200.468 271.36,200.468 271.36,203.618 304.049,203.618 304.443,215.828 308.382,215.828 
		307.988,200.468 	"/>
	<polygon style="fill:#2B3B4E;" points="333.194,178.412 316.652,178.412 316.258,170.142 312.32,170.142 312.714,178.412 
		312.714,179.988 313.502,192.591 305.625,192.591 306.018,195.742 320.197,195.742 320.985,216.222 324.923,216.222 
		323.742,192.591 317.046,192.591 316.652,181.563 333.588,181.563 	"/>
</g>
<g>
	<polygon style="fill:#324A5E;" points="344.615,400.935 343.434,374.548 329.649,374.548 330.831,400.935 	"/>
	<polygon style="fill:#324A5E;" points="313.108,400.935 310.745,328.074 298.929,328.074 300.505,400.935 	"/>
	<polygon style="fill:#324A5E;" points="342.252,353.28 341.071,328.074 327.68,328.074 328.862,353.28 	"/>
	<polygon style="fill:#324A5E;" points="325.711,284.357 326.892,307.988 339.889,307.988 338.708,284.357 	"/>
	<polygon style="fill:#324A5E;" points="324.923,265.058 337.92,265.452 336.738,242.609 324.135,242.609 	"/>
</g>
<g>
</g>
<g>
</g>
<g>
</g>
<g>
</g>
<g>
</g>
<g>
</g>
<g>
</g>
<g>
</g>
<g>
</g>
<g>
</g>
<g>
</g>
<g>
</g>
<g>
</g>
<g>
</g>
<g>
</g>
</svg>
