<?xml version="1.0" encoding="iso-8859-1"?>
<!-- Generator: Adobe Illustrator 19.0.0, SVG Export Plug-In . SVG Version: 6.00 Build 0)  -->
<svg version="1.1" id="Layer_1" xmlns="http://www.w3.org/2000/svg" xmlns:xlink="http://www.w3.org/1999/xlink" x="0px" y="0px"
	 viewBox="0 0 512 512" style="enable-background:new 0 0 512 512;" xml:space="preserve">
<path style="fill:#334F55;" d="M379.88,112.972c0.05-0.143,0.15-0.251,0.194-0.397c0.159-0.547,4.224-13.397,25.832-17
	c5.215-0.869,8.738-5.799,7.869-11.014c-0.86-5.21-5.776-8.729-11.009-7.864c-22.556,3.757-33.083,15.404-37.767,23.322
	c-5.358-4.201-10.978-8.054-16.805-11.629c0.578-0.493,1.257-0.825,1.721-1.47c0.215-0.299,22.037-30.346,46.42-34.411
	c5.215-0.869,8.738-5.799,7.869-11.014c-0.86-5.21-5.813-8.738-11.009-7.864c-32.252,5.374-57.785,40.658-58.85,42.158
	c-0.918,1.281-1.361,2.715-1.574,4.173c-6.095-2.949-12.362-5.57-18.82-7.815c6.012-15.133,22.121-47.275,40.777-53.492
	c5.009-1.673,7.72-7.093,6.047-12.107c-1.664-5.009-7.056-7.729-12.103-6.051c-30.083,10.029-49.099,55.665-53.175,66.311
	c-7.227-1.655-14.573-2.978-22.104-3.716c5.952-10.978,16.975-27.565,30.597-35.74c4.533-2.72,6-8.598,3.28-13.131
	c-2.71-4.523-8.589-6.005-13.131-3.28c-24.423,14.658-39.297,45.932-41.781,51.455c-4.62,0.095-9.225,0.252-13.752,0.696
	C231.384,48.145,207.225,4.79,169.871,4.79c-5.29,0-9.57,4.285-9.57,9.57s4.28,9.57,9.57,9.57c21.54,0,39.798,25.383,48.889,42.296
	c-9.187,1.974-18.059,4.757-26.659,8.1c-7.795-9.66-24.231-27.06-44.277-31.069c-5.178-1.019-10.233,2.322-11.262,7.505
	c-1.037,5.182,2.327,10.224,7.505,11.262c11.416,2.283,22.534,12.255,29.869,20.493c-4.981,2.617-9.811,5.467-14.499,8.53
	c-8.396-7.651-34.735-29.656-68.594-38.121c-5.121-1.294-10.327,1.836-11.598,6.963c-1.29,5.131,1.832,10.327,6.963,11.607
	c26.134,6.533,47.837,22.986,57.356,31.096c-2.002,1.65-3.835,3.484-5.762,5.219c-7.112-5.401-20.711-12.104-44.491-12.104
	c-5.29,0-9.57,4.285-9.57,9.57s4.28,9.57,9.57,9.57c16.356,0,25.809,3.769,30.743,6.759
	c-27.948,31.306-45.098,72.441-45.098,117.604V502.43c0,5.285,4.28,9.57,9.57,9.57h334.95c5.29,0,9.57-4.285,9.57-9.57V239.209
	C433.046,189.803,412.644,145.111,379.88,112.972z"/>
<path style="fill:#E6D764;" d="M413.906,492.86H98.096V239.209c0-63.978,38.341-119.074,93.199-143.84
	c1.051-0.259,2.08-0.647,3.034-1.285c0.134-0.09,0.199-0.235,0.328-0.329c18.87-7.984,39.601-12.404,61.345-12.404
	c87.064,0,157.905,70.817,157.905,157.858L413.906,492.86L413.906,492.86z"/>
<path style="fill:#334F55;" d="M251.216,387.59c-23.841,0-46.074,12.832-58.018,33.49c-1.719,2.958-1.719,6.607-0.009,9.57
	s4.869,4.79,8.29,4.79h99.476c3.421,0,6.579-1.827,8.29-4.79c1.71-2.963,1.71-6.612-0.01-9.57
	C297.29,400.422,275.057,387.59,251.216,387.59z"/>
<path style="fill:#D8D8D8;" d="M222.534,416.3c16.336-12.206,41.028-12.206,57.364,0H222.534z"/>
<path style="fill:#334F55;" d="M262.4,194.833c-13.087-27.439-41.021-46.492-73.389-46.492c-44.85,0-81.345,36.49-81.345,81.345
	s36.495,81.345,81.345,81.345c30.351,0,56.831-16.741,70.808-41.446c12.755,24.583,38.403,41.446,67.957,41.446
	c42.214,0,76.56-34.346,76.56-76.56s-34.346-76.56-76.56-76.56C300.08,157.91,275.845,172.743,262.4,194.833z"/>
<g>
	<path style="fill:#D8D8D8;" d="M189.011,291.89c-34.299,0-62.205-27.906-62.205-62.205s27.906-62.205,62.205-62.205
		s62.205,27.906,62.205,62.205S223.309,291.89,189.011,291.89z"/>
	<path style="fill:#D8D8D8;" d="M385.196,234.47c0,31.663-25.757,57.42-57.42,57.42s-57.42-25.757-57.42-57.42
		s25.757-57.42,57.42-57.42S385.196,202.807,385.196,234.47z"/>
</g>
<path style="fill:#334F55;" d="M203.366,205.76c-15.832,0-28.71,12.878-28.71,28.71s12.878,28.71,28.71,28.71
	s28.71-12.878,28.71-28.71S219.197,205.76,203.366,205.76z"/>
<circle style="fill:#D8D8D8;" cx="203.365" cy="234.465" r="9.57"/>
<path style="fill:#334F55;" d="M289.496,244.04c0,15.832,12.878,28.71,28.71,28.71s28.71-12.878,28.71-28.71
	s-12.878-28.71-28.71-28.71S289.496,228.209,289.496,244.04z"/>
<circle style="fill:#D8D8D8;" cx="318.205" cy="244.035" r="9.57"/>
<g>
</g>
<g>
</g>
<g>
</g>
<g>
</g>
<g>
</g>
<g>
</g>
<g>
</g>
<g>
</g>
<g>
</g>
<g>
</g>
<g>
</g>
<g>
</g>
<g>
</g>
<g>
</g>
<g>
</g>
</svg>
