<?xml version="1.0" encoding="iso-8859-1"?>
<!-- Generator: Adobe Illustrator 19.0.0, SVG Export Plug-In . SVG Version: 6.00 Build 0)  -->
<svg version="1.1" id="Capa_1" xmlns="http://www.w3.org/2000/svg" xmlns:xlink="http://www.w3.org/1999/xlink" x="0px" y="0px"
	 viewBox="0 0 512 512" style="enable-background:new 0 0 512 512;" xml:space="preserve">
<path style="fill:#AAC4DA;" d="M10.667,32h74.667v32H10.667V32z"/>
<path style="fill:#D9EEF7;" d="M138.667,74.667h362.667V352H138.667V74.667z"/>
<path style="fill:#AAC4DA;" d="M501.333,373.333L490.667,384H85.333v-42.667h416V373.333z"/>
<g>
	<circle style="fill:#D9EEF7;" cx="384" cy="469.333" r="32"/>
	<circle style="fill:#D9EEF7;" cx="192" cy="469.333" r="32"/>
</g>
<circle style="fill:#FFE451;" cx="362.667" cy="149.333" r="138.667"/>
<g>
	<path style="fill:#4C5B66;" d="M490.667,368.917l-4.416,4.416H96V32c0-5.891-4.776-10.667-10.667-10.667H10.667
		C4.776,21.333,0,26.109,0,32v32c0,5.891,4.776,10.667,10.667,10.667h64v298.667c-0.244,11.538,8.911,21.089,20.449,21.333
		c0.295,0.006,0.589,0.006,0.884,0h32v42.667c0,5.891,4.776,10.667,10.667,10.667h16.597c-3.839,6.457-5.886,13.821-5.931,21.333
		C149.333,492.898,168.436,512,192,512s42.667-19.102,42.667-42.667c-0.044-7.512-2.091-14.876-5.931-21.333h118.528
		c-3.839,6.457-5.886,13.821-5.931,21.333C341.333,492.898,360.436,512,384,512c23.564,0,42.667-19.102,42.667-42.667
		c-0.044-7.512-2.091-14.876-5.931-21.333h12.181l18.208,18.208c2,2.001,4.713,3.125,7.541,3.125h42.667V448h-38.251l-18.208-18.208
		c-2-2.001-4.713-3.125-7.541-3.125h-288v-32h341.333c2.829-0.001,5.541-1.125,7.541-3.125l10.667-10.667
		c2.001-2,3.125-4.713,3.125-7.541v-96h-21.333V368.917z M74.667,53.333H21.333V42.667h53.333V53.333z M213.333,469.333
		c0,11.782-9.551,21.333-21.333,21.333c-11.782,0-21.333-9.551-21.333-21.333S180.218,448,192,448
		C203.782,448,213.333,457.551,213.333,469.333z M405.333,469.333c0,11.782-9.551,21.333-21.333,21.333
		c-11.782,0-21.333-9.551-21.333-21.333S372.218,448,384,448C395.782,448,405.333,457.551,405.333,469.333z"/>
	<path style="fill:#4C5B66;" d="M149.333,298.667H224v42.667h21.333v-42.667h21.333v-21.333H149.333V224H192v-21.333h-42.667
		v-53.333H192V128h-42.667V85.333h53.333V64h-64C132.776,64,128,68.776,128,74.667v266.667h21.333V298.667z"/>
	<path style="fill:#4C5B66;" d="M309.333,320h21.333v21.333h-21.333V320z"/>
	<path style="fill:#4C5B66;" d="M405.333,320h21.333v21.333h-21.333V320z"/>
	<path style="fill:#4C5B66;" d="M362.667,298.667c82.475,0,149.333-66.859,149.333-149.333S445.141,0,362.667,0
		S213.333,66.859,213.333,149.333C213.422,231.771,280.229,298.578,362.667,298.667z M362.667,21.333c70.692,0,128,57.308,128,128
		s-57.308,128-128,128s-128-57.308-128-128C234.743,78.673,292.006,21.41,362.667,21.333z"/>
	<path style="fill:#4C5B66;" d="M309.333,224H320v21.333h21.333V224h21.333v21.333H384V224
		c23.564-0.016,42.654-19.132,42.637-42.696c-0.008-12.235-5.269-23.878-14.445-31.971c17.673-15.586,19.365-42.548,3.779-60.221
		c-8.093-9.176-19.736-14.437-31.971-14.445V53.333h-21.333v21.333h-21.333V53.333H320v21.333h-10.667
		c-5.891,0-10.667,4.776-10.667,10.667v128C298.667,219.224,303.442,224,309.333,224z M320,96h64
		c11.782,0,21.333,9.551,21.333,21.333s-9.551,21.333-21.333,21.333h-64V96z M320,160h64c11.782,0,21.333,9.551,21.333,21.333
		s-9.551,21.333-21.333,21.333h-64V160z"/>
	<path style="fill:#4C5B66;" d="M448,138.667h21.333V160H448V138.667z"/>
	<path style="fill:#4C5B66;" d="M256,138.667h21.333V160H256V138.667z"/>
</g>
<g>
</g>
<g>
</g>
<g>
</g>
<g>
</g>
<g>
</g>
<g>
</g>
<g>
</g>
<g>
</g>
<g>
</g>
<g>
</g>
<g>
</g>
<g>
</g>
<g>
</g>
<g>
</g>
<g>
</g>
</svg>
