<?xml version="1.0" encoding="iso-8859-1"?>
<!-- Generator: Adobe Illustrator 19.0.0, SVG Export Plug-In . SVG Version: 6.00 Build 0)  -->
<svg version="1.1" id="Layer_1" xmlns="http://www.w3.org/2000/svg" xmlns:xlink="http://www.w3.org/1999/xlink" x="0px" y="0px"
	 viewBox="0 0 512 512" style="enable-background:new 0 0 512 512;" xml:space="preserve">
<circle style="fill:#273B7A;" cx="256" cy="256" r="256"/>
<path style="fill:#121149;" d="M352.225,156.274l0.709,0.709l-7.882,7.882l-59.687-59.687l-15.722,17.077l2.131,2.131
	l-14.581,13.248l72.682,72.806l-12.09,10.112l54.801,54.801l-36.755,9.883l-40.432-40.432l-62.842,14.758l1.867,1.867h-92.201
	l-19.68,16.589l-15.825-15.825l-7.161,18.365h19.977l-34.199,28.831l200.833,200.833c117.751-13.826,211.049-107.551,224.22-225.502
	l-144.41-144.41L352.225,156.274z"/>
<path style="fill:#E09112;" d="M256,280.943l49.099-24.548c-13.719-21.114-43.087-35.84-67.696-35.84
	c-33.352,0-135.877,60.39-135.877,60.39s102.522,60.388,135.875,60.388c24.609,0,53.977-14.727,67.696-35.84L256,280.943z"/>
<g>
	<path style="fill:#FF5419;" d="M101.616,280.997c3.329,1.955,102.993,60.337,135.787,60.337c24.609,0,53.977-14.727,67.696-35.84
		l-48.993-24.497H101.616z"/>
	<path style="fill:#FF5419;" d="M85.333,252.499c15.71,0,28.444,12.734,28.444,28.444s-12.734,28.444-28.444,28.444V252.499z"/>
</g>
<path style="fill:#C92F00;" d="M85.333,280.997v28.391c15.691,0,28.413-12.707,28.441-28.391H85.333z"/>
<path style="fill:#FF5419;" d="M318.923,280.943c0,0,41.179-20.687,56.889-20.687s28.444,9.263,28.444,20.687
	s-12.734,20.687-28.444,20.687S318.923,280.943,318.923,280.943z"/>
<g>
	<path style="fill:#C92F00;" d="M319.028,280.997c2.186,1.091,41.512,20.633,56.784,20.633c15.684,0,28.401-9.233,28.441-20.633
		H319.028z"/>
	<path style="fill:#C92F00;" d="M312.889,268.407c7.616,0,13.791,5.613,13.791,12.538s-6.175,12.538-13.791,12.538V268.407z"/>
</g>
<path style="fill:#930000;" d="M312.889,280.997v12.485c7.597,0,13.757-5.585,13.788-12.485H312.889z"/>
<g>
	<circle style="fill:#272525;" cx="256.862" cy="255.086" r="7.111"/>
	<circle style="fill:#272525;" cx="387.017" cy="276.635" r="4.31"/>
</g>
<g>
	<circle style="fill:#71E2EF;" cx="327.111" cy="209.834" r="14.222"/>
	<circle style="fill:#71E2EF;" cx="355.556" cy="152.945" r="16.377"/>
	<circle style="fill:#71E2EF;" cx="272.377" cy="122.344" r="21.549"/>
</g>
<g>
	<path style="fill:#38C6D9;" d="M327.111,195.61c7.854,0,14.222,6.368,14.222,14.222s-6.368,14.222-14.222,14.222V195.61z"/>
	<path style="fill:#38C6D9;" d="M355.556,136.566c9.045,0,16.377,7.332,16.377,16.377s-7.332,16.377-16.377,16.377V136.566z"/>
	<path style="fill:#38C6D9;" d="M272.377,100.795c11.902,0,21.549,9.647,21.549,21.549s-9.647,21.549-21.549,21.549V100.795z"/>
</g>
<g>
</g>
<g>
</g>
<g>
</g>
<g>
</g>
<g>
</g>
<g>
</g>
<g>
</g>
<g>
</g>
<g>
</g>
<g>
</g>
<g>
</g>
<g>
</g>
<g>
</g>
<g>
</g>
<g>
</g>
</svg>
