<?xml version="1.0" encoding="iso-8859-1"?>
<!-- Generator: Adobe Illustrator 19.0.0, SVG Export Plug-In . SVG Version: 6.00 Build 0)  -->
<svg version="1.1" id="Layer_1" xmlns="http://www.w3.org/2000/svg" xmlns:xlink="http://www.w3.org/1999/xlink" x="0px" y="0px"
	 viewBox="0 0 505 505" style="enable-background:new 0 0 505 505;" xml:space="preserve">
<circle style="fill:#FD8469;" cx="252.5" cy="252.5" r="252.5"/>
<rect x="108" y="93.1" style="fill:#FFFFFF;" width="289.1" height="302.4"/>
<g>
	<rect x="139.2" y="144.1" style="fill:#4CDBC4;" width="257.8" height="1.8"/>
	<rect x="139.2" y="147.9" style="fill:#4CDBC4;" width="257.8" height="1.8"/>
</g>
<g>
	<rect x="139.2" y="171.5" style="fill:#E6E9EE;" width="257.8" height="1.8"/>
	<rect x="139.2" y="193.3" style="fill:#E6E9EE;" width="257.8" height="1.8"/>
	<rect x="139.2" y="215" style="fill:#E6E9EE;" width="257.8" height="1.8"/>
	<rect x="139.2" y="236.8" style="fill:#E6E9EE;" width="257.8" height="1.8"/>
	<rect x="139.2" y="258.6" style="fill:#E6E9EE;" width="257.8" height="1.8"/>
	<rect x="139.2" y="280.4" style="fill:#E6E9EE;" width="257.8" height="1.8"/>
	<rect x="139.2" y="302.1" style="fill:#E6E9EE;" width="257.8" height="1.8"/>
	<rect x="139.2" y="323.9" style="fill:#E6E9EE;" width="257.8" height="1.8"/>
	<rect x="139.2" y="345.7" style="fill:#E6E9EE;" width="257.8" height="1.8"/>
	<rect x="139.2" y="367.5" style="fill:#E6E9EE;" width="257.8" height="1.8"/>
</g>
<rect x="138.2" y="110.1" style="fill:#ACB3BA;" width="2" height="272.5"/>
<rect x="351.9" y="225.9" style="fill:#FF7058;" width="24.5" height="142.5"/>
<rect x="303.8" y="252.4" style="fill:#4CDBC4;" width="24.5" height="115.9"/>
<path style="fill:#2C9984;" d="M314,346.5c0-5.2,0.2-10.4,1-15.7c0.8-5.4,4.6-7.6,8.7-7.4c0.1-3.5,0-7.2-0.2-11.1
	c-0.7-12.7-3.2-24-6.2-36.2c-2-8.4,1.1-10.7-7.8-12.2c-2.7-0.5-4.6-1.7-5.8-3.4V357C307.1,353.4,310.5,350.1,314,346.5z"/>
<rect id="SVGCleanerId_0" x="255.7" y="288.4" style="fill:#FFD05B;" width="24.5" height="79.9"/>
<g>
	<rect id="SVGCleanerId_0_1_" x="255.7" y="288.4" style="fill:#FFD05B;" width="24.5" height="79.9"/>
</g>
<rect x="207.6" y="266" style="fill:#54C0EB;" width="24.5" height="102.4"/>
<path style="fill:#84DBFF;" d="M230.9,350.5c-6,0-9.2-4.2-9.8-8.7h-13.6v26.6H232v-17.9C231.7,350.4,231.3,350.5,230.9,350.5z"/>
<rect x="159.4" y="244.3" style="fill:#ACB3BA;" width="24.5" height="124.1"/>
<g>
	<path style="fill:#324A5E;" d="M130.4,167.9c0.7,0,1.2-0.2,1.5-0.7s0.5-1.1,0.5-1.9c-0.2,0.2-0.5,0.4-0.8,0.6
		c-0.4,0.2-0.7,0.3-1.2,0.3c-0.7,0-1.3-0.2-1.8-0.7s-0.7-1.1-0.7-1.9c0-0.8,0.3-1.4,0.8-1.9s1.2-0.7,1.9-0.7c1.3,0,2.1,0.6,2.6,1.7
		c0.3,0.6,0.4,1.4,0.4,2.2s-0.1,1.5-0.3,2s-0.4,1-0.7,1.3c-0.6,0.6-1.3,0.9-2.1,0.9s-1.6-0.3-2.3-0.8l0.7-1c0.2,0.1,0.4,0.3,0.7,0.4
		C129.9,167.8,130.2,167.9,130.4,167.9z M130.6,165c0.5,0,0.8-0.1,1.1-0.4c0.3-0.3,0.5-0.6,0.5-1s-0.1-0.7-0.4-1
		c-0.3-0.3-0.7-0.4-1.1-0.4c-0.4,0-0.8,0.1-1.1,0.4c-0.3,0.3-0.4,0.6-0.4,1s0.1,0.7,0.4,1C129.8,164.8,130.2,165,130.6,165z"/>
	<path style="fill:#324A5E;" d="M128.9,184c0.5-0.4,1.1-0.6,1.9-0.6c0.8,0,1.4,0.2,1.9,0.6c0.5,0.4,0.8,0.9,0.8,1.5
		s-0.3,1.1-0.8,1.6c0.8,0.5,1.1,1.2,1.1,2c0,0.7-0.3,1.2-0.8,1.7s-1.2,0.7-2.1,0.7c-0.9,0-1.6-0.2-2.1-0.7s-0.8-1-0.8-1.7
		c0-0.9,0.4-1.5,1.1-2c-0.6-0.5-0.8-1-0.8-1.6C128.1,184.9,128.4,184.4,128.9,184z M129.7,190.1c0.3,0.2,0.7,0.3,1.1,0.3
		s0.8-0.1,1.1-0.3s0.5-0.5,0.5-0.9s-0.2-0.7-0.5-1c-0.3-0.2-0.7-0.3-1.1-0.3c-0.4,0-0.8,0.1-1.1,0.3s-0.5,0.5-0.5,1
		C129.2,189.5,129.3,189.8,129.7,190.1z M129.8,186.5c0.3,0.2,0.6,0.3,1,0.3s0.7-0.1,1-0.3s0.4-0.5,0.4-0.8s-0.1-0.6-0.4-0.8
		c-0.3-0.2-0.6-0.3-1-0.3s-0.7,0.1-1,0.3s-0.4,0.5-0.4,0.8C129.4,186,129.5,186.3,129.8,186.5z"/>
	<path style="fill:#324A5E;" d="M128.5,208.3V206h5.5v1.2l-3.3,6.7h-1.5l3.2-6.6h-2.8v1.1h-1.1V208.3z"/>
	<path style="fill:#324A5E;" d="M131.4,229.5c-0.7,0-1.2,0.2-1.5,0.7s-0.5,1.1-0.5,1.9c0.2-0.2,0.5-0.4,0.8-0.6
		c0.4-0.2,0.7-0.3,1.2-0.3c0.7,0,1.3,0.2,1.8,0.7s0.7,1.1,0.7,1.9c0,0.8-0.3,1.4-0.8,1.9s-1.2,0.7-1.9,0.7c-1.3,0-2.1-0.6-2.6-1.7
		c-0.3-0.6-0.4-1.4-0.4-2.2s0.1-1.5,0.3-2s0.4-1,0.7-1.3c0.6-0.6,1.3-0.9,2.2-0.9c0.8,0,1.6,0.3,2.3,0.8l-0.7,1
		c-0.2-0.1-0.4-0.3-0.7-0.4C131.8,229.6,131.6,229.5,131.4,229.5z M131.1,232.5c-0.5,0-0.8,0.1-1.1,0.4c-0.3,0.3-0.5,0.6-0.5,1
		s0.1,0.7,0.4,1c0.3,0.3,0.7,0.4,1.1,0.4c0.4,0,0.8-0.1,1.1-0.4c0.3-0.3,0.4-0.6,0.4-1s-0.1-0.7-0.4-1
		C131.9,232.6,131.6,232.5,131.1,232.5z"/>
	<path style="fill:#324A5E;" d="M133.3,250.9v1.2H130v1.9c0.3-0.2,0.7-0.3,1.1-0.3c0.7,0,1.4,0.2,1.9,0.7c0.5,0.4,0.8,1,0.8,1.8
		s-0.3,1.4-0.8,1.9c-0.6,0.5-1.2,0.7-2,0.7c-1.1,0-1.9-0.4-2.5-1.1l0.7-1c0.1,0.1,0.1,0.1,0.2,0.2c0.1,0.1,0.3,0.2,0.6,0.3
		c0.3,0.1,0.7,0.2,1,0.2c0.4,0,0.7-0.1,1-0.3c0.3-0.2,0.5-0.6,0.5-1s-0.2-0.8-0.5-1s-0.7-0.4-1.2-0.4s-1,0.1-1.4,0.4l-0.6-0.6v-3.8
		h4.5V250.9z"/>
	<path style="fill:#324A5E;" d="M131.7,278.1v-1.4h1.3v1.4h0.9v1.2H133v2h-1.3v-2h-3.4v-1.2l2.9-4.7h1.4l-2.8,4.7H131.7z"/>
	<path style="fill:#324A5E;" d="M128.7,297v-1.2h4.6v1l-1.9,2.1c0.7,0,1.3,0.2,1.7,0.7c0.4,0.4,0.6,0.9,0.6,1.5
		c0,0.8-0.3,1.4-0.8,1.9s-1.2,0.7-2.1,0.7c-0.9,0-1.7-0.3-2.5-0.8l0.6-1.1c0.6,0.4,1.3,0.7,2,0.7c0.5,0,0.8-0.1,1.1-0.3
		c0.3-0.2,0.4-0.5,0.4-0.9s-0.2-0.7-0.5-1c-0.3-0.2-0.8-0.4-1.4-0.4c-0.3,0-0.6,0-0.8,0.1v-1l1.8-2.1h-2.8V297z"/>
	<path style="fill:#324A5E;" d="M131.9,321.3c0.2-0.3,0.3-0.6,0.3-0.9s-0.1-0.6-0.4-0.8c-0.2-0.2-0.5-0.3-0.9-0.3
		c-0.6,0-1.2,0.3-1.6,1l-1.1-0.6c0.3-0.5,0.7-0.9,1.1-1.2c0.4-0.3,1-0.4,1.6-0.4c0.7,0,1.2,0.2,1.7,0.6s0.7,1,0.7,1.7
		c0,0.4-0.1,0.8-0.3,1.2c-0.2,0.4-0.6,0.8-1.2,1.4l-1.8,1.9h3.6v1.3h-5.4v-1.1l2.4-2.4C131.3,322.1,131.7,321.7,131.9,321.3z"/>
	<path style="fill:#324A5E;" d="M130.4,340.7h2.9v7.8H132v-6.7h-1.6L130.4,340.7L130.4,340.7z"/>
	<path style="fill:#324A5E;" d="M128.1,370c-0.5-0.7-0.8-1.7-0.8-3c0-1.2,0.3-2.2,0.8-3c0.5-0.7,1.3-1.1,2.4-1.1
		c1.1,0,1.9,0.4,2.4,1.1s0.8,1.7,0.8,3c0,1.2-0.3,2.2-0.8,3c-0.5,0.7-1.3,1.1-2.4,1.1C129.4,371.1,128.6,370.7,128.1,370z
		 M129,364.9c-0.3,0.5-0.5,1.2-0.5,2.1s0.2,1.6,0.5,2.1s0.8,0.8,1.5,0.8s1.1-0.3,1.4-0.8c0.3-0.5,0.5-1.2,0.5-2.1s-0.2-1.6-0.5-2.1
		s-0.8-0.8-1.4-0.8C129.8,364.1,129.3,364.4,129,364.9z"/>
</g>
<rect x="252.8" y="365.6" style="fill:#2B3B4E;" width="17.8" height="30.4"/>
<g>
	<path style="fill:#324A5E;" d="M261.7,236.4c-37.4,0-67.8,30.3-67.8,67.8c0,37.4,30.3,67.8,67.8,67.8c37.4,0,67.8-30.3,67.8-67.8
		C329.4,266.7,299.1,236.4,261.7,236.4z M261.7,355.5c-28.3,0-51.3-23-51.3-51.3s23-51.3,51.3-51.3s51.3,23,51.3,51.3
		S290,355.5,261.7,355.5z"/>
	<path style="fill:#324A5E;" d="M245.2,392.4h33c0.9,0,1.7,0.7,1.7,1.7v61c0,0.9-0.7,1.7-1.7,1.7h-33c-0.9,0-1.7-0.7-1.7-1.7v-61
		C243.5,393.2,244.3,392.4,245.2,392.4z"/>
</g>
<g>
</g>
<g>
</g>
<g>
</g>
<g>
</g>
<g>
</g>
<g>
</g>
<g>
</g>
<g>
</g>
<g>
</g>
<g>
</g>
<g>
</g>
<g>
</g>
<g>
</g>
<g>
</g>
<g>
</g>
</svg>
