<?xml version="1.0" encoding="iso-8859-1"?>
<!-- Generator: Adobe Illustrator 19.0.0, SVG Export Plug-In . SVG Version: 6.00 Build 0)  -->
<svg version="1.1" id="Capa_1" xmlns="http://www.w3.org/2000/svg" xmlns:xlink="http://www.w3.org/1999/xlink" x="0px" y="0px"
	 viewBox="0 0 480 480" style="enable-background:new 0 0 480 480;" xml:space="preserve">
<path style="fill:#E8EDED;" d="M88,152c0-4.512,0.272-8.96,0.672-13.368C88.256,143.04,88,147.488,88,152z"/>
<path style="fill:#60C4C2;" d="M372.312,184H303.2H192H91.688H48c-22.088,0-40-17.912-40-40v288c0,22.088,17.912,40,40,40h392V368
	h-40v24h-32v-24h-56l-32-40l32-40h56v-24h32v24h40v-64v-40H372.312z"/>
<g>
	<path style="fill:#E8EDED;" d="M89.656,131.288c0.24-1.688,0.472-3.384,0.768-5.048C90.12,127.904,89.912,129.6,89.656,131.288z"/>
	<path style="fill:#E8EDED;" d="M371.432,116.592c-0.16-0.624-0.312-1.256-0.48-1.88
		C371.12,115.344,371.272,115.968,371.432,116.592z"/>
	<path style="fill:#E8EDED;" d="M376,152c0-4.512-0.256-8.96-0.672-13.368C375.728,143.04,376,147.488,376,152z"/>
	<path style="fill:#E8EDED;" d="M374.344,131.288c-0.248-1.688-0.464-3.384-0.768-5.048
		C373.872,127.904,374.096,129.6,374.344,131.288z"/>
	<path style="fill:#E8EDED;" d="M92.568,116.592c0.16-0.624,0.312-1.256,0.48-1.88C92.88,115.344,92.728,115.968,92.568,116.592z"/>
</g>
<g>
	<path style="fill:#CBF3F0;" d="M48,184h43.688C89.344,173.696,88,163.016,88,152c0-4.512,0.256-8.96,0.672-13.368
		c0.232-2.48,0.632-4.904,0.984-7.352c0.248-1.688,0.464-3.384,0.768-5.048c0.592-3.264,1.336-6.456,2.136-9.64
		c0.16-0.624,0.312-1.256,0.48-1.88c0.976-3.632,2.072-7.2,3.32-10.72H48c-22.088,0-40,17.912-40,40S25.912,184,48,184z"/>
	<path style="fill:#CBF3F0;" d="M371.432,116.592c0.808,3.184,1.544,6.376,2.136,9.64c0.312,1.664,0.52,3.368,0.768,5.048
		c0.352,2.44,0.752,4.872,0.984,7.352c0.424,4.408,0.68,8.856,0.68,13.368c0,11.016-1.352,21.696-3.688,32H440v-80h-72.368
		c1.248,3.512,2.344,7.08,3.32,10.72C371.12,115.344,371.272,115.968,371.432,116.592z"/>
</g>
<g>
	<path style="fill:#E8EDED;" d="M88.672,138.632c0.24-2.48,0.616-4.912,0.984-7.352C89.304,133.728,88.904,136.152,88.672,138.632z"
		/>
	<path style="fill:#E8EDED;" d="M96.368,104L96.368,104c-1.248,3.512-2.344,7.08-3.32,10.72
		C94.032,111.096,95.128,107.512,96.368,104z"/>
	<path style="fill:#E8EDED;" d="M90.432,126.232c0.608-3.248,1.32-6.464,2.136-9.64C91.76,119.776,91.016,122.976,90.432,126.232z"
		/>
	<path style="fill:#E8EDED;" d="M375.328,138.632c-0.232-2.48-0.632-4.904-0.984-7.352
		C374.704,133.72,375.088,136.16,375.328,138.632z"/>
	<path style="fill:#E8EDED;" d="M373.568,126.232c-0.592-3.264-1.336-6.456-2.136-9.64
		C372.248,119.768,372.968,122.984,373.568,126.232z"/>
	<path style="fill:#E8EDED;" d="M370.952,114.72c-0.976-3.632-2.072-7.2-3.32-10.72l0,0
		C368.872,107.512,369.968,111.096,370.952,114.72z"/>
</g>
<g>
	<path style="fill:#FFBF69;" d="M375.328,138.632c-0.24-2.48-0.616-4.912-0.984-7.352c-0.24-1.688-0.472-3.384-0.768-5.048
		c-0.608-3.248-1.32-6.464-2.136-9.64c-0.16-0.624-0.312-1.256-0.48-1.88c-0.984-3.624-2.08-7.208-3.32-10.72
		c-19.792-55.896-72.96-96-135.632-96s-115.84,40.104-135.632,96c-1.24,3.512-2.336,7.096-3.32,10.72
		c-0.168,0.624-0.32,1.248-0.48,1.88c-0.816,3.176-1.536,6.384-2.136,9.64c-0.304,1.672-0.528,3.36-0.768,5.048
		c-0.368,2.44-0.744,4.872-0.984,7.352C88.272,143.04,88,147.488,88,152c0,11.016,1.352,21.696,3.688,32H192h111.192h69.112
		c2.344-10.304,3.688-20.984,3.688-32C376,147.488,375.728,143.04,375.328,138.632z"/>
	<polygon style="fill:#FFBF69;" points="312,288 280,328 312,368 368,368 368,288 	"/>
</g>
<polygon style="fill:#FF9F1C;" points="368,264 368,288 368,368 368,392 400,392 400,368 400,288 400,264 "/>
<path style="fill:#FFBF69;" d="M440,288h-40v80h40c17.672,0,32-14.328,32-32v-80C472,273.672,457.672,288,440,288z"/>
<g>
	<path style="fill:#FF9F1C;" d="M440,224v64c17.672,0,32-14.328,32-32S457.672,224,440,224z"/>
	<path style="fill:#FF9F1C;" d="M347.552,184c2.824-10.2,4.448-20.904,4.448-32c0-66.272-53.728-120-120-120S112,85.728,112,152
		c0,11.096,1.624,21.8,4.448,32H347.552z"/>
</g>
<g>
	<rect x="112" y="144" style="fill:#3F3F3F;" width="16" height="16"/>
	<rect x="336" y="144" style="fill:#3F3F3F;" width="16" height="16"/>
	<rect x="40" y="312" style="fill:#3F3F3F;" width="16" height="16"/>
	<rect x="40" y="280" style="fill:#3F3F3F;" width="16" height="16"/>
	<rect x="40" y="248" style="fill:#3F3F3F;" width="16" height="16"/>
	<path style="fill:#3F3F3F;" d="M448,216.808V184v-80c0-4.424-3.576-8-8-8h-66.824C350.816,39.848,296.024,0,232,0
		S113.184,39.848,90.824,96H48c-26.472,0-48,21.528-48,48v288c0,26.472,21.528,48,48,48h392c4.424,0,8-3.576,8-8v-96.808
		c18.232-3.72,32-19.872,32-39.192v-80C480,236.688,466.232,220.528,448,216.808z M464,256c0,1.512-0.176,2.976-0.448,4.408
		c-0.08,0.448-0.208,0.872-0.32,1.312c-0.24,0.984-0.536,1.952-0.896,2.888c-0.176,0.448-0.352,0.896-0.56,1.336
		c-0.432,0.936-0.928,1.84-1.472,2.712c-0.208,0.328-0.384,0.68-0.608,1c-0.8,1.152-1.68,2.24-2.664,3.232
		c-0.16,0.168-0.352,0.296-0.52,0.456c-0.848,0.808-1.752,1.56-2.712,2.24c-0.368,0.256-0.752,0.488-1.128,0.728
		c-0.848,0.528-1.72,1.008-2.632,1.432c-0.408,0.192-0.816,0.384-1.24,0.552c-0.256,0.104-0.544,0.16-0.8,0.248v-45.16
		C457.312,236.672,464,245.568,464,256z M378.528,112H432v64h-49.984c0.088-0.544,0.12-1.088,0.2-1.632
		c0.448-2.936,0.808-5.864,1.08-8.776c0.096-1,0.184-2,0.264-3c0.264-3.552,0.44-7.096,0.44-10.592
		c0-4.432-0.272-8.856-0.672-13.272c-0.136-1.528-0.288-3.04-0.464-4.552c-0.352-2.888-0.8-5.76-1.32-8.632
		c-0.632-3.6-1.424-7.144-2.312-10.648C378.984,113.928,378.8,112.96,378.528,112z M232,16c59.248,0,109.632,38.144,128.232,91.112
		c1.128,3.224,2.112,6.464,2.992,9.72c0.208,0.776,0.408,1.56,0.6,2.344c0.728,2.896,1.368,5.792,1.904,8.704
		c0.304,1.68,0.536,3.376,0.776,5.072c0.32,2.2,0.656,4.392,0.864,6.592C367.744,143.656,368,147.8,368,152
		c0,4.512-0.312,9.104-0.808,13.712c-0.152,1.4-0.384,2.808-0.576,4.216c-0.28,2.016-0.672,4.04-1.04,6.064h-56.44
		c-4.784-13.48-15.304-24.04-28.44-28.952C290.08,138.28,296,125.832,296,112c0-26.472-21.528-48-48-48V48h-16v16h-16V48h-16v16h-8
		c-4.424,0-8,3.576-8,8v80v24H98.424c-0.368-2.024-0.76-4.048-1.04-6.064c-0.192-1.408-0.432-2.816-0.576-4.216
		C96.312,161.104,96,156.512,96,152c0-4.2,0.256-8.344,0.632-12.448c0.208-2.2,0.544-4.4,0.864-6.592
		c0.24-1.696,0.472-3.392,0.776-5.072c0.536-2.912,1.176-5.816,1.904-8.704c0.192-0.784,0.392-1.56,0.6-2.344
		c0.88-3.256,1.864-6.504,2.992-9.72C122.368,54.144,172.752,16,232,16z M248,80c17.648,0,32,14.352,32,32s-14.352,32-32,32h-48V80
		H248z M200,160h48h16c11.632,0,22.112,6.344,27.712,16H200V160z M48,112h37.472c-0.264,0.96-0.448,1.928-0.696,2.896
		c-0.888,3.512-1.68,7.048-2.312,10.648c-0.52,2.872-0.968,5.744-1.32,8.632c-0.176,1.512-0.336,3.024-0.464,4.552
		C80.272,143.144,80,147.568,80,152c0,3.496,0.176,7.04,0.44,10.592c0.072,1,0.168,2,0.264,3c0.272,2.92,0.632,5.84,1.08,8.776
		c0.08,0.544,0.112,1.08,0.2,1.632H48c-17.648,0-32-14.352-32-32S30.352,112,48,112z M56,464V344H40v118.864
		C26.232,459.288,16,446.872,16,432V179.752c0.144,0.128,0.312,0.216,0.456,0.336c1.864,1.632,3.856,3.12,5.96,4.448
		c0.336,0.216,0.672,0.416,1.016,0.616c2.16,1.296,4.424,2.44,6.784,3.384c0.328,0.128,0.656,0.24,0.984,0.36
		c2.448,0.92,4.976,1.672,7.6,2.184c0.232,0.048,0.472,0.064,0.712,0.112c2.76,0.496,5.592,0.8,8.488,0.8h43.696H192h111.192h69.112
		H432v32v56h-24v-16c0-4.424-3.576-8-8-8h-32c-4.424,0-8,3.576-8,8v16h-48c-2.432,0-4.728,1.104-6.248,3l-32,40
		c-2.336,2.92-2.336,7.08,0,10l32,40c1.52,1.904,3.816,3.008,6.248,3.008h48v16c0,4.424,3.576,8,8,8h32c4.424,0,8-3.576,8-8v-16h24
		v88H56z M360,360h-44.16l-25.6-32l25.6-32H360V360z M376,368v-80v-16h16v16v80v16h-16V368z M464,336c0,13.232-10.768,24-24,24h-32
		v-64h32c2.544,0,5.008-0.296,7.424-0.752c0.76-0.144,1.48-0.376,2.224-0.56c1.64-0.408,3.248-0.888,4.8-1.496
		c0.792-0.312,1.552-0.648,2.32-1c1.472-0.688,2.88-1.456,4.248-2.304c0.672-0.416,1.352-0.816,1.992-1.272
		c0.32-0.224,0.68-0.4,1-0.632V336H464z"/>
	<rect x="400" y="432" style="fill:#3F3F3F;" width="16" height="16"/>
</g>
<g>
</g>
<g>
</g>
<g>
</g>
<g>
</g>
<g>
</g>
<g>
</g>
<g>
</g>
<g>
</g>
<g>
</g>
<g>
</g>
<g>
</g>
<g>
</g>
<g>
</g>
<g>
</g>
<g>
</g>
</svg>
