<?xml version="1.0" encoding="iso-8859-1"?>
<!-- Generator: Adobe Illustrator 19.0.0, SVG Export Plug-In . SVG Version: 6.00 Build 0)  -->
<svg version="1.1" id="Layer_1" xmlns="http://www.w3.org/2000/svg" xmlns:xlink="http://www.w3.org/1999/xlink" x="0px" y="0px"
	 viewBox="0 0 512 512" style="enable-background:new 0 0 512 512;" xml:space="preserve">
<path style="fill:#334F55;" d="M467.862,384V238.345c0-90.052-73.284-163.31-163.362-163.31h-97
	c-90.078,0-163.362,73.259-163.362,163.31V384H0v17.655h52.966h17.655h35.754c2.22,19.805,18.88,35.31,39.28,35.31
	s37.06-15.505,39.28-35.31h142.129c2.22,19.805,18.88,35.31,39.28,35.31c20.4,0,37.06-15.505,39.28-35.31h35.755h17.655H512V384
	H467.862z"/>
<path style="fill:#77C9C9;" d="M441.379,384h-35.31v-52.966h-17.655V384v13.263c0,12.155-9.897,22.047-22.069,22.047
	c-12.172,0-22.069-9.892-22.069-22.047V384v-52.966h-17.655V384H185.379v-52.966h-17.655V384v13.263
	c0,12.155-9.897,22.047-22.069,22.047s-22.069-9.892-22.069-22.047V384v-52.966h-17.655V384h-35.31h-8.828V238.345
	c0-80.315,65.362-145.655,145.707-145.655h97c80.345,0,145.707,65.34,145.707,145.655V384H441.379z"/>
<g>
	<path style="fill:#334F55;" d="M185.379,251.586c0,14.603-11.879,26.483-26.483,26.483h-8.828v17.655h8.828
		c24.336,0,44.138-19.802,44.138-44.138v-8.828h-17.655V251.586z"/>
	<path style="fill:#334F55;" d="M326.621,251.586v-8.828h-17.655v8.828c0,24.336,19.802,44.138,44.138,44.138h8.828v-17.655h-8.828
		C338.5,278.069,326.621,266.19,326.621,251.586z"/>
</g>
<g>
</g>
<g>
</g>
<g>
</g>
<g>
</g>
<g>
</g>
<g>
</g>
<g>
</g>
<g>
</g>
<g>
</g>
<g>
</g>
<g>
</g>
<g>
</g>
<g>
</g>
<g>
</g>
<g>
</g>
</svg>
