<?xml version="1.0" encoding="utf-8"?>
<!-- Generator: Adobe Illustrator 21.0.0, SVG Export Plug-In . SVG Version: 6.00 Build 0)  -->
<svg version="1.1" id="Layer_1" xmlns="http://www.w3.org/2000/svg" xmlns:xlink="http://www.w3.org/1999/xlink" x="0px" y="0px"
	 viewBox="0 0 503.5 503.5" style="enable-background:new 0 0 503.5 503.5;" xml:space="preserve">
<style type="text/css">
	.st0{fill:#AAB1BA;}
	.st1{fill:#FFD0A1;}
	.st2{fill:#FFE079;}
	.st3{fill:#51565F;}
	.st4{display:none;fill:#FFE079;stroke:#51565F;stroke-width:10;stroke-miterlimit:10;}
	
		.st5{display:none;fill:#FFE079;stroke:#51565F;stroke-width:10;stroke-linecap:square;stroke-linejoin:bevel;stroke-miterlimit:10;}
</style>
<g transform="translate(1 1)">
	<path class="st0" d="M395.8,464.1h-68.3h-17.1v34.1H447v-34.1L395.8,464.1L395.8,464.1z M191,464.1v34.1H54.5v-34.1h51.2h68.3
		L191,464.1L191,464.1z"/>
	<path class="st1" d="M447,300.2V182.5c0-14.5,11.1-25.6,25.6-25.6c14.5,0,25.6,11.1,25.6,25.6v128c0,28.2-17.1,42.7-17.1,42.7
		l-68.3,68.3c0,0-17.1,17.1-17.1,42.7h-68.3v-76.8c0-28.2,17.1-42.7,17.1-42.7l59.7-59.7c10.2-10.2,24.7-11.1,35-0.9
		C444.4,288.3,446.1,294.3,447,300.2L447,300.2z M55.3,300.2c0-6,2.6-11.9,6.8-17.1c10.2-10.2,25.6-8.5,35,0.9l59.7,59.7
		c0,0,17.1,14.5,17.1,42.7v76.8h-68.3c0-25.6-17.1-42.7-17.1-42.7l-68.3-68.3c0,0-17.1-14.5-17.1-42.7v-128
		c0-14.5,11.1-25.6,25.6-25.6s25.6,11.1,25.6,25.6L55.3,300.2L55.3,300.2z"/>
	<path class="st2" d="M250.7,3.3c70.8,0,128,57.2,128,128s-57.2,128-128,128s-128-57.2-128-128S179.9,3.3,250.7,3.3"/>
</g>
<path class="st3" d="M448,503.5c-2.6,0-4.3-1.7-4.3-4.3v-29.9h-128v29.9c0,2.6-1.7,4.3-4.3,4.3s-4.3-1.7-4.3-4.3v-34.1
	c0-2.6,1.7-4.3,4.3-4.3H448c2.6,0,4.3,1.7,4.3,4.3v34.1C452.3,501.8,450.6,503.5,448,503.5z M192,503.5c-2.6,0-4.3-1.7-4.3-4.3
	v-29.9h-128v29.9c0,2.6-1.7,4.3-4.3,4.3c-2.6,0-4.3-1.7-4.3-4.3v-34.1c0-2.6,1.7-4.3,4.3-4.3H192c2.6,0,4.3,1.7,4.3,4.3v34.1
	C196.3,501.8,194.6,503.5,192,503.5z M328.5,435.2c-2.6,0-4.3-1.7-4.3-4.3v-42.7c0-29.9,17.9-45.2,18.8-46.1l59.7-59.7
	c6-6,12.8-8.5,20.5-9.4c7.7,0,15.4,2.6,20.5,8.5c6,6,8.5,12.8,8.5,20.5c0,7.7-3.4,14.5-9.4,20.5l-42.7,42.7c-1.7,1.7-4.3,1.7-6,0
	c-1.7-1.7-1.7-4.3,0-6l42.7-42.7c4.3-4.3,6.8-9.4,6.8-14.5s-1.7-10.2-6-14.5s-9.4-6-14.5-6s-10.2,2.6-14.5,6.8L349,348.2
	c0,0-16.2,14.5-16.2,39.3v42.7C332.8,433.5,331.1,435.2,328.5,435.2z M174.9,435.2c-2.6,0-4.3-1.7-4.3-4.3v-42.7
	c0-25.6-15.4-39.3-15.4-39.3l-59.7-59.7c-4.3-4.3-9.4-6.8-14.5-6.8s-10.2,1.7-14.5,6c-4.3,4.3-6,9.4-6,14.5s2.6,10.2,6.8,14.5
	l42.7,42.7c1.7,1.7,1.7,4.3,0,6c-1.7,1.7-4.3,1.7-6,0l-42.7-42.7c-6-6-8.5-12.8-9.4-20.5c0-7.7,2.6-15.4,8.5-20.5
	c6-6,12.8-8.5,20.5-8.5s14.5,3.4,20.5,9.4l59.7,59.7c0.9,0.9,17.9,16.2,17.9,46.1v42.7C179.2,433.5,177.5,435.2,174.9,435.2z
	 M413.9,426.7c-0.9,0-2.6,0-3.4-0.9c-1.7-1.7-1.7-4.3,0-6l68.3-68.3c0.9-0.9,16.2-13.7,16.2-39.3v-128c0-11.9-9.4-21.3-21.3-21.3
	c-11.9,0-21.3,9.4-21.3,21.3v67.4c0,2.6-1.7,4.3-4.3,4.3s-4.3-1.7-4.3-4.3v-68.3c0-16.2,13.7-29.9,29.9-29.9
	c16.2,0,29.9,13.7,29.9,29.9v128c0,29.9-17.9,45.2-18.8,46.1l-68.3,68.3C416.4,426.7,414.7,426.7,413.9,426.7z M89.6,426.7
	c-0.9,0-2.6,0-3.4-0.9l-68.3-68.3c-0.9,0-17.9-15.4-17.9-46.1v-128c0-16.2,13.7-29.9,29.9-29.9s29.9,13.7,29.9,29.9v67.4
	c0,2.6-1.7,4.3-4.3,4.3c-2.6,0-4.3-1.7-4.3-4.3v-67.4c0-11.9-9.4-21.3-21.3-21.3s-21.3,9.4-21.3,21.3v128
	c0,25.6,15.4,39.3,15.4,39.3L92.2,419c1.7,1.7,1.7,4.3,0,6C92.2,426.7,90.5,426.7,89.6,426.7z M251.7,264.5
	c-72.5,0-132.3-59.7-132.3-132.3S179.2,0,251.7,0S384,59.7,384,132.3S324.3,264.5,251.7,264.5z M251.7,8.5
	C183.5,8.5,128,64,128,132.3S183.5,256,251.7,256s123.7-55.5,123.7-123.7S320,8.5,251.7,8.5z"/>
<path class="st4" d="M634.8,161.6l-0.3,35.3c11-0.1,45.4,2.8,45.6-17.3C680.1,158.9,645.9,162,634.8,161.6z"/>
<path class="st4" d="M635.8,113.4l-0.4,32.3c9.2,0.3,38,2.7,38-15.6C673.3,111.3,645,113.6,635.8,113.4z"/>
<path class="st5" d="M649,14.9C569.7,14,504.9,77.1,503.5,155.2c-1.2,78.7,61.5,143,140.8,143.9c79.2,0.9,144.2-61.6,145.5-140.3
	C791.1,80.8,728.3,16.4,649,14.9z M703.6,123.1c1.4,13.7-4.6,22.3-14.5,27.1c15.6,3.7,25.1,13,22.5,33.6
	c-2.6,25.5-22,31.9-49.2,33.3l-0.5,26.8l-16.2-1.1l0.6-26.3c-4.3-0.2-8.7-0.4-12.9,0l-0.6,26.3l-16-0.5l0.5-26.8
	c-3.8-0.3-7.4-0.1-11.7-0.3l-21-0.6l3.5-19l11.7,0.3c4.3,0.2,6-3.2,6.2-5.1l0.6-42.1c0.6-0.1,1.2-0.3,1.9,0.2
	c-0.6,0.1-1.3-0.3-1.9-0.2l0.4-29.9c-0.8-3.5-2.9-7.2-9-7l-11.7-0.3l0.3-17.1l22.1,0.3l0,0c3-0.1,6.8,0.2,10.4,0l0.6-26.3l16,0.5
	l-0.7,25.7c4.3,0.2,8.5-0.2,12.9,0l0.2-25.6l16,0.5l-0.6,26.3C685.4,97.5,702.2,103.9,703.6,123.1z"/>
<g>
	<g>
		<path class="st3" d="M289.1,125.2c9.5-6.9,15.7-18.3,15.7-31.2c0-21.1-16.7-38.2-37.2-38.2h-55.8c-2.1,0-3.7,1.7-3.7,3.8v145.3
			c0,2.1,1.7,3.8,3.7,3.8h70.7c20.5,0,37.2-17.1,37.2-38.2v-7.6C319.7,144.1,306.5,128.4,289.1,125.2z M215.5,63.5h52.1
			c16.4,0,29.8,13.7,29.8,30.6s-13.4,30.6-29.8,30.6h-52.1V63.5z M312.3,170.5c0,16.9-13.4,30.6-29.8,30.6h-67v-68.8h67
			c16.4,0,29.8,13.7,29.8,30.6V170.5z"/>
	</g>
</g>
<g>
	<g>
		<path class="st3" d="M234.1,40.5c-2.1,0-3.7,1.7-3.7,3.8v15.3c0,2.1,1.7,3.8,3.7,3.8c2.1,0,3.7-1.7,3.7-3.8V44.3
			C237.8,42.2,236.2,40.5,234.1,40.5z"/>
	</g>
</g>
<g>
	<g>
		<path class="st3" d="M263.9,40.5c-2.1,0-3.7,1.7-3.7,3.8v15.3c0,2.1,1.7,3.8,3.7,3.8s3.7-1.7,3.7-3.8V44.3
			C267.6,42.2,265.9,40.5,263.9,40.5z"/>
	</g>
</g>
<g>
	<g>
		<path class="st3" d="M234.1,201.1c-2.1,0-3.7,1.7-3.7,3.8v15.3c0,2.1,1.7,3.8,3.7,3.8c2.1,0,3.7-1.7,3.7-3.8v-15.3
			C237.8,202.8,236.2,201.1,234.1,201.1z"/>
	</g>
</g>
<g>
	<g>
		<path class="st3" d="M263.9,201.1c-2.1,0-3.7,1.7-3.7,3.8v15.3c0,2.1,1.7,3.8,3.7,3.8s3.7-1.7,3.7-3.8v-15.3
			C267.6,202.8,265.9,201.1,263.9,201.1z"/>
	</g>
</g>
</svg>
