<?xml version="1.0" encoding="iso-8859-1"?>
<!-- Generator: Adobe Illustrator 19.0.0, SVG Export Plug-In . SVG Version: 6.00 Build 0)  -->
<svg version="1.1" id="Layer_1" xmlns="http://www.w3.org/2000/svg" xmlns:xlink="http://www.w3.org/1999/xlink" x="0px" y="0px"
	 viewBox="0 0 512 512" style="enable-background:new 0 0 512 512;" xml:space="preserve">
<path style="fill:#314E55;" d="M467.087,467.088h-53.895V43.655c0-4.386-3.167-8.132-7.5-8.86L199.097,0.124
	c-2.597-0.438-5.263,0.298-7.281,2.004s-3.184,4.215-3.184,6.855v8.982H98.807c-4.965,0-8.982,4.022-8.982,8.982V476.07H44.913
	v17.965h53.895h89.824v8.982c0,2.579,1.105,5.031,3.044,6.737c1.649,1.456,3.763,2.246,5.939,2.246c0.369,0,0.746-0.022,1.123-0.07
	l206.596-26c0.99-0.125,1.898-0.463,2.754-0.877h59V467.088z"/>
<rect x="107.79" y="35.93" style="fill:#FFFFFF;" width="80.842" height="440.139"/>
<polygon style="fill:#81A4E3;" points="206.597,485.053 206.597,476.07 206.597,26.949 206.597,19.598 395.228,51.256 
	395.228,467.088 395.228,469.097 206.597,492.833 "/>
<rect x="224.561" y="242.526" style="fill:#314E55;" width="26.947" height="17.965"/>
<g>
</g>
<g>
</g>
<g>
</g>
<g>
</g>
<g>
</g>
<g>
</g>
<g>
</g>
<g>
</g>
<g>
</g>
<g>
</g>
<g>
</g>
<g>
</g>
<g>
</g>
<g>
</g>
<g>
</g>
</svg>
