<?xml version="1.0" encoding="iso-8859-1"?>
<!-- Generator: Adobe Illustrator 19.0.0, SVG Export Plug-In . SVG Version: 6.00 Build 0)  -->
<svg version="1.1" id="Layer_1" xmlns="http://www.w3.org/2000/svg" xmlns:xlink="http://www.w3.org/1999/xlink" x="0px" y="0px"
	 viewBox="0 0 512 512" style="enable-background:new 0 0 512 512;" xml:space="preserve">
<path style="fill:#334F55;" d="M467.862,406.071V260.415c0-64.918-38.011-122.989-97.103-149.213V61.795
	c0-2.72-1.25-5.284-3.397-6.957c-2.147-1.681-4.948-2.272-7.569-1.608l-69.569,17.392h-68.448L152.207,53.23
	c-2.621-0.647-5.414-0.065-7.569,1.608c-2.147,1.672-3.397,4.237-3.397,6.957v49.407c-59.135,26.207-97.103,84.129-97.103,149.213
	v145.655H0v17.655h52.966h17.655h35.754c2.22,19.805,18.88,35.31,39.28,35.31s37.06-15.505,39.28-35.31h142.129
	c2.22,19.805,18.88,35.31,39.28,35.31c20.4,0,37.06-15.505,39.28-35.31h35.755h17.655H512v-17.655L467.862,406.071L467.862,406.071z
	"/>
<g>
	<polygon style="fill:#E987A6;" points="300.138,86.342 353.103,73.101 353.103,138.765 300.138,125.523 	"/>
	<rect x="229.517" y="88.274" style="fill:#E987A6;" width="52.966" height="35.31"/>
	<polygon style="fill:#E987A6;" points="158.897,73.101 211.862,86.342 211.862,125.523 158.897,138.765 	"/>
</g>
<path style="fill:#77C9C9;" d="M441.379,406.071h-35.31v-52.966h-17.655v66.229c0,12.155-9.897,22.047-22.069,22.047
	c-12.172,0-22.069-9.892-22.069-22.047v-66.229h-17.655v52.966H185.379v-52.966h-17.655v66.229c0,12.155-9.897,22.047-22.069,22.047
	s-22.069-9.892-22.069-22.047v-66.229h-17.655v52.966h-35.31h-8.828V260.415c0-55.388,30.812-104.996,79.448-129.735v19.39
	c0,2.72,1.25,5.284,3.397,6.957c1.569,1.224,3.483,1.871,5.431,1.871c0.715,0,1.431-0.086,2.138-0.263l69.569-17.392h68.448
	l69.569,17.392c0.707,0.177,1.422,0.263,2.138,0.263c1.948,0,3.862-0.647,5.431-1.871c2.147-1.672,3.397-4.237,3.397-6.957v-19.414
	c48.613,24.762,79.448,74.506,79.448,129.759v145.655L441.379,406.071L441.379,406.071z"/>
<g>
	<path style="fill:#334F55;" d="M354.172,285.071c-10,10-27.448,10-37.448,0l-6.241-6.241L298,291.312l6.241,6.241
		c8.336,8.336,19.414,12.927,31.207,12.927s22.871-4.591,31.207-12.927l6.241-6.241l-12.483-12.483L354.172,285.071z"/>
	<path style="fill:#334F55;" d="M193.767,283.553c-10.319,10.315-27.121,10.323-37.457,0l-6.241-6.241l-12.483,12.483l6.241,6.241
		c8.603,8.603,19.905,12.905,31.215,12.905c11.302,0,22.603-4.302,31.207-12.905l6.241-6.241l-12.483-12.483L193.767,283.553z"/>
</g>
<g>
</g>
<g>
</g>
<g>
</g>
<g>
</g>
<g>
</g>
<g>
</g>
<g>
</g>
<g>
</g>
<g>
</g>
<g>
</g>
<g>
</g>
<g>
</g>
<g>
</g>
<g>
</g>
<g>
</g>
</svg>
