<?xml version="1.0" encoding="iso-8859-1"?>
<!-- Generator: Adobe Illustrator 19.0.0, SVG Export Plug-In . SVG Version: 6.00 Build 0)  -->
<svg version="1.1" id="Layer_1" xmlns="http://www.w3.org/2000/svg" xmlns:xlink="http://www.w3.org/1999/xlink" x="0px" y="0px"
	 viewBox="0 0 512 512" style="enable-background:new 0 0 512 512;" xml:space="preserve">
<path style="fill:#334F55;" d="M467.862,441.379V295.724c0-90.052-73.28-163.31-163.358-163.31h-97.009
	c-13.739,0-27.014,1.89-39.772,5.099V92.668c0-21.892-17.819-39.703-39.724-39.703s-39.724,17.81-39.724,39.703v88.297
	c0,1.007,0.263,1.937,0.574,2.84c-27.634,29.263-44.712,68.593-44.712,111.918v145.655H0v17.655h52.966h70.621h44.138h26.483
	h247.172h17.655H512v-17.655H467.862z"/>
<g>
	<path style="fill:#C5D35E;" d="M128,70.621c12.168,0,22.069,9.892,22.069,22.047v50.363c-16.06,6.058-30.936,14.492-44.138,25.01
		V92.668C105.931,80.513,115.832,70.621,128,70.621z"/>
	<path style="fill:#C5D35E;" d="M441.379,441.379H194.207h-26.483h-44.138H61.793V295.724c0-80.315,65.362-145.655,145.703-145.655
		h97.009c80.341,0,145.703,65.34,145.703,145.655v145.655H441.379z"/>
</g>
<path style="fill:#334F55;" d="M386.409,326.854l-264.828,61.793c-4.371,1.017-7.28,5.151-6.767,9.604
	c0.513,4.457,4.289,7.819,8.772,7.819H291.31h17.655h26.483h17.655h35.31c4.875,0,8.828-3.953,8.828-8.828v-61.793
	c0-2.694-1.228-5.241-3.341-6.914C391.793,326.862,389.034,326.237,386.409,326.854z"/>
<g>
	<polygon style="fill:#EAE8D2;" points="200.267,388.414 291.31,367.17 291.31,388.414 	"/>
	<polygon style="fill:#EAE8D2;" points="308.966,388.414 308.966,363.052 335.448,356.872 335.448,388.414 	"/>
	<polygon style="fill:#EAE8D2;" points="379.586,388.414 353.103,388.414 353.103,352.752 379.586,346.573 	"/>
</g>
<g>
	<path style="fill:#334F55;" d="M158.897,273.655c0-14.603,11.879-26.483,26.483-26.483c14.603,0,26.483,11.879,26.483,26.483v8.828
		h17.655v-8.828c0-24.336-19.802-44.138-44.138-44.138s-44.138,19.802-44.138,44.138v8.828h17.655V273.655z"/>
	<path style="fill:#334F55;" d="M300.138,273.655c0-14.603,11.879-26.483,26.483-26.483s26.483,11.879,26.483,26.483v8.828h17.655
		v-8.828c0-24.336-19.802-44.138-44.138-44.138c-24.336,0-44.138,19.802-44.138,44.138v8.828h17.655V273.655z"/>
</g>
<g>
</g>
<g>
</g>
<g>
</g>
<g>
</g>
<g>
</g>
<g>
</g>
<g>
</g>
<g>
</g>
<g>
</g>
<g>
</g>
<g>
</g>
<g>
</g>
<g>
</g>
<g>
</g>
<g>
</g>
</svg>
