<?xml version="1.0" encoding="iso-8859-1"?>
<!-- Generator: Adobe Illustrator 19.0.0, SVG Export Plug-In . SVG Version: 6.00 Build 0)  -->
<svg version="1.1" id="Layer_1" xmlns="http://www.w3.org/2000/svg" xmlns:xlink="http://www.w3.org/1999/xlink" x="0px" y="0px"
	 viewBox="0 0 512 512" style="enable-background:new 0 0 512 512;" xml:space="preserve">
<path style="fill:#334F55;" d="M467.579,401.567V256c0-89.997-73.24-163.211-163.263-163.211h-96.941
	c-90.023,0-163.263,73.214-163.263,163.211v145.567H0v17.644h52.933h405.823H512v-17.644H467.579z"/>
<path style="fill:#E987A6;" d="M61.756,401.567V256c0-80.266,65.323-145.567,145.619-145.567h96.941
	c80.296,0,145.619,65.301,145.619,145.567v145.567H61.756z"/>
<g>
	<path style="fill:#334F55;" d="M388.179,189.833H273.489c-4.876,0-8.822,3.95-8.822,8.822h-17.644c0-4.872-3.946-8.822-8.822-8.822
		H123.511c-4.876,0-8.822,3.95-8.822,8.822v44.111c0,29.189,23.779,52.933,53.002,52.933h26.329
		c29.224,0,53.002-23.744,53.002-52.933V216.3h17.644v26.467c0,29.189,23.779,52.933,53.002,52.933h26.329
		c29.224,0,53.002-23.744,53.002-52.933v-44.111C397.001,193.783,393.055,189.833,388.179,189.833z"/>
	<path style="fill:#334F55;" d="M308.778,322.167c0,19.458-15.827,35.289-35.289,35.289h-8.822V375.1h8.822
		c29.189,0,52.933-23.744,52.933-52.933v-8.822h-17.645V322.167z"/>
</g>
<g>
	<path style="fill:#77C9C9;" d="M229.378,242.767c0,19.458-15.861,35.289-35.358,35.289h-26.329
		c-19.497,0-35.358-15.831-35.358-35.289v-35.289h97.045v8.822V242.767z"/>
	<path style="fill:#77C9C9;" d="M379.356,242.767c0,19.458-15.861,35.289-35.358,35.289H317.67
		c-19.497,0-35.358-15.831-35.358-35.289v-35.289h97.045V242.767z"/>
</g>
<g>
</g>
<g>
</g>
<g>
</g>
<g>
</g>
<g>
</g>
<g>
</g>
<g>
</g>
<g>
</g>
<g>
</g>
<g>
</g>
<g>
</g>
<g>
</g>
<g>
</g>
<g>
</g>
<g>
</g>
</svg>
