<?xml version="1.0" encoding="iso-8859-1"?>
<!-- Generator: Adobe Illustrator 19.0.0, SVG Export Plug-In . SVG Version: 6.00 Build 0)  -->
<svg version="1.1" id="Layer_1" xmlns="http://www.w3.org/2000/svg" xmlns:xlink="http://www.w3.org/1999/xlink" x="0px" y="0px"
	 viewBox="0 0 512 512" style="enable-background:new 0 0 512 512;" xml:space="preserve">
<path style="fill:#334F55;" d="M467.575,401.566V256c0-89.996-73.235-163.21-163.257-163.21h-96.949
	c-90.022,0-163.257,73.214-163.257,163.21v145.566H0v17.644h52.933h405.82H512v-17.644H467.575z"/>
<path style="fill:#77C9C9;" d="M61.755,401.566V256c0-80.265,65.322-145.566,145.613-145.566h96.949
	c80.291,0,145.613,65.3,145.613,145.566v145.566H61.755z"/>
<path style="fill:#334F55;" d="M229.376,295.7H202.91v17.644h17.644v17.644c0,19.458,15.831,35.289,35.289,35.289
	s35.289-15.831,35.289-35.289v-17.644h17.644V295.7h-26.466H229.376z"/>
<path style="fill:#E65F58;" d="M273.487,330.988c0,9.731-7.913,17.644-17.644,17.644c-9.731,0-17.644-7.913-17.644-17.644v-17.644
	h35.289V330.988z"/>
<g>
	<path style="fill:#334F55;" d="M211.732,251.589v-8.822c0-24.321-19.79-44.111-44.111-44.111s-44.111,19.79-44.111,44.111v8.822
		h17.644v-8.822c0-14.594,11.872-26.466,26.466-26.466s26.466,11.872,26.466,26.466v8.822H211.732z"/>
	<path style="fill:#334F55;" d="M344.064,198.656c-24.321,0-44.111,19.79-44.111,44.111v8.822h17.644v-8.822
		c0-14.594,11.872-26.466,26.466-26.466s26.466,11.872,26.466,26.466v8.822h17.644v-8.822
		C388.175,218.446,368.386,198.656,344.064,198.656z"/>
</g>
<g>
</g>
<g>
</g>
<g>
</g>
<g>
</g>
<g>
</g>
<g>
</g>
<g>
</g>
<g>
</g>
<g>
</g>
<g>
</g>
<g>
</g>
<g>
</g>
<g>
</g>
<g>
</g>
<g>
</g>
</svg>
