<?xml version="1.0" encoding="iso-8859-1"?>
<!-- Generator: Adobe Illustrator 19.0.0, SVG Export Plug-In . SVG Version: 6.00 Build 0)  -->
<svg version="1.1" id="Capa_1" xmlns="http://www.w3.org/2000/svg" xmlns:xlink="http://www.w3.org/1999/xlink" x="0px" y="0px"
	 viewBox="0 0 512 512" style="enable-background:new 0 0 512 512;" xml:space="preserve">
<path style="fill:#44C5CB;" d="M460,256c0,52.208-19.917,104.416-59.75,144.25c-79.667,79.667-208.833,79.667-288.5,0
	s-79.667-208.833,0-288.5c79.665-79.665,208.826-79.667,288.493-0.006l-22.74,22.74H448V63.987l-18.058,18.058
	c-96.07-96.063-251.823-96.06-347.89,0.006c-96.069,96.069-96.069,251.828,0,347.897s251.828,96.069,347.896,0
	C477.983,381.914,502,318.957,502,256H460z"/>
<circle style="fill:#FEDBAB;" cx="256" cy="256" r="160"/>
<circle style="fill:#FEB756;" cx="256" cy="256" r="118.69"/>
<path d="M316,222.308c0-21.541-15.564-39.504-36.035-43.264v-9.317c0-5.523-4.478-10-10-10s-10,4.477-10,10v8.582h-7v-8.582
	c0-5.523-4.478-10-10-10s-10,4.477-10,10v8.582h-18.798c-5.522,0-10,4.477-10,10s4.478,10,10,10H216v116h-1.833
	c-5.522,0-10,4.477-10,10s4.478,10,10,10h18.798v8.582c0,5.523,4.478,10,10,10s10-4.477,10-10v-8.582h7v8.582
	c0,5.523,4.478,10,10,10s10-4.477,10-10v-9.317C300.436,329.814,316,311.851,316,290.31c0-13.682-6.279-25.924-16.104-34
	C309.721,248.231,316,235.99,316,222.308z M296,290.308c0,13.234-10.767,24-24,24h-36v-48h36
	C285.233,266.308,296,277.074,296,290.308z M236,246.308v-48h36c13.233,0,24,10.766,24,24s-10.767,24-24,24H236z"/>
<path d="M356.982,190.61c-4.862,2.62-6.68,8.685-4.061,13.547c22.85,42.404,14.993,95.834-19.104,129.932
	c-42.889,42.889-112.675,42.89-155.563,0.001c-42.89-42.889-42.89-112.675,0-155.564c34.099-34.099,87.531-41.954,129.936-19.104
	c4.861,2.62,10.928,0.802,13.547-4.06s0.802-10.927-4.061-13.547c-24.105-12.99-52.393-18.056-79.647-14.261
	c-28.185,3.922-53.744,16.657-73.917,36.83c-50.687,50.688-50.687,133.162,0,183.849c25.344,25.343,58.634,38.015,91.924,38.015
	s66.581-12.672,91.925-38.016c20.172-20.172,32.907-45.732,36.829-73.916c3.792-27.256-1.271-55.542-14.26-79.646
	C367.908,189.808,361.844,187.99,356.982,190.61z"/>
<path d="M340.883,181.465c2.549,0,5.099-0.968,7.049-2.907l0.078-0.078c3.918-3.893,3.938-10.225,0.044-14.142
	c-3.893-3.918-10.226-3.937-14.142-0.044l-0.078,0.078c-3.918,3.893-3.938,10.225-0.044,14.142
	C335.744,180.481,338.313,181.465,340.883,181.465z"/>
<path d="M502,246c-5.522,0-10,4.477-10,10c0,63.038-24.548,122.303-69.123,166.877c-92.016,92.017-241.738,92.017-333.754,0
	C44.548,378.303,20,319.038,20,256S44.548,133.697,89.123,89.123C181.135-2.889,330.854-2.893,422.87,89.117
	c3.906,3.905,10.236,3.904,14.143,0L438,88.129v36.354h-36.354l5.668-5.668c1.875-1.875,2.929-4.419,2.929-7.071
	s-1.054-5.196-2.93-7.071C366.895,64.257,313.155,41.999,255.996,42c-57.16,0.001-110.899,22.261-151.317,62.68
	c-29.091,29.091-49.067,65.622-57.772,105.643c-1.174,5.397,2.249,10.723,7.646,11.897c5.394,1.176,10.724-2.249,11.896-7.646
	c7.888-36.268,25.998-69.378,52.372-95.752c73.263-73.265,191.037-75.563,267.1-6.897l-15.488,15.488
	c-0.535,0.535-0.976,1.133-1.368,1.756C338.999,102.336,299.374,86,256,86c-93.738,0-170,76.262-170,170s76.262,170,170,170
	s170-76.262,170-170c0-42.631-15.777-81.645-41.794-111.517H448c5.522,0,10-4.477,10-10V63.987c0-4.044-2.437-7.691-6.173-9.239
	c-3.734-1.548-8.037-0.693-10.898,2.167l-11.122,11.122C382.363,24.084,321.03-0.001,255.995,0
	C187.617,0.001,123.331,26.63,74.98,74.98C26.629,123.333,0,187.62,0,256s26.629,132.667,74.98,181.02
	C123.333,485.371,187.62,512,256,512s132.667-26.629,181.02-74.981C485.371,388.667,512,324.38,512,256
	C512,250.477,507.522,246,502,246z M256,406c-82.71,0-150-67.29-150-150s67.29-150,150-150s150,67.29,150,150S338.71,406,256,406z"
	/>
<path d="M52.031,267c5.522-0.016,9.987-4.506,9.971-10.029L62,256c0-5.523-4.478-10-10-10s-10,4.477-10,10l0.002,1.03
	c0.017,5.513,4.49,9.971,9.999,9.971C52.011,267,52.021,267,52.031,267z"/>
<path d="M450,256c0,51.819-20.18,100.537-56.821,137.179c-75.641,75.641-198.717,75.641-274.357,0
	c-26.16-26.159-44.206-58.979-52.188-94.912c-1.197-5.392-6.541-8.79-11.931-7.594c-5.391,1.198-8.791,6.54-7.593,11.931
	c8.809,39.653,28.716,75.863,57.568,104.717C145.099,447.74,198.839,470,256,470c57.162,0,110.901-22.26,151.321-62.68
	C447.74,366.901,470,313.161,470,256c0-5.523-4.478-10-10-10S450,250.477,450,256z"/>
<g>
</g>
<g>
</g>
<g>
</g>
<g>
</g>
<g>
</g>
<g>
</g>
<g>
</g>
<g>
</g>
<g>
</g>
<g>
</g>
<g>
</g>
<g>
</g>
<g>
</g>
<g>
</g>
<g>
</g>
</svg>
