<?xml version="1.0" encoding="iso-8859-1"?>
<!-- Generator: Adobe Illustrator 19.0.0, SVG Export Plug-In . SVG Version: 6.00 Build 0)  -->
<svg version="1.1" id="Capa_1" xmlns="http://www.w3.org/2000/svg" xmlns:xlink="http://www.w3.org/1999/xlink" x="0px" y="0px"
	 viewBox="0 0 511.472 511.472" style="enable-background:new 0 0 511.472 511.472;" xml:space="preserve">
<path style="fill:#FFCE54;" d="M11.988,443.62c0,0,7.992,7.914,39.958,7.914s39.959-7.914,39.959-7.914v23.897
	c0,0-7.992,7.991-39.959,7.991s-39.958-7.991-39.958-7.991S11.988,443.62,11.988,443.62z"/>
<path style="fill:#F6BB42;" d="M51.946,451.534c-31.967,0-39.958-7.914-39.958-7.914v-0.078c0,0,7.992-7.991,39.958-7.991
	s39.959,7.991,39.959,7.991v0.078C91.905,443.62,83.913,451.534,51.946,451.534z"/>
<g style="opacity:0.6;">
	<path style="fill:#FFFFFF;" d="M27.972,449.583c-12.284-2.342-15.984-5.963-15.984-5.963v23.897c0,0,3.7,3.66,15.984,6.024V449.583
		z"/>
</g>
<g style="opacity:0.3;">
	<path style="fill:#3A3847;" d="M75.922,449.583c12.284-2.342,15.983-5.963,15.983-5.963v23.897c0,0-3.699,3.66-15.983,6.024
		V449.583z"/>
</g>
<path style="fill:#FFCE54;" d="M115.881,443.62c0,0,7.992,7.914,39.958,7.914s39.959-7.914,39.959-7.914v23.897
	c0,0-7.992,7.991-39.959,7.991s-39.958-7.991-39.958-7.991V443.62z"/>
<path style="fill:#F6BB42;" d="M155.839,451.534c-31.967,0-39.958-7.914-39.958-7.914v-0.078c0,0,7.992-7.991,39.958-7.991
	s39.959,7.991,39.959,7.991v0.078C195.798,443.62,187.806,451.534,155.839,451.534z"/>
<g style="opacity:0.6;">
	<path style="fill:#FFFFFF;" d="M131.864,449.583c-12.284-2.342-15.983-5.963-15.983-5.963v23.897c0,0,3.699,3.66,15.983,6.024
		V449.583z"/>
</g>
<g style="opacity:0.3;">
	<path style="fill:#3A3847;" d="M179.815,449.583c12.284-2.342,15.983-5.963,15.983-5.963v23.897c0,0-3.699,3.66-15.983,6.024
		V449.583z"/>
</g>
<path style="fill:#FFCE54;" d="M115.881,387.678c0,0,7.992,7.913,39.958,7.913s39.959-7.913,39.959-7.913v23.896
	c0,0-7.992,7.992-39.959,7.992s-39.958-7.992-39.958-7.992V387.678z"/>
<path style="fill:#F6BB42;" d="M155.839,395.591c-31.967,0-39.958-7.913-39.958-7.913V387.6c0,0,7.992-7.992,39.958-7.992
	s39.959,7.992,39.959,7.992v0.078C195.798,387.678,187.806,395.591,155.839,395.591z"/>
<g style="opacity:0.6;">
	<path style="fill:#FFFFFF;" d="M131.864,393.64c-12.284-2.341-15.983-5.962-15.983-5.962v23.896c0,0,3.699,3.66,15.983,6.025
		V393.64z"/>
</g>
<g style="opacity:0.3;">
	<path style="fill:#3A3847;" d="M179.815,393.64c12.284-2.341,15.983-5.962,15.983-5.962v23.896c0,0-3.699,3.66-15.983,6.025V393.64
		z"/>
</g>
<path style="fill:#FFCE54;" d="M219.773,443.62c0,0,7.992,7.914,39.958,7.914c31.967,0,39.959-7.914,39.959-7.914v23.897
	c0,0-7.992,7.991-39.959,7.991c-31.966,0-39.958-7.991-39.958-7.991L219.773,443.62L219.773,443.62z"/>
<path style="fill:#F6BB42;" d="M259.731,451.534c-31.966,0-39.958-7.914-39.958-7.914v-0.078c0,0,7.992-7.991,39.958-7.991
	c31.967,0,39.959,7.991,39.959,7.991v0.078C299.69,443.62,291.698,451.534,259.731,451.534z"/>
<g style="opacity:0.6;">
	<path style="fill:#FFFFFF;" d="M235.757,449.583c-12.284-2.342-15.984-5.963-15.984-5.963v23.897c0,0,3.7,3.66,15.984,6.024
		V449.583z"/>
</g>
<g style="opacity:0.3;">
	<path style="fill:#3A3847;" d="M283.706,449.583c12.285-2.342,15.984-5.963,15.984-5.963v23.897c0,0-3.699,3.66-15.984,6.024
		V449.583z"/>
</g>
<path style="fill:#FFCE54;" d="M219.773,387.678c0,0,7.992,7.913,39.958,7.913c31.967,0,39.959-7.913,39.959-7.913v23.896
	c0,0-7.992,7.992-39.959,7.992c-31.966,0-39.958-7.992-39.958-7.992L219.773,387.678L219.773,387.678z"/>
<path style="fill:#F6BB42;" d="M259.731,395.591c-31.966,0-39.958-7.913-39.958-7.913V387.6c0,0,7.992-7.992,39.958-7.992
	c31.967,0,39.959,7.992,39.959,7.992v0.078C299.69,387.678,291.698,395.591,259.731,395.591z"/>
<g style="opacity:0.6;">
	<path style="fill:#FFFFFF;" d="M235.757,393.64c-12.284-2.341-15.984-5.962-15.984-5.962v23.896c0,0,3.7,3.66,15.984,6.025V393.64z
		"/>
</g>
<g style="opacity:0.3;">
	<path style="fill:#3A3847;" d="M283.706,393.64c12.285-2.341,15.984-5.962,15.984-5.962v23.896c0,0-3.699,3.66-15.984,6.025V393.64
		z"/>
</g>
<path style="fill:#FFCE54;" d="M219.773,331.736c0,0,7.992,7.913,39.958,7.913c31.967,0,39.959-7.913,39.959-7.913v23.897
	c0,0-7.992,7.991-39.959,7.991c-31.966,0-39.958-7.991-39.958-7.991L219.773,331.736L219.773,331.736z"/>
<path style="fill:#F6BB42;" d="M259.731,339.649c-31.966,0-39.958-7.913-39.958-7.913v-0.078c0,0,7.992-7.991,39.958-7.991
	c31.967,0,39.959,7.991,39.959,7.991v0.078C299.69,331.736,291.698,339.649,259.731,339.649z"/>
<g style="opacity:0.6;">
	<path style="fill:#FFFFFF;" d="M235.757,337.698c-12.284-2.341-15.984-5.962-15.984-5.962v23.897c0,0,3.7,3.66,15.984,6.024
		V337.698z"/>
</g>
<g style="opacity:0.3;">
	<path style="fill:#3A3847;" d="M283.706,337.698c12.285-2.341,15.984-5.962,15.984-5.962v23.897c0,0-3.699,3.66-15.984,6.024
		V337.698z"/>
</g>
<path style="fill:#FFCE54;" d="M323.665,443.62c0,0,7.992,7.914,39.959,7.914s39.959-7.914,39.959-7.914v23.897
	c0,0-7.992,7.991-39.959,7.991s-39.959-7.991-39.959-7.991L323.665,443.62L323.665,443.62z"/>
<path style="fill:#F6BB42;" d="M363.624,451.534c-31.967,0-39.959-7.914-39.959-7.914v-0.078c0,0,7.992-7.991,39.959-7.991
	s39.959,7.991,39.959,7.991v0.078C403.583,443.62,395.59,451.534,363.624,451.534z"/>
<g style="opacity:0.6;">
	<path style="fill:#FFFFFF;" d="M339.648,449.583c-12.284-2.342-15.983-5.963-15.983-5.963v23.897c0,0,3.699,3.66,15.983,6.024
		V449.583z"/>
</g>
<g style="opacity:0.3;">
	<path style="fill:#3A3847;" d="M387.598,449.583c12.285-2.342,15.984-5.963,15.984-5.963v23.897c0,0-3.699,3.66-15.984,6.024
		V449.583z"/>
</g>
<path style="fill:#FFCE54;" d="M323.665,387.678c0,0,7.992,7.913,39.959,7.913s39.959-7.913,39.959-7.913v23.896
	c0,0-7.992,7.992-39.959,7.992s-39.959-7.992-39.959-7.992L323.665,387.678L323.665,387.678z"/>
<path style="fill:#F6BB42;" d="M363.624,395.591c-31.967,0-39.959-7.913-39.959-7.913V387.6c0,0,7.992-7.992,39.959-7.992
	s39.959,7.992,39.959,7.992v0.078C403.583,387.678,395.59,395.591,363.624,395.591z"/>
<g style="opacity:0.6;">
	<path style="fill:#FFFFFF;" d="M339.648,393.64c-12.284-2.341-15.983-5.962-15.983-5.962v23.896c0,0,3.699,3.66,15.983,6.025
		V393.64z"/>
</g>
<g style="opacity:0.3;">
	<path style="fill:#3A3847;" d="M387.598,393.64c12.285-2.341,15.984-5.962,15.984-5.962v23.896c0,0-3.699,3.66-15.984,6.025V393.64
		z"/>
</g>
<path style="fill:#FFCE54;" d="M323.665,331.736c0,0,7.992,7.913,39.959,7.913s39.959-7.913,39.959-7.913v23.897
	c0,0-7.992,7.991-39.959,7.991s-39.959-7.991-39.959-7.991L323.665,331.736L323.665,331.736z"/>
<path style="fill:#F6BB42;" d="M363.624,339.649c-31.967,0-39.959-7.913-39.959-7.913v-0.078c0,0,7.992-7.991,39.959-7.991
	s39.959,7.991,39.959,7.991v0.078C403.583,331.736,395.59,339.649,363.624,339.649z"/>
<g style="opacity:0.6;">
	<path style="fill:#FFFFFF;" d="M339.648,337.698c-12.284-2.341-15.983-5.962-15.983-5.962v23.897c0,0,3.699,3.66,15.983,6.024
		V337.698z"/>
</g>
<g style="opacity:0.3;">
	<path style="fill:#3A3847;" d="M387.598,337.698c12.285-2.341,15.984-5.962,15.984-5.962v23.897c0,0-3.699,3.66-15.984,6.024
		V337.698z"/>
</g>
<path style="fill:#FFCE54;" d="M323.665,275.794c0,0,7.992,7.914,39.959,7.914s39.959-7.914,39.959-7.914v23.897
	c0,0-7.992,7.991-39.959,7.991s-39.959-7.991-39.959-7.991L323.665,275.794L323.665,275.794z"/>
<path style="fill:#F6BB42;" d="M363.624,283.708c-31.967,0-39.959-7.914-39.959-7.914v-0.078c0,0,7.992-7.991,39.959-7.991
	s39.959,7.991,39.959,7.991v0.078C403.583,275.794,395.59,283.708,363.624,283.708z"/>
<g style="opacity:0.6;">
	<path style="fill:#FFFFFF;" d="M339.648,281.756c-12.284-2.342-15.983-5.963-15.983-5.963v23.897c0,0,3.699,3.66,15.983,6.024
		V281.756z"/>
</g>
<g style="opacity:0.3;">
	<path style="fill:#3A3847;" d="M387.598,281.756c12.285-2.342,15.984-5.963,15.984-5.963v23.897c0,0-3.699,3.66-15.984,6.024
		V281.756z"/>
</g>
<path style="fill:#FFCE54;" d="M427.557,443.62c0,0,7.992,7.914,39.959,7.914s39.959-7.914,39.959-7.914v23.897
	c0,0-7.992,7.991-39.959,7.991s-39.959-7.991-39.959-7.991L427.557,443.62L427.557,443.62z"/>
<path style="fill:#F6BB42;" d="M467.516,451.534c-31.967,0-39.959-7.914-39.959-7.914v-0.078c0,0,7.992-7.991,39.959-7.991
	s39.959,7.991,39.959,7.991v0.078C507.475,443.62,499.483,451.534,467.516,451.534z"/>
<g style="opacity:0.6;">
	<path style="fill:#FFFFFF;" d="M443.541,449.583c-12.284-2.342-15.983-5.963-15.983-5.963v23.897c0,0,3.699,3.66,15.983,6.024
		V449.583z"/>
</g>
<g style="opacity:0.3;">
	<path style="fill:#3A3847;" d="M491.491,449.583c12.284-2.342,15.984-5.963,15.984-5.963v23.897c0,0-3.7,3.66-15.984,6.024V449.583
		z"/>
</g>
<path style="fill:#FFCE54;" d="M427.557,387.678c0,0,7.992,7.913,39.959,7.913s39.959-7.913,39.959-7.913v23.896
	c0,0-7.992,7.992-39.959,7.992s-39.959-7.992-39.959-7.992L427.557,387.678L427.557,387.678z"/>
<path style="fill:#F6BB42;" d="M467.516,395.591c-31.967,0-39.959-7.913-39.959-7.913V387.6c0,0,7.992-7.992,39.959-7.992
	s39.959,7.992,39.959,7.992v0.078C507.475,387.678,499.483,395.591,467.516,395.591z"/>
<g style="opacity:0.6;">
	<path style="fill:#FFFFFF;" d="M443.541,393.64c-12.284-2.341-15.983-5.962-15.983-5.962v23.896c0,0,3.699,3.66,15.983,6.025
		V393.64z"/>
</g>
<g style="opacity:0.3;">
	<path style="fill:#3A3847;" d="M491.491,393.64c12.284-2.341,15.984-5.962,15.984-5.962v23.896c0,0-3.7,3.66-15.984,6.025V393.64z"
		/>
</g>
<path style="fill:#FFCE54;" d="M427.557,331.736c0,0,7.992,7.913,39.959,7.913s39.959-7.913,39.959-7.913v23.897
	c0,0-7.992,7.991-39.959,7.991s-39.959-7.991-39.959-7.991L427.557,331.736L427.557,331.736z"/>
<path style="fill:#F6BB42;" d="M467.516,339.649c-31.967,0-39.959-7.913-39.959-7.913v-0.078c0,0,7.992-7.991,39.959-7.991
	s39.959,7.991,39.959,7.991v0.078C507.475,331.736,499.483,339.649,467.516,339.649z"/>
<g style="opacity:0.6;">
	<path style="fill:#FFFFFF;" d="M443.541,337.698c-12.284-2.341-15.983-5.962-15.983-5.962v23.897c0,0,3.699,3.66,15.983,6.024
		V337.698z"/>
</g>
<g style="opacity:0.3;">
	<path style="fill:#3A3847;" d="M491.491,337.698c12.284-2.341,15.984-5.962,15.984-5.962v23.897c0,0-3.7,3.66-15.984,6.024V337.698
		z"/>
</g>
<path style="fill:#FFCE54;" d="M427.557,275.794c0,0,7.992,7.914,39.959,7.914s39.959-7.914,39.959-7.914v23.897
	c0,0-7.992,7.991-39.959,7.991s-39.959-7.991-39.959-7.991L427.557,275.794L427.557,275.794z"/>
<path style="fill:#F6BB42;" d="M467.516,283.708c-31.967,0-39.959-7.914-39.959-7.914v-0.078c0,0,7.992-7.991,39.959-7.991
	s39.959,7.991,39.959,7.991v0.078C507.475,275.794,499.483,283.708,467.516,283.708z"/>
<g style="opacity:0.6;">
	<path style="fill:#FFFFFF;" d="M443.541,281.756c-12.284-2.342-15.983-5.963-15.983-5.963v23.897c0,0,3.699,3.66,15.983,6.024
		V281.756z"/>
</g>
<g style="opacity:0.3;">
	<path style="fill:#3A3847;" d="M491.491,281.756c12.284-2.342,15.984-5.963,15.984-5.963v23.897c0,0-3.7,3.66-15.984,6.024V281.756
		z"/>
</g>
<path style="fill:#F6BB42;" d="M491.491,227.769c-6.634,5.034-14.945,7.992-23.975,7.992s-17.342-2.958-23.976-7.992
	c-9.669-7.273-15.983-18.941-15.983-31.967v15.983c0,13.025,6.314,24.693,15.983,31.967c6.634,5.034,14.945,7.992,23.976,7.992
	c9.029,0,17.341-2.958,23.975-7.992c9.67-7.273,15.984-18.941,15.984-31.967v-15.983
	C507.475,208.828,501.161,220.496,491.491,227.769z"/>
<path style="fill:#FFCE54;" d="M467.516,235.761c-9.03,0-17.342-2.958-23.976-7.992c-9.669-7.273-15.983-18.941-15.983-31.967
	c0-22.056,17.903-39.959,39.959-39.959c22.055,0,39.959,17.903,39.959,39.959c0,13.025-6.314,24.693-15.984,31.967
	C484.857,232.803,476.546,235.761,467.516,235.761z"/>
<g style="opacity:0.4;">
	<path style="fill:#FFFFFF;" d="M451.533,227.769c-9.67-7.273-15.983-18.941-15.983-31.967c0-20.682,15.812-37.523,35.963-39.553
		c-1.335-0.141-2.623-0.406-3.996-0.406c-22.056,0-39.959,17.903-39.959,39.959c0,13.025,6.314,24.693,15.983,31.967
		c6.634,5.034,14.945,7.992,23.976,7.992c1.357,0,2.669-0.195,3.996-0.328C464.051,234.692,457.168,232.046,451.533,227.769z"/>
</g>
<g style="opacity:0.3;">
	<path style="fill:#3A3847;" d="M483.5,227.769c9.669-7.273,15.983-18.941,15.983-31.967c0-20.682-15.812-37.523-35.963-39.553
		c1.334-0.141,2.622-0.406,3.996-0.406c22.055,0,39.959,17.903,39.959,39.959c0,13.025-6.314,24.693-15.984,31.967
		c-6.634,5.034-14.945,7.992-23.975,7.992c-1.358,0-2.67-0.195-3.996-0.328C470.981,234.692,477.865,232.046,483.5,227.769z"/>
</g>
<path style="fill:#ED5565;" d="M35.963,347.641l7.992-39.959H3.996C234.757,145.854,435.549,59.943,435.549,59.943l-7.992-23.975
	l79.918,7.992l-55.942,63.934l-7.992-23.975C443.541,83.918,123.872,259.736,35.963,347.641z"/>
<g style="opacity:0.3;">
	<path style="fill:#3A3847;" d="M439.795,76.925c-139.606,77.67-293.196,167.078-401.85,260.789l-1.982,9.928
		c87.909-87.905,407.578-263.723,407.578-263.723L439.795,76.925z"/>
</g>
<g style="opacity:0.3;">
	<path style="fill:#FFFFFF;" d="M435.549,59.943c0,0-200.792,85.911-431.553,247.739h15.983
		C250.741,145.854,437.587,66.085,437.587,66.085L435.549,59.943z"/>
</g>
<g>
	<path style="fill:#3A3847;" d="M155.839,471.513c-2.208,0-3.996-1.787-3.996-3.996v-7.991c0-2.209,1.788-3.996,3.996-3.996
		c2.209,0,3.996,1.787,3.996,3.996v7.991C159.835,469.726,158.048,471.513,155.839,471.513z"/>
	<path style="fill:#3A3847;" d="M179.815,469.554c-2.209,0-3.996-1.787-3.996-3.996v-7.882c0-2.209,1.787-3.996,3.996-3.996
		c2.208,0,3.996,1.787,3.996,3.996v7.882C183.81,467.767,182.023,469.554,179.815,469.554z"/>
	<path style="fill:#3A3847;" d="M131.864,469.476c-2.208,0-3.996-1.787-3.996-3.996v-7.913c0-2.209,1.787-3.996,3.996-3.996
		s3.996,1.787,3.996,3.996v7.913C135.86,467.689,134.072,469.476,131.864,469.476z"/>
	<path style="fill:#3A3847;" d="M155.839,455.53c-32.677,0-41.847-8.227-42.784-9.162c-1.561-1.562-1.561-4.09,0-5.65
		c1.538-1.538,4.019-1.562,5.572-0.07c0.312,0.257,8.53,6.891,37.211,6.891c29.118,0,37.142-6.836,37.22-6.898
		c1.615-1.437,4.112-1.39,5.604,0.202c1.482,1.569,1.49,3.996-0.039,5.526C197.687,447.303,188.516,455.53,155.839,455.53z"/>
	<path style="fill:#3A3847;" d="M155.839,479.505c-32.677,0-41.847-8.226-42.784-9.162c-1.561-1.561-1.561-4.09,0-5.65
		c1.538-1.537,4.019-1.561,5.572-0.07c0.312,0.258,8.53,6.892,37.211,6.892c29.118,0,37.142-6.837,37.22-6.899
		c1.615-1.436,4.112-1.381,5.604,0.203c1.482,1.568,1.49,3.996-0.039,5.525C197.687,471.279,188.516,479.505,155.839,479.505z"/>
	<path style="fill:#3A3847;" d="M195.798,447.538c-0.991,0-1.982-0.367-2.747-1.101c-0.312-0.257-8.53-6.891-37.212-6.891
		c-29.118,0-37.141,6.837-37.219,6.898c-1.608,1.437-4.121,1.39-5.604-0.202c-1.483-1.569-1.491-3.996,0.039-5.525
		c0.937-0.938,10.107-9.163,42.784-9.163s41.848,8.226,42.784,9.163c1.561,1.561,1.561,4.089,0,5.65
		C197.842,447.147,196.82,447.538,195.798,447.538z"/>
	<path style="fill:#3A3847;" d="M115.881,471.513c-2.208,0-3.996-1.787-3.996-3.996v-23.976c0-2.208,1.787-3.995,3.996-3.995
		s3.996,1.787,3.996,3.995v23.976C119.876,469.726,118.089,471.513,115.881,471.513z"/>
	<path style="fill:#3A3847;" d="M195.798,471.513c-2.209,0-3.996-1.787-3.996-3.996v-23.976c0-2.208,1.787-3.995,3.996-3.995
		c2.208,0,3.996,1.787,3.996,3.995v23.976C199.794,469.726,198.007,471.513,195.798,471.513z"/>
	<path style="fill:#3A3847;" d="M51.946,471.513c-2.208,0-3.996-1.787-3.996-3.996v-7.991c0-2.209,1.787-3.996,3.996-3.996
		s3.996,1.787,3.996,3.996v7.991C55.943,469.726,54.155,471.513,51.946,471.513z"/>
	<path style="fill:#3A3847;" d="M75.922,469.554c-2.209,0-3.996-1.787-3.996-3.996v-7.882c0-2.209,1.787-3.996,3.996-3.996
		c2.208,0,3.996,1.787,3.996,3.996v7.882C79.918,467.767,78.131,469.554,75.922,469.554z"/>
	<path style="fill:#3A3847;" d="M27.972,469.476c-2.209,0-3.996-1.787-3.996-3.996v-7.913c0-2.209,1.787-3.996,3.996-3.996
		c2.208,0,3.996,1.787,3.996,3.996v7.913C31.967,467.689,30.18,469.476,27.972,469.476z"/>
	<path style="fill:#3A3847;" d="M51.946,455.53c-32.677,0-41.847-8.227-42.784-9.162c-1.561-1.562-1.561-4.09,0-5.65
		c1.538-1.538,4.019-1.562,5.573-0.07c0.312,0.257,8.53,6.891,37.211,6.891c29.118,0,37.142-6.836,37.22-6.898
		c1.615-1.437,4.121-1.39,5.604,0.202c1.482,1.569,1.49,3.996-0.039,5.526C93.794,447.303,84.624,455.53,51.946,455.53z"/>
	<path style="fill:#3A3847;" d="M51.946,479.505c-32.677,0-41.847-8.226-42.784-9.162c-1.561-1.561-1.561-4.09,0-5.65
		c1.538-1.537,4.019-1.561,5.573-0.07c0.312,0.258,8.53,6.892,37.211,6.892c29.118,0,37.142-6.837,37.22-6.899
		c1.615-1.436,4.121-1.381,5.604,0.203c1.482,1.568,1.49,3.996-0.039,5.525C93.794,471.279,84.624,479.505,51.946,479.505z"/>
	<path style="fill:#3A3847;" d="M91.905,447.538c-0.991,0-1.982-0.367-2.747-1.101c-0.312-0.257-8.53-6.891-37.212-6.891
		c-29.118,0-37.141,6.837-37.219,6.898c-1.608,1.437-4.121,1.39-5.604-0.202c-1.483-1.569-1.491-3.996,0.039-5.525
		c0.937-0.938,10.107-9.163,42.784-9.163s41.848,8.226,42.784,9.163c1.561,1.561,1.561,4.089,0,5.65
		C93.95,447.147,92.928,447.538,91.905,447.538z"/>
	<path style="fill:#3A3847;" d="M11.988,471.513c-2.208,0-3.996-1.787-3.996-3.996v-23.976c0-2.208,1.787-3.995,3.996-3.995
		s3.996,1.787,3.996,3.995v23.976C15.984,469.726,14.196,471.513,11.988,471.513z"/>
	<path style="fill:#3A3847;" d="M91.905,471.513c-2.209,0-3.996-1.787-3.996-3.996v-23.976c0-2.208,1.787-3.995,3.996-3.995
		c2.208,0,3.996,1.787,3.996,3.995v23.976C95.902,469.726,94.114,471.513,91.905,471.513z"/>
	<path style="fill:#3A3847;" d="M155.839,415.571c-2.208,0-3.996-1.787-3.996-3.996v-7.991c0-2.209,1.788-3.996,3.996-3.996
		c2.209,0,3.996,1.787,3.996,3.996v7.991C159.835,413.784,158.048,415.571,155.839,415.571z"/>
	<path style="fill:#3A3847;" d="M179.815,413.612c-2.209,0-3.996-1.787-3.996-3.996v-7.882c0-2.209,1.787-3.996,3.996-3.996
		c2.208,0,3.996,1.787,3.996,3.996v7.882C183.81,411.825,182.023,413.612,179.815,413.612z"/>
	<path style="fill:#3A3847;" d="M131.864,413.534c-2.208,0-3.996-1.787-3.996-3.996v-7.913c0-2.209,1.787-3.996,3.996-3.996
		s3.996,1.787,3.996,3.996v7.913C135.86,411.747,134.072,413.534,131.864,413.534z"/>
	<path style="fill:#3A3847;" d="M155.839,399.588c-32.677,0-41.847-8.226-42.784-9.162c-1.561-1.562-1.561-4.09,0-5.65
		c1.538-1.538,4.019-1.562,5.572-0.07c0.312,0.257,8.53,6.892,37.211,6.892c29.118,0,37.142-6.837,37.22-6.899
		c1.615-1.437,4.112-1.39,5.604,0.202c1.482,1.569,1.49,3.996-0.039,5.526C197.687,391.362,188.516,399.588,155.839,399.588z"/>
	<path style="fill:#3A3847;" d="M155.839,423.563c-32.677,0-41.847-8.227-42.784-9.163c-1.561-1.561-1.561-4.089,0-5.65
		c1.538-1.537,4.019-1.561,5.572-0.07c0.312,0.258,8.53,6.892,37.211,6.892c29.118,0,37.142-6.837,37.22-6.899
		c1.615-1.428,4.112-1.381,5.604,0.203c1.482,1.569,1.49,3.996-0.039,5.525C197.687,415.337,188.516,423.563,155.839,423.563z"/>
	<path style="fill:#3A3847;" d="M195.798,391.596c-0.991,0-1.982-0.367-2.747-1.101c-0.312-0.258-8.53-6.892-37.212-6.892
		c-29.118,0-37.141,6.837-37.219,6.898c-1.608,1.437-4.121,1.39-5.604-0.202c-1.483-1.569-1.491-3.996,0.039-5.525
		c0.937-0.937,10.107-9.163,42.784-9.163s41.848,8.227,42.784,9.163c1.561,1.561,1.561,4.089,0,5.65
		C197.842,391.206,196.82,391.596,195.798,391.596z"/>
	<path style="fill:#3A3847;" d="M115.881,415.571c-2.208,0-3.996-1.787-3.996-3.996V387.6c0-2.209,1.787-3.996,3.996-3.996
		s3.996,1.787,3.996,3.996v23.975C119.876,413.784,118.089,415.571,115.881,415.571z"/>
	<path style="fill:#3A3847;" d="M195.798,415.571c-2.209,0-3.996-1.787-3.996-3.996V387.6c0-2.209,1.787-3.996,3.996-3.996
		c2.208,0,3.996,1.787,3.996,3.996v23.975C199.794,413.784,198.007,415.571,195.798,415.571z"/>
	<path style="fill:#3A3847;" d="M259.731,471.513c-2.209,0-3.996-1.787-3.996-3.996v-7.991c0-2.209,1.787-3.996,3.996-3.996
		s3.996,1.787,3.996,3.996v7.991C263.727,469.726,261.94,471.513,259.731,471.513z"/>
	<path style="fill:#3A3847;" d="M283.706,469.554c-2.208,0-3.995-1.787-3.995-3.996v-7.882c0-2.209,1.787-3.996,3.995-3.996
		c2.209,0,3.996,1.787,3.996,3.996v7.882C287.702,467.767,285.915,469.554,283.706,469.554z"/>
	<path style="fill:#3A3847;" d="M235.757,469.476c-2.208,0-3.996-1.787-3.996-3.996v-7.913c0-2.209,1.787-3.996,3.996-3.996
		s3.996,1.787,3.996,3.996v7.913C239.752,467.689,237.965,469.476,235.757,469.476z"/>
	<path style="fill:#3A3847;" d="M259.731,455.53c-32.677,0-41.847-8.227-42.784-9.162c-1.561-1.562-1.561-4.09,0-5.65
		c1.538-1.538,4.02-1.562,5.573-0.07c0.312,0.257,8.53,6.891,37.211,6.891c29.118,0,37.141-6.836,37.219-6.898
		c1.608-1.437,4.121-1.39,5.604,0.202c1.483,1.569,1.491,3.996-0.038,5.526C301.579,447.303,292.408,455.53,259.731,455.53z"/>
	<path style="fill:#3A3847;" d="M259.731,479.505c-32.677,0-41.847-8.226-42.784-9.162c-1.561-1.561-1.561-4.09,0-5.65
		c1.538-1.537,4.02-1.561,5.573-0.07c0.312,0.258,8.53,6.892,37.211,6.892c29.118,0,37.141-6.837,37.219-6.899
		c1.608-1.436,4.121-1.381,5.604,0.203c1.483,1.568,1.491,3.996-0.038,5.525C301.579,471.279,292.408,479.505,259.731,479.505z"/>
	<path style="fill:#3A3847;" d="M299.69,447.538c-0.991,0-1.982-0.367-2.748-1.101c-0.312-0.257-8.529-6.891-37.211-6.891
		c-29.118,0-37.141,6.837-37.219,6.898c-1.616,1.437-4.113,1.39-5.604-0.202c-1.482-1.569-1.49-3.996,0.039-5.525
		c0.937-0.938,10.107-9.163,42.784-9.163s41.848,8.226,42.784,9.163c1.561,1.561,1.561,4.089,0,5.65
		C301.735,447.147,300.712,447.538,299.69,447.538z"/>
	<path style="fill:#3A3847;" d="M219.773,471.513c-2.208,0-3.996-1.787-3.996-3.996v-23.976c0-2.208,1.788-3.995,3.996-3.995
		c2.209,0,3.996,1.787,3.996,3.995v23.976C223.769,469.726,221.982,471.513,219.773,471.513z"/>
	<path style="fill:#3A3847;" d="M299.69,471.513c-2.209,0-3.996-1.787-3.996-3.996v-23.976c0-2.208,1.787-3.995,3.996-3.995
		c2.208,0,3.996,1.787,3.996,3.995v23.976C303.686,469.726,301.898,471.513,299.69,471.513z"/>
	<path style="fill:#3A3847;" d="M259.731,415.571c-2.209,0-3.996-1.787-3.996-3.996v-7.991c0-2.209,1.787-3.996,3.996-3.996
		s3.996,1.787,3.996,3.996v7.991C263.727,413.784,261.94,415.571,259.731,415.571z"/>
	<path style="fill:#3A3847;" d="M283.706,413.612c-2.208,0-3.995-1.787-3.995-3.996v-7.882c0-2.209,1.787-3.996,3.995-3.996
		c2.209,0,3.996,1.787,3.996,3.996v7.882C287.702,411.825,285.915,413.612,283.706,413.612z"/>
	<path style="fill:#3A3847;" d="M235.757,413.534c-2.208,0-3.996-1.787-3.996-3.996v-7.913c0-2.209,1.787-3.996,3.996-3.996
		s3.996,1.787,3.996,3.996v7.913C239.752,411.747,237.965,413.534,235.757,413.534z"/>
	<path style="fill:#3A3847;" d="M259.731,399.588c-32.677,0-41.847-8.226-42.784-9.162c-1.561-1.562-1.561-4.09,0-5.65
		c1.538-1.538,4.02-1.562,5.573-0.07c0.312,0.257,8.53,6.892,37.211,6.892c29.118,0,37.141-6.837,37.219-6.899
		c1.608-1.437,4.121-1.39,5.604,0.202c1.483,1.569,1.491,3.996-0.038,5.526C301.579,391.362,292.408,399.588,259.731,399.588z"/>
	<path style="fill:#3A3847;" d="M259.731,423.563c-32.677,0-41.847-8.227-42.784-9.163c-1.561-1.561-1.561-4.089,0-5.65
		c1.538-1.537,4.02-1.561,5.573-0.07c0.312,0.258,8.53,6.892,37.211,6.892c29.118,0,37.141-6.837,37.219-6.899
		c1.608-1.428,4.121-1.381,5.604,0.203c1.483,1.569,1.491,3.996-0.038,5.525C301.579,415.337,292.408,423.563,259.731,423.563z"/>
	<path style="fill:#3A3847;" d="M299.69,391.596c-0.991,0-1.982-0.367-2.748-1.101c-0.312-0.258-8.529-6.892-37.211-6.892
		c-29.118,0-37.141,6.837-37.219,6.898c-1.616,1.437-4.113,1.39-5.604-0.202c-1.482-1.569-1.49-3.996,0.039-5.525
		c0.937-0.937,10.107-9.163,42.784-9.163s41.848,8.227,42.784,9.163c1.561,1.561,1.561,4.089,0,5.65
		C301.735,391.206,300.712,391.596,299.69,391.596z"/>
	<path style="fill:#3A3847;" d="M219.773,415.571c-2.208,0-3.996-1.787-3.996-3.996V387.6c0-2.209,1.788-3.996,3.996-3.996
		c2.209,0,3.996,1.787,3.996,3.996v23.975C223.769,413.784,221.982,415.571,219.773,415.571z"/>
	<path style="fill:#3A3847;" d="M299.69,415.571c-2.209,0-3.996-1.787-3.996-3.996V387.6c0-2.209,1.787-3.996,3.996-3.996
		c2.208,0,3.996,1.787,3.996,3.996v23.975C303.686,413.784,301.898,415.571,299.69,415.571z"/>
	<path style="fill:#3A3847;" d="M259.731,359.629c-2.209,0-3.996-1.787-3.996-3.995v-7.992c0-2.209,1.787-3.996,3.996-3.996
		s3.996,1.787,3.996,3.996v7.992C263.727,357.841,261.94,359.629,259.731,359.629z"/>
	<path style="fill:#3A3847;" d="M283.706,357.671c-2.208,0-3.995-1.788-3.995-3.996v-7.883c0-2.209,1.787-3.996,3.995-3.996
		c2.209,0,3.996,1.787,3.996,3.996v7.883C287.702,355.882,285.915,357.671,283.706,357.671z"/>
	<path style="fill:#3A3847;" d="M235.757,357.592c-2.208,0-3.996-1.787-3.996-3.996v-7.914c0-2.209,1.787-3.996,3.996-3.996
		s3.996,1.787,3.996,3.996v7.914C239.752,355.805,237.965,357.592,235.757,357.592z"/>
	<path style="fill:#3A3847;" d="M259.731,343.645c-32.677,0-41.847-8.226-42.784-9.162c-1.561-1.561-1.561-4.09,0-5.65
		c1.538-1.537,4.02-1.561,5.573-0.07c0.312,0.258,8.53,6.892,37.211,6.892c29.118,0,37.141-6.837,37.219-6.899
		c1.608-1.436,4.121-1.381,5.604,0.203c1.483,1.568,1.491,3.996-0.038,5.525C301.579,335.42,292.408,343.645,259.731,343.645z"/>
	<path style="fill:#3A3847;" d="M259.731,367.621c-32.677,0-41.847-8.226-42.784-9.163c-1.561-1.561-1.561-4.089,0-5.65
		c1.538-1.537,4.02-1.561,5.573-0.069c0.312,0.257,8.53,6.891,37.211,6.891c29.118,0,37.141-6.837,37.219-6.898
		c1.608-1.429,4.121-1.382,5.604,0.202c1.483,1.569,1.491,3.996-0.038,5.525C301.579,359.395,292.408,367.621,259.731,367.621z"/>
	<path style="fill:#3A3847;" d="M299.69,335.654c-0.991,0-1.982-0.367-2.748-1.101c-0.312-0.258-8.529-6.892-37.211-6.892
		c-29.118,0-37.141,6.837-37.219,6.899c-1.616,1.436-4.113,1.381-5.604-0.203c-1.482-1.568-1.49-3.996,0.039-5.525
		c0.937-0.937,10.107-9.162,42.784-9.162s41.848,8.226,42.784,9.162c1.561,1.561,1.561,4.09,0,5.65
		C301.735,335.263,300.712,335.654,299.69,335.654z"/>
	<path style="fill:#3A3847;" d="M219.773,359.629c-2.208,0-3.996-1.787-3.996-3.995v-23.976c0-2.209,1.788-3.996,3.996-3.996
		c2.209,0,3.996,1.787,3.996,3.996v23.976C223.769,357.841,221.982,359.629,219.773,359.629z"/>
	<path style="fill:#3A3847;" d="M299.69,359.629c-2.209,0-3.996-1.787-3.996-3.995v-23.976c0-2.209,1.787-3.996,3.996-3.996
		c2.208,0,3.996,1.787,3.996,3.996v23.976C303.686,357.841,301.898,359.629,299.69,359.629z"/>
	<path style="fill:#3A3847;" d="M363.624,471.513c-2.209,0-3.996-1.787-3.996-3.996v-7.991c0-2.209,1.787-3.996,3.996-3.996
		s3.996,1.787,3.996,3.996v7.991C367.62,469.726,365.833,471.513,363.624,471.513z"/>
	<path style="fill:#3A3847;" d="M387.598,469.554c-2.208,0-3.995-1.787-3.995-3.996v-7.882c0-2.209,1.787-3.996,3.995-3.996
		c2.209,0,3.996,1.787,3.996,3.996v7.882C391.594,467.767,389.807,469.554,387.598,469.554z"/>
	<path style="fill:#3A3847;" d="M339.648,469.476c-2.208,0-3.995-1.787-3.995-3.996v-7.913c0-2.209,1.787-3.996,3.995-3.996
		c2.209,0,3.996,1.787,3.996,3.996v7.913C343.644,467.689,341.857,469.476,339.648,469.476z"/>
	<path style="fill:#3A3847;" d="M363.624,455.53c-32.678,0-41.848-8.227-42.784-9.162c-1.561-1.562-1.561-4.09,0-5.65
		c1.538-1.538,4.02-1.562,5.572-0.07c0.312,0.257,8.53,6.891,37.212,6.891c29.118,0,37.141-6.836,37.219-6.898
		c1.608-1.437,4.121-1.39,5.604,0.202c1.483,1.569,1.491,3.996-0.039,5.526C405.471,447.303,396.3,455.53,363.624,455.53z"/>
	<path style="fill:#3A3847;" d="M363.624,479.505c-32.678,0-41.848-8.226-42.784-9.162c-1.561-1.561-1.561-4.09,0-5.65
		c1.538-1.537,4.02-1.561,5.572-0.07c0.312,0.258,8.53,6.892,37.212,6.892c29.118,0,37.141-6.837,37.219-6.899
		c1.608-1.436,4.121-1.381,5.604,0.203c1.483,1.568,1.491,3.996-0.039,5.525C405.471,471.279,396.3,479.505,363.624,479.505z"/>
	<path style="fill:#3A3847;" d="M403.583,447.538c-0.992,0-1.982-0.367-2.748-1.101c-0.312-0.257-8.529-6.891-37.211-6.891
		c-29.118,0-37.142,6.837-37.22,6.898c-1.615,1.437-4.12,1.39-5.604-0.202c-1.482-1.569-1.49-3.996,0.039-5.525
		c0.937-0.938,10.106-9.163,42.784-9.163c32.677,0,41.848,8.226,42.783,9.163c1.562,1.561,1.562,4.089,0,5.65
		C405.627,447.147,404.604,447.538,403.583,447.538z"/>
	<path style="fill:#3A3847;" d="M323.665,471.513c-2.209,0-3.996-1.787-3.996-3.996v-23.976c0-2.208,1.787-3.995,3.996-3.995
		s3.996,1.787,3.996,3.995v23.976C327.661,469.726,325.874,471.513,323.665,471.513z"/>
	<path style="fill:#3A3847;" d="M403.583,471.513c-2.209,0-3.996-1.787-3.996-3.996v-23.976c0-2.208,1.787-3.995,3.996-3.995
		c2.208,0,3.995,1.787,3.995,3.995v23.976C407.578,469.726,405.791,471.513,403.583,471.513z"/>
	<path style="fill:#3A3847;" d="M363.624,415.571c-2.209,0-3.996-1.787-3.996-3.996v-7.991c0-2.209,1.787-3.996,3.996-3.996
		s3.996,1.787,3.996,3.996v7.991C367.62,413.784,365.833,415.571,363.624,415.571z"/>
	<path style="fill:#3A3847;" d="M387.598,413.612c-2.208,0-3.995-1.787-3.995-3.996v-7.882c0-2.209,1.787-3.996,3.995-3.996
		c2.209,0,3.996,1.787,3.996,3.996v7.882C391.594,411.825,389.807,413.612,387.598,413.612z"/>
	<path style="fill:#3A3847;" d="M339.648,413.534c-2.208,0-3.995-1.787-3.995-3.996v-7.913c0-2.209,1.787-3.996,3.995-3.996
		c2.209,0,3.996,1.787,3.996,3.996v7.913C343.644,411.747,341.857,413.534,339.648,413.534z"/>
	<path style="fill:#3A3847;" d="M363.624,399.588c-32.678,0-41.848-8.226-42.784-9.162c-1.561-1.562-1.561-4.09,0-5.65
		c1.538-1.538,4.02-1.562,5.572-0.07c0.312,0.257,8.53,6.892,37.212,6.892c29.118,0,37.141-6.837,37.219-6.899
		c1.608-1.437,4.121-1.39,5.604,0.202c1.483,1.569,1.491,3.996-0.039,5.526C405.471,391.362,396.3,399.588,363.624,399.588z"/>
	<path style="fill:#3A3847;" d="M363.624,423.563c-32.678,0-41.848-8.227-42.784-9.163c-1.561-1.561-1.561-4.089,0-5.65
		c1.538-1.537,4.02-1.561,5.572-0.07c0.312,0.258,8.53,6.892,37.212,6.892c29.118,0,37.141-6.837,37.219-6.899
		c1.608-1.428,4.121-1.381,5.604,0.203c1.483,1.569,1.491,3.996-0.039,5.525C405.471,415.337,396.3,423.563,363.624,423.563z"/>
	<path style="fill:#3A3847;" d="M403.583,391.596c-0.992,0-1.982-0.367-2.748-1.101c-0.312-0.258-8.529-6.892-37.211-6.892
		c-29.118,0-37.142,6.837-37.22,6.898c-1.615,1.437-4.12,1.39-5.604-0.202c-1.482-1.569-1.49-3.996,0.039-5.525
		c0.937-0.937,10.106-9.163,42.784-9.163c32.677,0,41.848,8.227,42.783,9.163c1.562,1.561,1.562,4.089,0,5.65
		C405.627,391.206,404.604,391.596,403.583,391.596z"/>
	<path style="fill:#3A3847;" d="M323.665,415.571c-2.209,0-3.996-1.787-3.996-3.996V387.6c0-2.209,1.787-3.996,3.996-3.996
		s3.996,1.787,3.996,3.996v23.975C327.661,413.784,325.874,415.571,323.665,415.571z"/>
	<path style="fill:#3A3847;" d="M403.583,415.571c-2.209,0-3.996-1.787-3.996-3.996V387.6c0-2.209,1.787-3.996,3.996-3.996
		c2.208,0,3.995,1.787,3.995,3.996v23.975C407.578,413.784,405.791,415.571,403.583,415.571z"/>
	<path style="fill:#3A3847;" d="M363.624,359.629c-2.209,0-3.996-1.787-3.996-3.995v-7.992c0-2.209,1.787-3.996,3.996-3.996
		s3.996,1.787,3.996,3.996v7.992C367.62,357.841,365.833,359.629,363.624,359.629z"/>
	<path style="fill:#3A3847;" d="M387.598,357.671c-2.208,0-3.995-1.788-3.995-3.996v-7.883c0-2.209,1.787-3.996,3.995-3.996
		c2.209,0,3.996,1.787,3.996,3.996v7.883C391.594,355.882,389.807,357.671,387.598,357.671z"/>
	<path style="fill:#3A3847;" d="M339.648,357.592c-2.208,0-3.995-1.787-3.995-3.996v-7.914c0-2.209,1.787-3.996,3.995-3.996
		c2.209,0,3.996,1.787,3.996,3.996v7.914C343.644,355.805,341.857,357.592,339.648,357.592z"/>
	<path style="fill:#3A3847;" d="M363.624,343.645c-32.678,0-41.848-8.226-42.784-9.162c-1.561-1.561-1.561-4.09,0-5.65
		c1.538-1.537,4.02-1.561,5.572-0.07c0.312,0.258,8.53,6.892,37.212,6.892c29.118,0,37.141-6.837,37.219-6.899
		c1.608-1.436,4.121-1.381,5.604,0.203c1.483,1.568,1.491,3.996-0.039,5.525C405.471,335.42,396.3,343.645,363.624,343.645z"/>
	<path style="fill:#3A3847;" d="M363.624,367.621c-32.678,0-41.848-8.226-42.784-9.163c-1.561-1.561-1.561-4.089,0-5.65
		c1.538-1.537,4.02-1.561,5.572-0.069c0.312,0.257,8.53,6.891,37.212,6.891c29.118,0,37.141-6.837,37.219-6.898
		c1.608-1.429,4.121-1.382,5.604,0.202c1.483,1.569,1.491,3.996-0.039,5.525C405.471,359.395,396.3,367.621,363.624,367.621z"/>
	<path style="fill:#3A3847;" d="M403.583,335.654c-0.992,0-1.982-0.367-2.748-1.101c-0.312-0.258-8.529-6.892-37.211-6.892
		c-29.118,0-37.142,6.837-37.22,6.899c-1.615,1.436-4.12,1.381-5.604-0.203c-1.482-1.568-1.49-3.996,0.039-5.525
		c0.937-0.937,10.106-9.162,42.784-9.162c32.677,0,41.848,8.226,42.783,9.162c1.562,1.561,1.562,4.09,0,5.65
		C405.627,335.263,404.604,335.654,403.583,335.654z"/>
	<path style="fill:#3A3847;" d="M323.665,359.629c-2.209,0-3.996-1.787-3.996-3.995v-23.976c0-2.209,1.787-3.996,3.996-3.996
		s3.996,1.787,3.996,3.996v23.976C327.661,357.841,325.874,359.629,323.665,359.629z"/>
	<path style="fill:#3A3847;" d="M403.583,359.629c-2.209,0-3.996-1.787-3.996-3.995v-23.976c0-2.209,1.787-3.996,3.996-3.996
		c2.208,0,3.995,1.787,3.995,3.996v23.976C407.578,357.841,405.791,359.629,403.583,359.629z"/>
	<path style="fill:#3A3847;" d="M363.624,303.687c-2.209,0-3.996-1.788-3.996-3.996v-7.992c0-2.208,1.787-3.995,3.996-3.995
		s3.996,1.787,3.996,3.995v7.992C367.62,301.899,365.833,303.687,363.624,303.687z"/>
	<path style="fill:#3A3847;" d="M387.598,301.728c-2.208,0-3.995-1.788-3.995-3.996v-7.883c0-2.208,1.787-3.995,3.995-3.995
		c2.209,0,3.996,1.787,3.996,3.995v7.883C391.594,299.94,389.807,301.728,387.598,301.728z"/>
	<path style="fill:#3A3847;" d="M339.648,301.65c-2.208,0-3.995-1.787-3.995-3.996v-7.913c0-2.209,1.787-3.996,3.995-3.996
		c2.209,0,3.996,1.787,3.996,3.996v7.913C343.644,299.863,341.857,301.65,339.648,301.65z"/>
	<path style="fill:#3A3847;" d="M363.624,287.704c-32.678,0-41.848-8.227-42.784-9.163c-1.561-1.561-1.561-4.089,0-5.65
		c1.538-1.537,4.02-1.561,5.572-0.07c0.312,0.258,8.53,6.892,37.212,6.892c29.118,0,37.141-6.837,37.219-6.899
		c1.608-1.436,4.121-1.381,5.604,0.203c1.483,1.569,1.491,3.996-0.039,5.525C405.471,279.477,396.3,287.704,363.624,287.704z"/>
	<path style="fill:#3A3847;" d="M363.624,311.678c-32.678,0-41.848-8.226-42.784-9.162c-1.561-1.561-1.561-4.09,0-5.65
		c1.538-1.537,4.02-1.561,5.572-0.07c0.312,0.258,8.53,6.892,37.212,6.892c29.118,0,37.141-6.837,37.219-6.899
		c1.608-1.428,4.121-1.381,5.604,0.203c1.483,1.568,1.491,3.996-0.039,5.525C405.471,303.453,396.3,311.678,363.624,311.678z"/>
	<path style="fill:#3A3847;" d="M403.583,279.712c-0.992,0-1.982-0.367-2.748-1.101c-0.312-0.257-8.529-6.892-37.211-6.892
		c-29.118,0-37.142,6.837-37.22,6.899c-1.615,1.437-4.12,1.382-5.604-0.202c-1.482-1.569-1.49-3.996,0.039-5.526
		c0.937-0.937,10.106-9.162,42.784-9.162c32.677,0,41.848,8.226,42.783,9.162c1.562,1.562,1.562,4.09,0,5.65
		C405.627,279.321,404.604,279.712,403.583,279.712z"/>
	<path style="fill:#3A3847;" d="M323.665,303.687c-2.209,0-3.996-1.788-3.996-3.996v-23.976c0-2.208,1.787-3.996,3.996-3.996
		s3.996,1.788,3.996,3.996v23.976C327.661,301.899,325.874,303.687,323.665,303.687z"/>
	<path style="fill:#3A3847;" d="M403.583,303.687c-2.209,0-3.996-1.788-3.996-3.996v-23.976c0-2.208,1.787-3.996,3.996-3.996
		c2.208,0,3.995,1.788,3.995,3.996v23.976C407.578,301.899,405.791,303.687,403.583,303.687z"/>
	<path style="fill:#3A3847;" d="M467.516,471.513c-2.209,0-3.996-1.787-3.996-3.996v-7.991c0-2.209,1.787-3.996,3.996-3.996
		s3.996,1.787,3.996,3.996v7.991C471.512,469.726,469.725,471.513,467.516,471.513z"/>
	<path style="fill:#3A3847;" d="M491.491,469.554c-2.208,0-3.996-1.787-3.996-3.996v-7.882c0-2.209,1.788-3.996,3.996-3.996
		c2.209,0,3.996,1.787,3.996,3.996v7.882C495.487,467.767,493.7,469.554,491.491,469.554z"/>
	<path style="fill:#3A3847;" d="M443.541,469.476c-2.208,0-3.995-1.787-3.995-3.996v-7.913c0-2.209,1.787-3.996,3.995-3.996
		c2.209,0,3.996,1.787,3.996,3.996v7.913C447.537,467.689,445.75,469.476,443.541,469.476z"/>
	<path style="fill:#3A3847;" d="M467.516,455.53c-32.678,0-41.848-8.227-42.784-9.162c-1.561-1.562-1.561-4.09,0-5.65
		c1.538-1.538,4.02-1.562,5.572-0.07c0.312,0.257,8.53,6.891,37.212,6.891c29.118,0,37.141-6.836,37.219-6.898
		c1.607-1.437,4.121-1.39,5.604,0.202c1.483,1.569,1.491,3.996-0.039,5.526C509.364,447.303,500.193,455.53,467.516,455.53z"/>
	<path style="fill:#3A3847;" d="M467.516,479.505c-32.678,0-41.848-8.226-42.784-9.162c-1.561-1.561-1.561-4.09,0-5.65
		c1.538-1.537,4.02-1.561,5.572-0.07c0.312,0.258,8.53,6.892,37.212,6.892c29.118,0,37.141-6.837,37.219-6.899
		c1.607-1.436,4.121-1.381,5.604,0.203c1.483,1.568,1.491,3.996-0.039,5.525C509.364,471.279,500.193,479.505,467.516,479.505z"/>
	<path style="fill:#3A3847;" d="M507.475,447.538c-0.992,0-1.982-0.367-2.748-1.101c-0.312-0.257-8.53-6.891-37.211-6.891
		c-29.119,0-37.142,6.837-37.22,6.898c-1.615,1.437-4.112,1.39-5.604-0.202c-1.482-1.569-1.49-3.996,0.039-5.525
		c0.937-0.938,10.106-9.163,42.784-9.163c32.677,0,41.848,8.226,42.783,9.163c1.562,1.561,1.562,4.089,0,5.65
		C509.519,447.147,508.497,447.538,507.475,447.538z"/>
	<path style="fill:#3A3847;" d="M427.557,471.513c-2.209,0-3.996-1.787-3.996-3.996v-23.976c0-2.208,1.787-3.995,3.996-3.995
		s3.996,1.787,3.996,3.995v23.976C431.553,469.726,429.766,471.513,427.557,471.513z"/>
	<path style="fill:#3A3847;" d="M507.475,471.513c-2.209,0-3.996-1.787-3.996-3.996v-23.976c0-2.208,1.787-3.995,3.996-3.995
		c2.208,0,3.995,1.787,3.995,3.995v23.976C511.47,469.726,509.683,471.513,507.475,471.513z"/>
	<path style="fill:#3A3847;" d="M467.516,415.571c-2.209,0-3.996-1.787-3.996-3.996v-7.991c0-2.209,1.787-3.996,3.996-3.996
		s3.996,1.787,3.996,3.996v7.991C471.512,413.784,469.725,415.571,467.516,415.571z"/>
	<path style="fill:#3A3847;" d="M491.491,413.612c-2.208,0-3.996-1.787-3.996-3.996v-7.882c0-2.209,1.788-3.996,3.996-3.996
		c2.209,0,3.996,1.787,3.996,3.996v7.882C495.487,411.825,493.7,413.612,491.491,413.612z"/>
	<path style="fill:#3A3847;" d="M443.541,413.534c-2.208,0-3.995-1.787-3.995-3.996v-7.913c0-2.209,1.787-3.996,3.995-3.996
		c2.209,0,3.996,1.787,3.996,3.996v7.913C447.537,411.747,445.75,413.534,443.541,413.534z"/>
	<path style="fill:#3A3847;" d="M467.516,399.588c-32.678,0-41.848-8.226-42.784-9.162c-1.561-1.562-1.561-4.09,0-5.65
		c1.538-1.538,4.02-1.562,5.572-0.07c0.312,0.257,8.53,6.892,37.212,6.892c29.118,0,37.141-6.837,37.219-6.899
		c1.607-1.437,4.121-1.39,5.604,0.202c1.483,1.569,1.491,3.996-0.039,5.526C509.364,391.362,500.193,399.588,467.516,399.588z"/>
	<path style="fill:#3A3847;" d="M467.516,423.563c-32.678,0-41.848-8.227-42.784-9.163c-1.561-1.561-1.561-4.089,0-5.65
		c1.538-1.537,4.02-1.561,5.572-0.07c0.312,0.258,8.53,6.892,37.212,6.892c29.118,0,37.141-6.837,37.219-6.899
		c1.607-1.428,4.121-1.381,5.604,0.203c1.483,1.569,1.491,3.996-0.039,5.525C509.364,415.337,500.193,423.563,467.516,423.563z"/>
	<path style="fill:#3A3847;" d="M507.475,391.596c-0.992,0-1.982-0.367-2.748-1.101c-0.312-0.258-8.53-6.892-37.211-6.892
		c-29.119,0-37.142,6.837-37.22,6.898c-1.615,1.437-4.112,1.39-5.604-0.202c-1.482-1.569-1.49-3.996,0.039-5.525
		c0.937-0.937,10.106-9.163,42.784-9.163c32.677,0,41.848,8.227,42.783,9.163c1.562,1.561,1.562,4.089,0,5.65
		C509.519,391.206,508.497,391.596,507.475,391.596z"/>
	<path style="fill:#3A3847;" d="M427.557,415.571c-2.209,0-3.996-1.787-3.996-3.996V387.6c0-2.209,1.787-3.996,3.996-3.996
		s3.996,1.787,3.996,3.996v23.975C431.553,413.784,429.766,415.571,427.557,415.571z"/>
	<path style="fill:#3A3847;" d="M507.475,415.571c-2.209,0-3.996-1.787-3.996-3.996V387.6c0-2.209,1.787-3.996,3.996-3.996
		c2.208,0,3.995,1.787,3.995,3.996v23.975C511.47,413.784,509.683,415.571,507.475,415.571z"/>
	<path style="fill:#3A3847;" d="M467.516,359.629c-2.209,0-3.996-1.787-3.996-3.995v-7.992c0-2.209,1.787-3.996,3.996-3.996
		s3.996,1.787,3.996,3.996v7.992C471.512,357.841,469.725,359.629,467.516,359.629z"/>
	<path style="fill:#3A3847;" d="M491.491,357.671c-2.208,0-3.996-1.788-3.996-3.996v-7.883c0-2.209,1.788-3.996,3.996-3.996
		c2.209,0,3.996,1.787,3.996,3.996v7.883C495.487,355.882,493.7,357.671,491.491,357.671z"/>
	<path style="fill:#3A3847;" d="M443.541,357.592c-2.208,0-3.995-1.787-3.995-3.996v-7.914c0-2.209,1.787-3.996,3.995-3.996
		c2.209,0,3.996,1.787,3.996,3.996v7.914C447.537,355.805,445.75,357.592,443.541,357.592z"/>
	<path style="fill:#3A3847;" d="M467.516,343.645c-32.678,0-41.848-8.226-42.784-9.162c-1.561-1.561-1.561-4.09,0-5.65
		c1.538-1.537,4.02-1.561,5.572-0.07c0.312,0.258,8.53,6.892,37.212,6.892c29.118,0,37.141-6.837,37.219-6.899
		c1.607-1.436,4.121-1.381,5.604,0.203c1.483,1.568,1.491,3.996-0.039,5.525C509.364,335.42,500.193,343.645,467.516,343.645z"/>
	<path style="fill:#3A3847;" d="M467.516,367.621c-32.678,0-41.848-8.226-42.784-9.163c-1.561-1.561-1.561-4.089,0-5.65
		c1.538-1.537,4.02-1.561,5.572-0.069c0.312,0.257,8.53,6.891,37.212,6.891c29.118,0,37.141-6.837,37.219-6.898
		c1.607-1.429,4.121-1.382,5.604,0.202c1.483,1.569,1.491,3.996-0.039,5.525C509.364,359.395,500.193,367.621,467.516,367.621z"/>
	<path style="fill:#3A3847;" d="M507.475,335.654c-0.992,0-1.982-0.367-2.748-1.101c-0.312-0.258-8.53-6.892-37.211-6.892
		c-29.119,0-37.142,6.837-37.22,6.899c-1.615,1.436-4.112,1.381-5.604-0.203c-1.482-1.568-1.49-3.996,0.039-5.525
		c0.937-0.937,10.106-9.162,42.784-9.162c32.677,0,41.848,8.226,42.783,9.162c1.562,1.561,1.562,4.09,0,5.65
		C509.519,335.263,508.497,335.654,507.475,335.654z"/>
	<path style="fill:#3A3847;" d="M427.557,359.629c-2.209,0-3.996-1.787-3.996-3.995v-23.976c0-2.209,1.787-3.996,3.996-3.996
		s3.996,1.787,3.996,3.996v23.976C431.553,357.841,429.766,359.629,427.557,359.629z"/>
	<path style="fill:#3A3847;" d="M507.475,359.629c-2.209,0-3.996-1.787-3.996-3.995v-23.976c0-2.209,1.787-3.996,3.996-3.996
		c2.208,0,3.995,1.787,3.995,3.996v23.976C511.47,357.841,509.683,359.629,507.475,359.629z"/>
	<path style="fill:#3A3847;" d="M467.516,303.687c-2.209,0-3.996-1.788-3.996-3.996v-7.992c0-2.208,1.787-3.995,3.996-3.995
		s3.996,1.787,3.996,3.995v7.992C471.512,301.899,469.725,303.687,467.516,303.687z"/>
	<path style="fill:#3A3847;" d="M491.491,301.728c-2.208,0-3.996-1.788-3.996-3.996v-7.883c0-2.208,1.788-3.995,3.996-3.995
		c2.209,0,3.996,1.787,3.996,3.995v7.883C495.487,299.94,493.7,301.728,491.491,301.728z"/>
	<path style="fill:#3A3847;" d="M443.541,301.65c-2.208,0-3.995-1.787-3.995-3.996v-7.913c0-2.209,1.787-3.996,3.995-3.996
		c2.209,0,3.996,1.787,3.996,3.996v7.913C447.537,299.863,445.75,301.65,443.541,301.65z"/>
	<path style="fill:#3A3847;" d="M467.516,287.704c-32.678,0-41.848-8.227-42.784-9.163c-1.561-1.561-1.561-4.089,0-5.65
		c1.538-1.537,4.02-1.561,5.572-0.07c0.312,0.258,8.53,6.892,37.212,6.892c29.118,0,37.141-6.837,37.219-6.899
		c1.607-1.436,4.121-1.381,5.604,0.203c1.483,1.569,1.491,3.996-0.039,5.525C509.364,279.477,500.193,287.704,467.516,287.704z"/>
	<path style="fill:#3A3847;" d="M467.516,311.678c-32.678,0-41.848-8.226-42.784-9.162c-1.561-1.561-1.561-4.09,0-5.65
		c1.538-1.537,4.02-1.561,5.572-0.07c0.312,0.258,8.53,6.892,37.212,6.892c29.118,0,37.141-6.837,37.219-6.899
		c1.607-1.428,4.121-1.381,5.604,0.203c1.483,1.568,1.491,3.996-0.039,5.525C509.364,303.453,500.193,311.678,467.516,311.678z"/>
	<path style="fill:#3A3847;" d="M507.475,279.712c-0.992,0-1.982-0.367-2.748-1.101c-0.312-0.257-8.53-6.892-37.211-6.892
		c-29.119,0-37.142,6.837-37.22,6.899c-1.615,1.437-4.112,1.382-5.604-0.202c-1.482-1.569-1.49-3.996,0.039-5.526
		c0.937-0.937,10.106-9.162,42.784-9.162c32.677,0,41.848,8.226,42.783,9.162c1.562,1.562,1.562,4.09,0,5.65
		C509.519,279.321,508.497,279.712,507.475,279.712z"/>
	<path style="fill:#3A3847;" d="M427.557,303.687c-2.209,0-3.996-1.788-3.996-3.996v-23.976c0-2.208,1.787-3.996,3.996-3.996
		s3.996,1.788,3.996,3.996v23.976C431.553,301.899,429.766,303.687,427.557,303.687z"/>
	<path style="fill:#3A3847;" d="M507.475,303.687c-2.209,0-3.996-1.788-3.996-3.996v-23.976c0-2.208,1.787-3.996,3.996-3.996
		c2.208,0,3.995,1.788,3.995,3.996v23.976C511.47,301.899,509.683,303.687,507.475,303.687z"/>
	<path style="fill:#3A3847;" d="M451.533,111.889c-0.937,0-1.873-0.328-2.63-0.991c-1.663-1.452-1.834-3.973-0.375-5.635
		l55.941-63.934c1.452-1.67,3.98-1.818,5.635-0.375c1.663,1.452,1.835,3.973,0.375,5.635l-55.941,63.934
		C453.749,111.429,452.641,111.889,451.533,111.889z"/>
	<path style="fill:#3A3847;" d="M507.483,47.956c-0.133,0-0.273-0.008-0.406-0.023l-79.918-7.992
		c-2.192-0.218-3.801-2.177-3.574-4.37c0.219-2.193,2.225-3.848,4.371-3.575l79.917,7.992c2.193,0.219,3.801,2.178,3.574,4.371
		C511.245,46.418,509.504,47.956,507.483,47.956z"/>
	<path style="fill:#3A3847;" d="M35.963,351.637c-1.202,0-2.388-0.539-3.176-1.568c-1.342-1.757-0.999-4.27,0.75-5.604
		C275.496,159.879,440.193,81.077,441.832,80.305c1.982-0.929,4.37-0.102,5.322,1.904c0.944,1.99,0.094,4.378-1.904,5.323
		c-1.631,0.772-165.648,79.262-406.859,263.286C37.664,351.372,36.814,351.637,35.963,351.637z"/>
	<path style="fill:#3A3847;" d="M3.996,311.678c-1.264,0-2.521-0.608-3.293-1.732c-1.249-1.818-0.789-4.309,1.03-5.557
		C254.893,130.346,432.271,56.962,434.035,56.244c2.053-0.827,4.378,0.141,5.214,2.185c0.835,2.045-0.141,4.378-2.186,5.213
		C435.307,64.36,258.646,137.464,6.26,310.976C5.565,311.452,4.777,311.678,3.996,311.678z"/>
	<path style="fill:#3A3847;" d="M35.971,351.637c-0.265,0-0.53-0.023-0.788-0.078c-2.17-0.43-3.574-2.537-3.138-4.698l7.992-39.959
		c0.437-2.177,2.638-3.574,4.698-3.138c2.169,0.43,3.574,2.537,3.137,4.699l-7.992,39.958
		C39.499,350.326,37.836,351.637,35.971,351.637z"/>
	<path style="fill:#3A3847;" d="M43.955,311.678H3.996c-2.208,0-3.996-1.787-3.996-3.996c0-2.208,1.788-3.995,3.996-3.995h39.959
		c2.208,0,3.996,1.787,3.996,3.995C47.951,309.891,46.163,311.678,43.955,311.678z"/>
	<path style="fill:#3A3847;" d="M467.516,239.757c-24.232,0-43.955-19.722-43.955-43.955s19.723-43.947,43.955-43.947
		s43.954,19.714,43.954,43.947S491.749,239.757,467.516,239.757z M467.516,159.847c-19.831,0-35.963,16.132-35.963,35.955
		c0,19.831,16.132,35.963,35.963,35.963s35.963-16.132,35.963-35.963C503.479,175.979,487.347,159.847,467.516,159.847z"/>
	<path style="fill:#3A3847;" d="M467.516,255.741c-24.232,0-43.955-19.723-43.955-43.955c0-2.208,1.787-3.996,3.996-3.996
		s3.996,1.788,3.996,3.996c0,19.831,16.132,35.963,35.963,35.963s35.963-16.132,35.963-35.963c0-2.208,1.787-3.996,3.996-3.996
		c2.208,0,3.995,1.788,3.995,3.996C511.47,236.018,491.749,255.741,467.516,255.741z"/>
	<path style="fill:#3A3847;" d="M427.557,215.782c-2.209,0-3.996-1.787-3.996-3.996v-15.983c0-2.209,1.787-3.996,3.996-3.996
		s3.996,1.787,3.996,3.996v15.983C431.553,213.995,429.766,215.782,427.557,215.782z"/>
	<path style="fill:#3A3847;" d="M507.475,215.782c-2.209,0-3.996-1.787-3.996-3.996v-15.983c0-2.209,1.787-3.996,3.996-3.996
		c2.208,0,3.995,1.787,3.995,3.996v15.983C511.47,213.995,509.683,215.782,507.475,215.782z"/>
	<path style="fill:#3A3847;" d="M491.491,247.749c-2.208,0-3.996-1.787-3.996-3.996v-15.976c0-2.208,1.788-3.996,3.996-3.996
		c2.209,0,3.996,1.788,3.996,3.996v15.976C495.487,245.962,493.7,247.749,491.491,247.749z"/>
	<path style="fill:#3A3847;" d="M467.516,255.741c-2.209,0-3.996-1.788-3.996-3.996v-15.983c0-2.209,1.787-3.996,3.996-3.996
		s3.996,1.787,3.996,3.996v15.983C471.512,253.953,469.725,255.741,467.516,255.741z"/>
	<path style="fill:#3A3847;" d="M443.548,247.749c-2.208,0-3.995-1.787-3.995-3.996v-15.976c0-2.208,1.787-3.996,3.995-3.996
		c2.209,0,3.996,1.788,3.996,3.996v15.976C447.545,245.962,445.757,247.749,443.548,247.749z"/>
	<path style="fill:#3A3847;" d="M467.516,215.782c-2.209,0-3.996-1.787-3.996-3.996v-31.967c0-2.209,1.787-3.996,3.996-3.996
		s3.996,1.787,3.996,3.996v31.967C471.512,213.995,469.725,215.782,467.516,215.782z"/>
</g>
<g>
</g>
<g>
</g>
<g>
</g>
<g>
</g>
<g>
</g>
<g>
</g>
<g>
</g>
<g>
</g>
<g>
</g>
<g>
</g>
<g>
</g>
<g>
</g>
<g>
</g>
<g>
</g>
<g>
</g>
</svg>
