<?xml version="1.0" encoding="UTF-8" standalone="no"?>
<!DOCTYPE svg PUBLIC "-//W3C//DTD SVG 1.1//EN" "http://www.w3.org/Graphics/SVG/1.1/DTD/svg11.dtd">
<svg version="1.1" xmlns="http://www.w3.org/2000/svg" xmlns:xlink="http://www.w3.org/1999/xlink" preserveAspectRatio="xMidYMid meet" viewBox="0 0 120 140" width="120" height="140"><defs><path d="M553.04 476.89C553.04 476.89 553.04 476.89 553.04 476.89C553.04 568.54 553.04 619.47 553.04 629.65C553.04 629.65 553.04 629.65 553.04 629.65C169.04 629.65 -44.3 629.65 -86.96 629.65C-86.96 629.65 -86.96 629.65 -86.96 629.65C-86.96 537.99 -86.96 487.07 -86.96 476.89C-86.96 476.89 -86.96 476.89 -86.96 476.89C297.04 476.89 510.37 476.89 553.04 476.89Z" id="b5c1zxDa"></path><path d="M79.19 7.93L80.39 8.06L81.58 8.25L82.77 8.5L83.94 8.79L85.11 9.14L86.27 9.54L87.41 9.99L88.55 10.48L89.67 11.01L90.79 11.59L91.89 12.2L92.97 12.84L94.04 13.52L95.1 14.23L96.15 14.97L97.17 15.74L98.19 16.53L99.18 17.35L100.16 18.18L101.12 19.03L102.06 19.9L102.98 20.78L103.89 21.67L104.78 22.57L105.66 23.49L106.53 24.43L107.38 25.39L108.22 26.37L109.03 27.36L109.83 28.37L110.59 29.4L111.34 30.44L112.05 31.49L112.73 32.57L113.38 33.65L113.99 34.75L114.56 35.86L115.1 36.98L115.59 38.12L116.04 39.26L116.44 40.42L116.79 41.59L117.09 42.76L117.34 43.95L117.53 45.14L117.66 46.34L117.74 47.55L117.75 48.76L117.69 49.98L117.58 51.2L117.39 52.43L117.13 53.67L116.79 54.91L116.39 56.15L115.9 57.39L115.33 58.64L114.69 59.88L113.95 61.13L113.13 62.38L112.23 63.62L111.23 64.87L110.13 66.12L108.95 67.36L108.06 68.21L107.13 69.06L106.14 69.91L105.12 70.74L104.04 71.57L102.93 72.4L101.77 73.21L100.58 74.01L99.35 74.8L98.09 75.58L96.8 76.35L95.47 77.11L94.12 77.85L92.74 78.57L91.34 79.28L89.92 79.97L88.48 80.65L87.02 81.31L85.54 81.94L84.05 82.56L82.54 83.15L81.03 83.73L79.51 84.28L77.99 84.8L76.46 85.31L74.92 85.78L73.39 86.23L71.86 86.65L70.34 87.05L68.82 87.41L67.31 87.75L65.8 88.05L64.32 88.33L62.84 88.57L61.38 88.77L59.94 88.95L58.52 89.08L57.12 89.18L55.75 89.25L54.4 89.28L21.36 122.32L21.07 122.6L20.77 122.85L20.45 123.08L20.13 123.29L19.79 123.48L19.44 123.65L19.09 123.8L18.73 123.94L18.36 124.05L17.98 124.14L17.6 124.21L17.21 124.27L16.81 124.31L16.41 124.33L16.01 124.33L15.6 124.32L15.19 124.29L14.77 124.24L14.36 124.18L13.94 124.1L13.52 124L13.1 123.89L12.68 123.77L12.26 123.63L11.84 123.48L11.42 123.31L11 123.13L10.59 122.93L10.18 122.73L9.78 122.51L9.37 122.27L8.98 122.03L8.59 121.77L8.2 121.51L7.82 121.23L7.45 120.94L7.09 120.64L6.73 120.33L6.39 120.01L6.05 119.68L5.72 119.34L5.41 118.98L5.11 118.61L4.83 118.23L4.56 117.84L4.31 117.44L4.07 117.03L3.84 116.61L3.63 116.18L3.43 115.74L3.25 115.3L3.09 114.85L2.93 114.39L2.8 113.93L2.68 113.47L2.57 113.01L2.48 112.54L2.4 112.07L2.34 111.6L2.3 111.14L2.27 110.67L2.25 110.21L2.25 109.74L2.27 109.29L2.3 108.83L2.35 108.38L2.42 107.94L2.5 107.5L2.6 107.08L2.71 106.66L2.84 106.24L2.98 105.84L3.14 105.45L3.32 105.07L3.52 104.71L3.73 104.35L3.96 104.01L4.2 103.69L4.46 103.38L4.74 103.08L37.78 70.04L37.59 68.67L37.47 67.29L37.39 65.88L37.36 64.46L37.38 63.03L37.45 61.58L37.57 60.12L37.73 58.65L37.94 57.17L38.18 55.68L38.47 54.2L38.8 52.7L39.16 51.21L39.56 49.72L40 48.23L40.47 46.74L40.97 45.26L41.5 43.79L42.06 42.33L42.65 40.87L43.27 39.43L43.91 38.01L44.58 36.6L45.27 35.2L45.98 33.83L46.71 32.48L47.46 31.15L48.22 29.84L49 28.56L49.8 27.31L50.6 26.09L51.42 24.9L52.25 23.74L53.09 22.62L53.93 21.53L54.78 20.49L55.64 19.48L56.5 18.51L57.36 17.59L58.22 16.71L59.45 15.51L60.69 14.42L61.94 13.41L63.18 12.5L64.42 11.68L65.67 10.94L66.91 10.29L68.15 9.72L69.39 9.23L70.63 8.82L71.87 8.48L73.1 8.22L74.33 8.03L75.55 7.9L76.77 7.85L77.98 7.86L79.19 7.93ZM10.11 106.64L9.8 107L9.52 107.37L9.29 107.74L9.08 108.1L8.91 108.47L8.77 108.83L8.66 109.18L8.58 109.54L8.53 109.88L8.5 110.22L8.51 110.56L8.54 110.88L8.59 111.2L8.67 111.5L8.77 111.79L8.89 112.07L9.04 112.34L9.2 112.59L9.39 112.83L9.59 113.05L9.81 113.25L10.05 113.44L10.3 113.6L10.56 113.75L10.84 113.87L11.14 113.98L11.44 114.06L11.75 114.11L12.08 114.14L12.41 114.15L12.75 114.13L13.1 114.08L13.45 114L13.81 113.89L14.17 113.75L14.54 113.58L14.9 113.38L15.27 113.14L15.64 112.87L16.01 112.56L16.37 112.22L46.86 81.71L40.94 75.76L10.45 106.27L10.11 106.64ZM108.7 35.86L108.53 36.61L108.33 37.36L108.1 38.13L107.84 38.9L107.55 39.68L107.23 40.47L106.88 41.27L106.5 42.07L106.09 42.89L105.65 43.71L105.17 44.54L104.67 45.38L104.13 46.22L103.57 47.08L102.97 47.94L102.34 48.81L101.68 49.69L100.99 50.57L100.27 51.47L99.52 52.37L98.74 53.28L97.92 54.2L97.08 55.12L96.2 56.05L95.29 56.99L94.35 57.94L93.77 58.52L93.12 59.15L92.39 59.83L91.6 60.55L90.74 61.32L89.82 62.12L88.84 62.95L87.81 63.82L86.73 64.71L85.61 65.62L84.44 66.55L83.24 67.49L82 68.45L80.73 69.41L79.43 70.38L78.12 71.34L76.78 72.3L75.43 73.25L74.07 74.19L72.7 75.11L71.33 76.01L69.96 76.89L68.6 77.74L67.24 78.56L65.89 79.35L64.56 80.09L63.25 80.8L61.97 81.46L63.44 81.24L64.94 80.99L66.46 80.68L68 80.33L69.55 79.93L71.12 79.49L72.69 79.01L74.27 78.48L75.86 77.92L77.45 77.32L79.03 76.68L80.62 76.01L82.19 75.3L83.75 74.55L85.31 73.78L86.84 72.97L88.36 72.14L89.85 71.27L91.32 70.38L92.76 69.47L94.17 68.52L95.55 67.56L96.89 66.57L98.2 65.56L99.46 64.54L100.67 63.49L101.84 62.43L102.96 61.35L104.01 60.27L104.98 59.2L105.87 58.14L106.68 57.1L107.42 56.07L108.09 55.05L108.68 54.05L109.21 53.05L109.68 52.06L110.08 51.08L110.42 50.11L110.7 49.15L110.92 48.19L111.09 47.24L111.2 46.3L111.27 45.36L111.29 44.43L111.26 43.51L111.19 42.58L111.07 41.67L110.92 40.75L110.73 39.84L110.51 38.93L110.25 38.02L109.97 37.11L109.65 36.2L109.31 35.3L108.94 34.39L108.84 35.12L108.7 35.86ZM99.24 32.2L97.8 33.59L96.26 35.07L94.61 36.64L92.88 38.27L91.06 39.97L89.18 41.73L87.24 43.54L85.25 45.38L83.22 47.26L81.16 49.17L79.07 51.09L76.98 53.02L74.89 54.95L72.81 56.88L70.74 58.79L68.71 60.68L66.71 62.53L64.76 64.35L62.87 66.12L61.05 67.83L59.3 69.48L57.64 71.06L56.09 72.56L54.63 73.98L53.3 75.3L54.35 74.9L55.45 74.46L56.58 73.99L57.75 73.47L58.95 72.91L60.18 72.32L61.44 71.69L62.72 71.02L64.02 70.31L65.34 69.57L66.68 68.79L68.04 67.97L69.4 67.13L70.78 66.24L72.16 65.33L73.55 64.38L74.94 63.4L76.33 62.39L77.72 61.35L79.11 60.28L80.48 59.18L81.85 58.05L83.2 56.9L84.54 55.71L85.86 54.5L87.16 53.26L88.43 52L89.54 50.88L90.59 49.8L91.59 48.74L92.53 47.71L93.43 46.71L94.27 45.73L95.06 44.77L95.81 43.84L96.51 42.94L97.15 42.05L97.76 41.19L98.31 40.34L98.83 39.52L99.3 38.72L99.72 37.93L100.1 37.17L100.45 36.42L100.75 35.68L101.01 34.97L101.23 34.27L101.41 33.58L101.56 32.9L101.67 32.24L101.74 31.6L101.78 30.96L101.78 30.33L101.75 29.71L100.56 30.9L99.24 32.2ZM93.88 23.78L93.2 23.86L92.51 23.98L91.8 24.13L91.07 24.32L90.33 24.54L89.56 24.81L88.78 25.12L87.97 25.46L87.13 25.84L86.27 26.27L85.38 26.73L84.46 27.24L83.52 27.78L82.54 28.37L81.53 29L80.48 29.67L79.4 30.39L78.28 31.14L77.12 31.94L75.93 32.79L74.69 33.68L73.41 34.61L72.09 35.59L70.78 36.9L69.49 38.22L68.24 39.54L67.01 40.86L65.81 42.18L64.63 43.5L63.49 44.81L62.38 46.13L61.3 47.43L60.25 48.73L59.24 50.02L58.26 51.31L57.32 52.59L56.41 53.86L55.53 55.11L54.7 56.36L53.9 57.6L53.14 58.82L52.42 60.03L51.75 61.22L51.11 62.4L50.52 63.56L49.97 64.7L49.46 65.82L49 66.93L48.58 68.01L50.68 66.26L52.82 64.47L54.99 62.64L57.18 60.78L59.39 58.9L61.6 57.01L63.81 55.09L66.02 53.18L68.21 51.26L70.37 49.34L72.51 47.44L74.61 45.55L76.66 43.68L78.66 41.83L80.6 40.02L82.47 38.25L84.27 36.52L85.99 34.83L87.61 33.21L89.14 31.64L90.56 30.13L91.87 28.7L93.06 27.34L94.12 26.06L95.05 24.87L95.83 23.77L95.19 23.74L94.54 23.74L93.88 23.78ZM78.11 14.58L77.2 14.71L76.27 14.91L75.33 15.16L74.37 15.48L73.41 15.86L72.43 16.31L71.44 16.83L70.44 17.41L69.42 18.07L68.39 18.81L67.35 19.61L66.29 20.5L65.22 21.46L64.14 22.51L63.05 23.62L61.98 24.79L60.93 26L59.9 27.26L58.89 28.56L57.9 29.9L56.94 31.28L55.99 32.69L55.07 34.13L54.18 35.6L53.32 37.09L52.48 38.61L51.68 40.14L50.9 41.69L50.16 43.26L49.46 44.83L48.78 46.42L48.15 48L47.55 49.59L46.99 51.18L46.47 52.76L45.99 54.34L45.56 55.91L45.17 57.46L44.82 59L44.53 60.52L44.27 62.01L44.07 63.49L44.86 62.08L45.68 60.66L46.52 59.24L47.38 57.83L48.27 56.41L49.17 55L50.08 53.6L51 52.21L51.94 50.83L52.87 49.47L53.81 48.13L54.75 46.81L55.69 45.52L56.63 44.26L57.55 43.02L58.46 41.82L59.36 40.66L60.25 39.53L61.11 38.45L61.95 37.41L62.77 36.42L63.56 35.48L64.32 34.59L65.05 33.76L65.74 32.99L66.4 32.28L67.01 31.64L67.58 31.06L68.52 30.13L69.45 29.24L70.37 28.38L71.26 27.57L72.14 26.79L73.01 26.05L73.86 25.35L74.7 24.68L75.53 24.05L76.35 23.45L77.15 22.89L77.95 22.36L78.73 21.86L79.51 21.39L80.28 20.95L81.04 20.55L81.79 20.17L82.54 19.82L83.29 19.5L84.02 19.21L84.76 18.94L85.49 18.7L86.22 18.48L86.94 18.29L87.67 18.12L88.39 17.98L89.12 17.86L89.84 17.76L89.07 17.27L88.29 16.82L87.49 16.4L86.69 16.02L85.88 15.67L85.06 15.37L84.23 15.1L83.38 14.88L82.53 14.71L81.67 14.58L80.8 14.5L79.91 14.47L79.02 14.5L78.11 14.58Z" id="b1kkhSXkYW"></path></defs><g><g><g><use xlink:href="#b5c1zxDa" opacity="1" fill="#263133" fill-opacity="1"></use><g><use xlink:href="#b5c1zxDa" opacity="1" fill-opacity="0" stroke="#000000" stroke-width="1" stroke-opacity="0"></use></g></g><g><use xlink:href="#b1kkhSXkYW" opacity="1" fill="#ebe8e8" fill-opacity="1"></use><g><use xlink:href="#b1kkhSXkYW" opacity="1" fill-opacity="0" stroke="#070707" stroke-width="1.5" stroke-opacity="1"></use></g></g></g></g></svg>