<?xml version="1.0" encoding="utf-8"?>
<!-- Generator: Adobe Illustrator 21.0.0, SVG Export Plug-In . SVG Version: 6.00 Build 0)  -->
<svg version="1.1" id="Слой_1" xmlns="http://www.w3.org/2000/svg" xmlns:xlink="http://www.w3.org/1999/xlink" x="0px" y="0px"
	 viewBox="0 0 226.2 226.2" style="enable-background:new 0 0 226.2 226.2;" xml:space="preserve">
<style type="text/css">
	.st0{fill:#EBE8E8;}
</style>
<g>
	<g>
		<path class="st0" d="M8.7,43.5h208.8c5.2,0,8.7-3.5,8.7-8.7s-3.5-8.7-8.7-8.7H8.7c-5.2,0-8.7,3.5-8.7,8.7S3.5,43.5,8.7,43.5z"/>
		<path class="st0" d="M217.5,104.4H8.7c-5.2,0-8.7,3.5-8.7,8.7s3.5,8.7,8.7,8.7h208.8c5.2,0,8.7-3.5,8.7-8.7
			S222.7,104.4,217.5,104.4z"/>
		<path class="st0" d="M217.5,182.7H8.7c-5.2,0-8.7,3.5-8.7,8.7s3.5,8.7,8.7,8.7h208.8c5.2,0,8.7-3.5,8.7-8.7
			S222.7,182.7,217.5,182.7z"/>
	</g>
</g>
</svg>
