<?xml version="1.0" encoding="iso-8859-1"?>
<!-- Generator: Adobe Illustrator 19.0.0, SVG Export Plug-In . SVG Version: 6.00 Build 0)  -->
<svg version="1.1" id="Layer_1" xmlns="http://www.w3.org/2000/svg" xmlns:xlink="http://www.w3.org/1999/xlink" x="0px" y="0px"
	 viewBox="0 0 512 512" style="enable-background:new 0 0 512 512;" xml:space="preserve">
<path style="fill:#334F55;" d="M467.862,417.769V272.114c0-90.052-73.28-163.31-163.358-163.31h-53.506
	c-0.565-4.966-0.51-14.023,4.101-19.767c3.573-4.457,9.815-6.716,18.556-6.716h8.828V64.666h-8.828
	c-14.362,0-25.237,4.483-32.328,13.323c-2.95,3.677-4.879,7.747-6.131,11.804c-8.819-16.06-26.204-33.082-57.192-38.248
	l-8.707-1.453l-2.905,17.414l8.707,1.453c35.43,5.904,45.915,29.203,48.901,39.845h-16.504c-90.078,0-163.358,73.259-163.358,163.31
	v145.655H0v17.655h52.966h8.828h26.483v17.655c0,4.875,3.953,8.828,8.828,8.828h26.483h17.655h8.828h17.655h26.483
	c4.875,0,8.828-3.953,8.828-8.828v-17.655h105.931v17.655c0,4.875,3.953,8.828,8.828,8.828h26.483h17.655h8.828h17.655h26.483
	c4.875,0,8.828-3.953,8.828-8.828v-17.655h26.483h8.828H512v-17.655H467.862z"/>
<g>
	<path style="fill:#D8D8D8;" d="M185.379,444.252h-17.655v-26.483h-17.655v26.483h-8.828v-26.483h-17.655v26.483h-17.655v-8.828
		v-8.828c0-9.737,7.944-17.655,17.707-17.655h44.034c9.763,0,17.707,7.918,17.707,17.655v8.828L185.379,444.252L185.379,444.252z"/>
	<path style="fill:#D8D8D8;" d="M406.069,444.252h-17.655v-26.483h-17.655v26.483h-8.828v-26.483h-17.655v26.483h-17.655v-8.828
		v-8.828c0-9.737,7.944-17.655,17.707-17.655h44.034c9.763,0,17.707,7.918,17.707,17.655v8.828L406.069,444.252L406.069,444.252z"/>
</g>
<path style="fill:#C59A83;" d="M422.469,417.769c-3.954-15.185-17.677-26.483-34.107-26.483h-44.034
	c-16.429,0-30.152,11.297-34.106,26.483H201.779c-3.954-15.185-17.677-26.483-34.107-26.483h-44.035
	c-16.429,0-30.152,11.297-34.106,26.483H61.793V272.114c0-80.315,65.362-145.655,145.703-145.655h97.009
	c80.341,0,145.703,65.34,145.703,145.655v145.655H422.469z"/>
<g>
	<circle style="fill:#334F55;" cx="176.552" cy="303.003" r="17.655"/>
	<circle style="fill:#334F55;" cx="335.448" cy="303.003" r="17.655"/>
</g>
<g>
</g>
<g>
</g>
<g>
</g>
<g>
</g>
<g>
</g>
<g>
</g>
<g>
</g>
<g>
</g>
<g>
</g>
<g>
</g>
<g>
</g>
<g>
</g>
<g>
</g>
<g>
</g>
<g>
</g>
</svg>
