<?xml version="1.0" encoding="iso-8859-1"?>
<!-- Generator: Adobe Illustrator 19.0.0, SVG Export Plug-In . SVG Version: 6.00 Build 0)  -->
<svg version="1.1" id="Layer_1" xmlns="http://www.w3.org/2000/svg" xmlns:xlink="http://www.w3.org/1999/xlink" x="0px" y="0px"
	 viewBox="0 0 512 512" style="enable-background:new 0 0 512 512;" xml:space="preserve">
<path style="fill:#334F55;" d="M467.862,401.655V256c0-90.052-73.28-163.31-163.358-163.31h-97.009
	c-90.078,0-163.358,73.259-163.358,163.31v145.655H0v17.655h52.966h70.621h44.138h26.483h247.172h17.655H512v-17.655H467.862z"/>
<path style="fill:#63CB6B;" d="M441.379,401.655H194.207h-26.483h-44.138H61.793V256c0-80.315,65.362-145.655,145.703-145.655
	h97.009c80.341,0,145.703,65.34,145.703,145.655v145.655H441.379z"/>
<g>
	<path style="fill:#334F55;" d="M317.793,242.759c19.47,0,35.31-15.84,35.31-35.31v-8.828h-17.655v8.828
		c0,9.737-7.918,17.655-17.655,17.655c-9.737,0-17.655-7.918-17.655-17.655v-8.828h-17.655v8.828
		C282.483,226.918,298.323,242.759,317.793,242.759z"/>
	<path style="fill:#334F55;" d="M185.379,242.759c19.47,0,35.31-15.84,35.31-35.31v-8.828h-17.655v8.828
		c0,9.737-7.918,17.655-17.655,17.655c-9.737,0-17.655-7.918-17.655-17.655v-8.828h-17.655v8.828
		C150.069,226.918,165.909,242.759,185.379,242.759z"/>
	<path style="fill:#334F55;" d="M397.241,260.414H114.759c-4.875,0-8.828,3.953-8.828,8.828v30.897
		c0,21.905,17.823,39.724,39.733,39.724h220.672c21.909,0,39.733-17.819,39.733-39.724v-30.897
		C406.069,264.366,402.116,260.414,397.241,260.414z"/>
</g>
<g>
	<rect x="220.69" y="278.069" style="fill:#D8D8D8;" width="26.483" height="44.138"/>
	<rect x="176.552" y="278.069" style="fill:#D8D8D8;" width="26.483" height="44.138"/>
	<rect x="264.828" y="278.069" style="fill:#D8D8D8;" width="26.483" height="44.138"/>
	<rect x="308.966" y="278.069" style="fill:#D8D8D8;" width="26.483" height="44.138"/>
	<path style="fill:#D8D8D8;" d="M123.586,300.138v-22.069h35.31v44.138h-13.233C133.491,322.207,123.586,312.306,123.586,300.138z"
		/>
	<path style="fill:#D8D8D8;" d="M388.414,300.138c0,12.168-9.905,22.069-22.078,22.069h-13.233v-44.138h35.31V300.138z"/>
</g>
<path style="fill:#334F55;" d="M291.31,348.69H220.69c-4.875,0-8.828,3.953-8.828,8.828s3.953,8.828,8.828,8.828h70.621
	c4.875,0,8.828-3.953,8.828-8.828S296.185,348.69,291.31,348.69z"/>
<g>
</g>
<g>
</g>
<g>
</g>
<g>
</g>
<g>
</g>
<g>
</g>
<g>
</g>
<g>
</g>
<g>
</g>
<g>
</g>
<g>
</g>
<g>
</g>
<g>
</g>
<g>
</g>
<g>
</g>
</svg>
