<?xml version="1.0" encoding="iso-8859-1"?>
<!-- Generator: Adobe Illustrator 19.0.0, SVG Export Plug-In . SVG Version: 6.00 Build 0)  -->
<svg version="1.1" id="Layer_1" xmlns="http://www.w3.org/2000/svg" xmlns:xlink="http://www.w3.org/1999/xlink" x="0px" y="0px"
	 viewBox="0 0 500 500" style="enable-background:new 0 0 500 500;" xml:space="preserve">
<circle style="fill:#324A5E;" cx="250" cy="250" r="250"/>
<path style="fill:#FFD05B;" d="M249,82c-52.7,0-95.6,40.3-95.6,89.9V225H178v-53.1c0-36,31.9-65.3,71-65.3s71,29.3,71,65.3V225h24.6
	v-53.1C344.6,122.3,301.7,82,249,82z"/>
<rect x="131.6" y="221.3" style="fill:#E6E9EE;" width="234.8" height="173.2"/>
<g>
	<rect x="131.6" y="221.3" style="fill:#ACB3BA;" width="234.8" height="32.8"/>
	<rect x="131.6" y="361.7" style="fill:#ACB3BA;" width="234.8" height="32.8"/>
</g>
<path style="fill:#FF7058;" d="M266,293.4c0-9.4-7.6-17-17-17s-17,7.6-17,17c0,6,3.1,11.2,7.8,14.3l-2.6,31.8h23.6l-2.6-31.8
	C262.9,304.6,266,299.4,266,293.4z"/>
<g>
</g>
<g>
</g>
<g>
</g>
<g>
</g>
<g>
</g>
<g>
</g>
<g>
</g>
<g>
</g>
<g>
</g>
<g>
</g>
<g>
</g>
<g>
</g>
<g>
</g>
<g>
</g>
<g>
</g>
</svg>
