<?xml version="1.0" encoding="iso-8859-1"?>
<!-- Generator: Adobe Illustrator 19.1.0, SVG Export Plug-In . SVG Version: 6.00 Build 0)  -->
<svg version="1.1" id="Capa_1" xmlns="http://www.w3.org/2000/svg" xmlns:xlink="http://www.w3.org/1999/xlink" x="0px" y="0px"
	 viewBox="0 0 448.77 448.77" style="enable-background:new 0 0 448.77 448.77;" xml:space="preserve">
<g>
	<path d="M442.35,164.29v224.32c0,17.81-14.48,32.3-32.29,32.3H305.04l11.95,12.86h18.05c4.14,0,7.5,3.35,7.5,7.5
		c0,4.14-3.36,7.5-7.5,7.5h-221.3c-4.15,0-7.5-3.36-7.5-7.5c0-4.15,3.35-7.5,7.5-7.5h18.05l11.94-12.86H38.72
		c-17.81,0-32.3-14.49-32.3-32.3V164.29c0-17.81,14.49-32.3,32.3-32.3h92.34c-3.75-10.54-5.65-21.6-5.65-33.02
		C125.41,44.4,169.81,0,224.39,0c54.57,0,98.96,44.4,98.96,98.97c0,11.42-1.89,22.48-5.64,33.02h92.35
		C427.87,131.99,442.35,146.48,442.35,164.29z M427.35,380.32V172.58h-59.88c1.29,7.82,1.95,15.77,1.95,23.73
		c0,79.97-65.06,145.04-145.03,145.04c-79.98,0-145.04-65.07-145.04-145.04c0-7.96,0.66-15.91,1.94-23.73H21.42v207.74H427.35z
		 M22.78,157.58H426c-2.63-6.22-8.78-10.59-15.94-10.59H38.72C31.56,146.99,25.4,151.36,22.78,157.58z M426,395.32H22.78
		c2.62,6.22,8.78,10.59,15.94,10.59h371.34C417.22,405.91,423.37,401.54,426,395.32z M354.42,196.31c0-7.97-0.74-15.93-2.17-23.73
		h-21.62c1.73,7.76,2.62,15.7,2.62,23.73c0,60.02-48.83,108.86-108.86,108.86s-108.87-48.84-108.87-108.86
		c0-8.03,0.89-15.97,2.62-23.73H96.52c-1.43,7.8-2.17,15.76-2.17,23.73c0,71.7,58.33,130.04,130.04,130.04
		C296.09,326.35,354.42,268.01,354.42,196.31z M318.25,196.31c0-8.05-1.03-16.01-3.04-23.73h-83.32v17.03
		c6.55,1.41,12.56,4.66,17.39,9.51c6.64,6.64,10.3,15.48,10.3,24.89c0,9.41-3.66,18.25-10.31,24.9c-4.83,4.84-10.83,8.09-17.38,9.5
		v6.13c0,4.14-3.36,7.5-7.5,7.5s-7.5-3.36-7.5-7.5v-6.13c-6.54-1.41-12.55-4.66-17.4-9.5c-6.64-6.65-10.3-15.49-10.3-24.9
		c0-4.14,3.35-7.5,7.5-7.5c4.14,0,7.5,3.36,7.5,7.5c0,5.4,2.1,10.47,5.91,14.29c1.97,1.97,4.28,3.47,6.79,4.47V203
		c-6.54-1.41-12.55-4.66-17.4-9.5c-5.7-5.7-9.19-13.02-10.07-20.92h-55.86c-2.01,7.72-3.04,15.68-3.04,23.73
		c0,51.75,42.11,93.86,93.87,93.86S318.25,248.06,318.25,196.31z M301.61,131.99c4.47-10.41,6.74-21.5,6.74-33.02
		c0-46.3-37.66-83.97-83.96-83.97s-83.98,37.67-83.98,83.97c0,11.52,2.27,22.61,6.75,33.02h9.97c-5.03-10.19-7.66-21.39-7.66-33.02
		c0-41.31,33.61-74.92,74.92-74.92c41.3,0,74.91,33.61,74.91,74.92c0,11.63-2.63,22.83-7.65,33.02H301.61z M296.51,433.77
		l-11.94-12.86H164.21l-11.95,12.86H296.51z M274.37,131.99c6.5-9.79,9.93-21.12,9.93-33.02c0-33.04-26.88-59.92-59.91-59.92
		c-33.04,0-59.92,26.88-59.92,59.92c0,11.9,3.43,23.24,9.93,33.02h29.81c-2.98-4.11-4.75-9.15-4.75-14.6c0-3.59,2.91-6.5,6.5-6.5
		c3.59,0,6.5,2.91,6.5,6.5c0,4.18,2.17,7.85,5.43,9.98V104.6c-10.6-2.86-18.43-12.56-18.43-24.06c0-11.49,7.83-21.19,18.43-24.06
		v-2.9c0-3.59,2.91-6.5,6.5-6.5s6.5,2.91,6.5,6.5v2.91c10.6,2.86,18.42,12.56,18.42,24.05c0,3.59-2.91,6.5-6.5,6.5
		s-6.5-2.91-6.5-6.5c0-4.17-2.16-7.85-5.42-9.98v22.77c10.6,2.87,18.42,12.57,18.42,24.06c0,5.45-1.76,10.49-4.74,14.6H274.37z
		 M244.58,224.01c0-5.4-2.1-10.48-5.91-14.29c-1.97-1.97-4.27-3.47-6.78-4.47v37.52c2.51-1,4.81-2.5,6.77-4.46
		C242.48,234.48,244.58,229.41,244.58,224.01z M236.31,117.39c0-4.18-2.16-7.85-5.42-9.98v19.96
		C234.15,125.24,236.31,121.57,236.31,117.39z M217.89,90.53V70.56c-3.26,2.13-5.43,5.81-5.43,9.98
		C212.46,84.72,214.63,88.4,217.89,90.53z M216.89,187.36v-14.78h-12.31c0.77,3.88,2.66,7.45,5.52,10.31
		C212.07,184.86,214.38,186.36,216.89,187.36z"/>
	<path style="fill:#3DD0F2;" d="M426,157.58H22.78c2.62-6.22,8.78-10.59,15.94-10.59h371.34C417.22,146.99,423.37,151.36,426,157.58
		z"/>
	<path style="fill:#3DD0F2;" d="M22.78,395.32H426c-2.63,6.22-8.78,10.59-15.94,10.59H38.72C31.56,405.91,25.4,401.54,22.78,395.32z
		"/>
	<path style="fill:#F48C6C;" d="M352.25,172.58c1.43,7.8,2.17,15.76,2.17,23.73c0,71.7-58.33,130.04-130.03,130.04
		c-71.71,0-130.04-58.34-130.04-130.04c0-7.97,0.74-15.93,2.17-23.73h21.62c-1.73,7.76-2.62,15.7-2.62,23.73
		c0,60.02,48.84,108.86,108.87,108.86s108.86-48.84,108.86-108.86c0-8.03-0.89-15.97-2.62-23.73H352.25z"/>
	<path style="fill:#FFFFFF;" d="M315.21,172.58c2.01,7.72,3.04,15.68,3.04,23.73c0,51.75-42.1,93.86-93.86,93.86
		s-93.87-42.11-93.87-93.86c0-8.05,1.03-16.01,3.04-23.73h55.86c0.88,7.9,4.37,15.22,10.07,20.92c4.85,4.84,10.86,8.09,17.4,9.5
		v39.77c-2.51-1-4.82-2.5-6.79-4.47c-3.81-3.82-5.91-8.89-5.91-14.29c0-4.14-3.36-7.5-7.5-7.5c-4.15,0-7.5,3.36-7.5,7.5
		c0,9.41,3.66,18.25,10.3,24.9c4.85,4.84,10.86,8.09,17.4,9.5v6.13c0,4.14,3.36,7.5,7.5,7.5s7.5-3.36,7.5-7.5v-6.13
		c6.55-1.41,12.55-4.66,17.38-9.5c6.65-6.65,10.31-15.49,10.31-24.9c0-9.41-3.66-18.25-10.3-24.89c-4.83-4.85-10.84-8.1-17.39-9.51
		v-17.03H315.21z"/>
	<path style="fill:#F48C6C;" d="M308.35,98.97c0,11.52-2.27,22.61-6.74,33.02h-9.96c5.02-10.19,7.65-21.39,7.65-33.02
		c0-41.31-33.61-74.92-74.91-74.92c-41.31,0-74.92,33.61-74.92,74.92c0,11.63,2.63,22.83,7.66,33.02h-9.97
		c-4.48-10.41-6.75-21.5-6.75-33.02c0-46.3,37.68-83.97,83.98-83.97S308.35,52.67,308.35,98.97z"/>
	<polygon style="fill:#3DD0F2;" points="284.57,420.91 296.51,433.77 152.26,433.77 164.21,420.91 	"/>
	<path style="fill:#FFFFFF;" d="M284.3,98.97c0,11.9-3.43,23.23-9.93,33.02h-29.8c2.98-4.11,4.74-9.15,4.74-14.6
		c0-11.49-7.82-21.19-18.42-24.06V70.56c3.26,2.13,5.42,5.81,5.42,9.98c0,3.59,2.91,6.5,6.5,6.5s6.5-2.91,6.5-6.5
		c0-11.49-7.82-21.19-18.42-24.05v-2.91c0-3.59-2.91-6.5-6.5-6.5s-6.5,2.91-6.5,6.5v2.9c-10.6,2.87-18.43,12.57-18.43,24.06
		c0,11.5,7.83,21.2,18.43,24.06v22.77c-3.26-2.13-5.43-5.8-5.43-9.98c0-3.59-2.91-6.5-6.5-6.5c-3.59,0-6.5,2.91-6.5,6.5
		c0,5.45,1.77,10.49,4.75,14.6H174.4c-6.5-9.78-9.93-21.12-9.93-33.02c0-33.04,26.88-59.92,59.92-59.92
		C257.42,39.05,284.3,65.93,284.3,98.97z"/>
	<path style="fill:#FFFFFF;" d="M238.67,209.72c3.81,3.81,5.91,8.89,5.91,14.29c0,5.4-2.1,10.47-5.92,14.3
		c-1.96,1.96-4.26,3.46-6.77,4.46v-37.52C234.4,206.25,236.7,207.75,238.67,209.72z"/>
	<path style="fill:#FFFFFF;" d="M230.89,107.41c3.26,2.13,5.42,5.8,5.42,9.98s-2.16,7.85-5.42,9.98V107.41z"/>
	<path style="fill:#FFFFFF;" d="M217.89,70.56v19.97c-3.26-2.13-5.43-5.81-5.43-9.99C212.46,76.37,214.63,72.69,217.89,70.56z"/>
	<path style="fill:#FFFFFF;" d="M216.89,172.58v14.78c-2.51-1-4.82-2.5-6.79-4.47c-2.86-2.86-4.75-6.43-5.52-10.31H216.89z"/>
</g>
<g>
</g>
<g>
</g>
<g>
</g>
<g>
</g>
<g>
</g>
<g>
</g>
<g>
</g>
<g>
</g>
<g>
</g>
<g>
</g>
<g>
</g>
<g>
</g>
<g>
</g>
<g>
</g>
<g>
</g>
</svg>
