<?xml version="1.0" encoding="iso-8859-1"?>
<!-- Generator: Adobe Illustrator 19.0.0, SVG Export Plug-In . SVG Version: 6.00 Build 0)  -->
<svg version="1.1" id="Capa_1" xmlns="http://www.w3.org/2000/svg" xmlns:xlink="http://www.w3.org/1999/xlink" x="0px" y="0px"
	 viewBox="0 0 512 512" style="enable-background:new 0 0 512 512;" xml:space="preserve">
<path style="fill:#E6E9ED;" d="M420.99,67.5v393.47H91.01V7.5h269.98v60H420.99z"/>
<path style="fill:#DA4453;" d="M341,460.97l0.01,43.53l-25-20l-25,20v-43.53v-17.55c7.15,4.79,15.75,7.58,25,7.58
	c9.24,0,17.84-2.79,24.99-7.58V460.97z"/>
<path style="fill:#ED5565;" d="M316.01,361c24.85,0,45,20.15,45,45c0,15.6-7.95,29.36-20.01,37.42c-7.15,4.79-15.75,7.58-24.99,7.58
	c-9.25,0-17.85-2.79-25-7.58c-12.06-8.07-20-21.82-20-37.42C271.01,381.15,291.15,361,316.01,361z"/>
<path style="fill:#DA4453;" d="M316.01,391c8.28,0,15,6.72,15,15c0,8.29-6.72,15-15,15c-8.29,0-15-6.71-15-15
	C301.01,397.72,307.72,391,316.01,391z"/>
<polygon style="fill:#F5F7FA;" points="420.99,67.5 360.99,67.5 360.99,7.5 "/>
<polygon style="fill:#ED5565;" points="217.01,87.5 222.01,147.5 151.01,147.5 157.01,87.5 172.01,87.5 202.01,87.5 "/>
<rect x="390.99" y="67.5" style="fill:#DADDE1;" width="30" height="393.48"/>
<path d="M187.01,50c-12.407,0-22.5,10.093-22.5,22.5v7.501h-7.499c-3.853,0-7.079,2.919-7.463,6.753l-6.001,60
	c-0.211,2.109,0.48,4.208,1.902,5.779S148.891,155,151.01,155h70.998c0.007,0,0.013,0,0.02,0c4.142,0,7.5-3.358,7.5-7.5
	c0-0.401-0.032-0.796-0.092-1.18l-4.953-59.442c-0.324-3.887-3.573-6.877-7.474-6.877h-7.499V72.5
	C209.51,60.093,199.417,50,187.01,50z M213.857,140.001h-54.56l4.501-45h46.31L213.857,140.001z M179.51,80.001V72.5
	c0-4.136,3.364-7.5,7.5-7.5s7.5,3.364,7.5,7.5v7.501H179.51z"/>
<path d="M428.454,66.75c-0.018-0.183-0.05-0.361-0.081-0.539c-0.011-0.063-0.017-0.127-0.029-0.189
	c-0.042-0.212-0.097-0.42-0.158-0.626c-0.008-0.027-0.013-0.056-0.021-0.083c-0.064-0.21-0.14-0.415-0.221-0.617
	c-0.009-0.024-0.017-0.048-0.026-0.072c-0.08-0.193-0.171-0.381-0.267-0.565c-0.017-0.032-0.03-0.066-0.047-0.098
	c-0.092-0.171-0.194-0.337-0.299-0.5c-0.028-0.043-0.051-0.088-0.08-0.131c-0.105-0.156-0.219-0.305-0.335-0.453
	c-0.035-0.045-0.066-0.093-0.102-0.137c-0.156-0.189-0.32-0.372-0.494-0.545L366.3,2.198c-0.173-0.173-0.355-0.338-0.545-0.494
	c-0.049-0.04-0.102-0.074-0.151-0.113c-0.143-0.112-0.287-0.223-0.438-0.324c-0.047-0.032-0.097-0.058-0.145-0.088
	c-0.159-0.101-0.319-0.201-0.485-0.29c-0.037-0.02-0.075-0.035-0.112-0.054c-0.181-0.093-0.364-0.183-0.552-0.261
	c-0.027-0.011-0.055-0.019-0.082-0.029c-0.199-0.08-0.401-0.155-0.608-0.218c-0.03-0.009-0.061-0.015-0.091-0.023
	c-0.204-0.059-0.409-0.114-0.619-0.156c-0.063-0.013-0.128-0.018-0.191-0.029c-0.177-0.031-0.355-0.062-0.537-0.08
	C361.496,0.013,361.246,0,360.995,0H91.009c-4.142,0-7.5,3.358-7.5,7.5v453.475c0,4.142,3.358,7.5,7.5,7.5h169.999
	c4.142,0,7.5-3.358,7.5-7.5s-3.358-7.5-7.5-7.5H98.509V15h254.986v52.498c0,4.142,3.358,7.5,7.5,7.5h52.496v378.477h-42.483
	c-4.142,0-7.5,3.358-7.5,7.5s3.358,7.5,7.5,7.5h49.983c4.142,0,7.5-3.358,7.5-7.5V67.498
	C428.491,67.247,428.479,66.997,428.454,66.75z M368.495,25.607l34.39,34.391h-34.39V25.607z"/>
<path d="M151.007,228.493h209.988c4.142,0,7.5-3.358,7.5-7.5s-3.358-7.5-7.5-7.5H151.007c-4.142,0-7.5,3.358-7.5,7.5
	S146.865,228.493,151.007,228.493z"/>
<path d="M151.007,268.502h209.988c4.142,0,7.5-3.358,7.5-7.5s-3.358-7.5-7.5-7.5H151.007c-4.142,0-7.5,3.358-7.5,7.5
	S146.865,268.502,151.007,268.502z"/>
<path d="M368.495,301.001c0-4.142-3.358-7.5-7.5-7.5H151.007c-4.142,0-7.5,3.358-7.5,7.5s3.358,7.5,7.5,7.5h209.988
	C365.137,308.501,368.495,305.143,368.495,301.001z"/>
<path d="M151.007,333.501c-4.142,0-7.5,3.358-7.5,7.5s3.358,7.5,7.5,7.5h89.994c4.142,0,7.5-3.358,7.5-7.5s-3.358-7.5-7.5-7.5
	H151.007z"/>
<path d="M368.507,406.002c0-28.949-23.551-52.5-52.5-52.5s-52.5,23.551-52.5,52.5c0,16.683,7.832,31.563,20.002,41.186V504.5
	c0,0.08,0.009,0.157,0.012,0.237c0.005,0.153,0.009,0.305,0.023,0.458c0.01,0.107,0.027,0.212,0.041,0.318
	c0.019,0.137,0.037,0.274,0.063,0.41c0.022,0.114,0.051,0.226,0.078,0.338c0.03,0.125,0.059,0.25,0.096,0.373
	c0.035,0.118,0.076,0.232,0.117,0.348c0.04,0.114,0.079,0.229,0.125,0.342c0.049,0.12,0.104,0.235,0.159,0.352
	c0.049,0.104,0.096,0.209,0.15,0.312c0.065,0.123,0.136,0.24,0.207,0.359c0.055,0.092,0.108,0.185,0.167,0.275
	c0.083,0.126,0.174,0.246,0.264,0.367c0.049,0.065,0.091,0.133,0.142,0.197c0.01,0.013,0.022,0.023,0.032,0.036
	c0.168,0.208,0.346,0.407,0.535,0.595c0.053,0.053,0.111,0.099,0.166,0.15c0.137,0.129,0.277,0.255,0.424,0.374
	c0.088,0.071,0.179,0.135,0.27,0.202c0.123,0.09,0.246,0.178,0.373,0.26c0.096,0.062,0.193,0.12,0.292,0.177
	c0.133,0.078,0.269,0.15,0.407,0.22c0.094,0.047,0.188,0.094,0.285,0.137c0.153,0.069,0.31,0.13,0.468,0.189
	c0.086,0.032,0.171,0.066,0.258,0.094c0.177,0.059,0.359,0.107,0.542,0.152c0.073,0.018,0.145,0.04,0.218,0.056
	c0.202,0.044,0.408,0.075,0.616,0.102c0.058,0.007,0.115,0.02,0.173,0.026c0.245,0.026,0.494,0.039,0.746,0.041
	c0.019,0,0.038,0.003,0.057,0.003c0.008,0,0.015-0.002,0.023-0.002c0.366-0.001,0.723-0.037,1.074-0.088
	c0.076-0.011,0.15-0.021,0.226-0.035c0.357-0.063,0.704-0.151,1.041-0.263c0.062-0.021,0.122-0.045,0.183-0.067
	c0.359-0.13,0.709-0.28,1.041-0.461c0.012-0.006,0.023-0.015,0.035-0.021c0.35-0.193,0.679-0.417,0.991-0.662
	c0.022-0.017,0.046-0.028,0.068-0.045l20.314-16.251l20.313,16.251c0.021,0.017,0.044,0.027,0.065,0.044
	c0.314,0.246,0.645,0.47,0.995,0.664c0.011,0.006,0.021,0.014,0.032,0.02c0.332,0.182,0.683,0.332,1.043,0.462
	c0.061,0.022,0.12,0.046,0.181,0.066c0.337,0.112,0.685,0.2,1.042,0.264c0.075,0.013,0.149,0.023,0.225,0.034
	c0.352,0.052,0.709,0.087,1.075,0.088c0.008,0,0.015,0.002,0.023,0.002c0.018,0,0.038-0.003,0.056-0.003
	c0.252-0.002,0.501-0.015,0.747-0.041c0.057-0.006,0.113-0.019,0.169-0.026c0.209-0.027,0.417-0.059,0.619-0.103
	c0.072-0.016,0.143-0.037,0.214-0.055c0.185-0.045,0.368-0.094,0.547-0.153c0.085-0.028,0.168-0.062,0.253-0.092
	c0.16-0.06,0.318-0.122,0.473-0.191c0.095-0.042,0.188-0.089,0.282-0.136c0.139-0.07,0.276-0.143,0.41-0.221
	c0.098-0.057,0.195-0.115,0.291-0.177c0.127-0.083,0.251-0.17,0.373-0.26c0.091-0.067,0.182-0.131,0.271-0.202
	c0.147-0.118,0.286-0.245,0.423-0.373c0.055-0.051,0.113-0.098,0.166-0.151c0.19-0.188,0.367-0.388,0.536-0.596
	c0.01-0.012,0.022-0.022,0.032-0.035c0.051-0.063,0.092-0.131,0.141-0.195c0.091-0.121,0.182-0.242,0.266-0.369
	c0.059-0.09,0.111-0.183,0.167-0.274c0.071-0.119,0.143-0.237,0.208-0.36c0.054-0.102,0.101-0.206,0.149-0.31
	c0.055-0.117,0.11-0.233,0.159-0.354c0.046-0.113,0.085-0.228,0.125-0.342c0.041-0.115,0.082-0.23,0.117-0.348
	c0.037-0.124,0.066-0.249,0.096-0.374c0.027-0.112,0.056-0.223,0.078-0.337c0.026-0.137,0.044-0.274,0.063-0.411
	c0.014-0.105,0.031-0.21,0.041-0.317c0.014-0.153,0.018-0.306,0.023-0.459c0.003-0.079,0.012-0.156,0.012-0.236l-0.002-57.311
	C360.675,437.565,368.507,422.685,368.507,406.002z M278.507,406.002c0-20.678,16.822-37.5,37.5-37.5s37.5,16.822,37.5,37.5
	s-16.822,37.5-37.5,37.5C295.329,443.502,278.507,426.68,278.507,406.002z M333.507,488.895l-12.705-10.164l-0.001-0.002
	l-0.106-0.085c-0.055-0.043-0.113-0.079-0.168-0.121c-0.133-0.101-0.266-0.2-0.404-0.291c-0.081-0.053-0.164-0.1-0.247-0.15
	c-0.127-0.076-0.253-0.153-0.384-0.221c-0.103-0.054-0.208-0.102-0.313-0.15c-0.113-0.053-0.226-0.107-0.341-0.153
	c-0.122-0.05-0.246-0.092-0.369-0.135c-0.103-0.036-0.206-0.073-0.31-0.104c-0.131-0.039-0.263-0.071-0.396-0.103
	c-0.102-0.024-0.205-0.05-0.308-0.071c-0.13-0.025-0.26-0.044-0.391-0.062c-0.11-0.016-0.221-0.032-0.332-0.043
	c-0.12-0.012-0.239-0.017-0.359-0.023c-0.125-0.006-0.249-0.012-0.374-0.012c-0.106,0-0.211,0.006-0.317,0.011
	c-0.138,0.006-0.276,0.012-0.414,0.026c-0.094,0.009-0.187,0.023-0.28,0.036c-0.147,0.02-0.294,0.042-0.44,0.07
	c-0.087,0.018-0.174,0.039-0.261,0.06c-0.147,0.035-0.293,0.07-0.439,0.114c-0.092,0.028-0.182,0.06-0.273,0.092
	c-0.135,0.046-0.27,0.093-0.403,0.147c-0.107,0.043-0.211,0.094-0.316,0.142c-0.112,0.052-0.224,0.103-0.335,0.161
	c-0.126,0.066-0.249,0.141-0.373,0.215c-0.085,0.052-0.171,0.1-0.255,0.155c-0.138,0.091-0.271,0.191-0.405,0.292
	c-0.055,0.042-0.112,0.077-0.166,0.12l-0.104,0.084c-0.001,0.001-0.003,0.002-0.005,0.004l-12.704,10.164v-33.402
	c5.477,1.942,11.364,3.01,17.498,3.01c6.134,0,12.021-1.067,17.499-3.01L333.507,488.895z"/>
<path d="M316.008,428.501c12.407,0,22.5-10.093,22.5-22.5s-10.093-22.5-22.5-22.5s-22.5,10.093-22.5,22.5
	C293.508,418.408,303.601,428.501,316.008,428.501z M316.008,398.501c4.136,0,7.5,3.364,7.5,7.5s-3.364,7.5-7.5,7.5
	s-7.5-3.364-7.5-7.5C308.508,401.865,311.872,398.501,316.008,398.501z"/>
<g>
</g>
<g>
</g>
<g>
</g>
<g>
</g>
<g>
</g>
<g>
</g>
<g>
</g>
<g>
</g>
<g>
</g>
<g>
</g>
<g>
</g>
<g>
</g>
<g>
</g>
<g>
</g>
<g>
</g>
</svg>
