<?xml version="1.0" encoding="iso-8859-1"?>
<!-- Generator: Adobe Illustrator 19.0.0, SVG Export Plug-In . SVG Version: 6.00 Build 0)  -->
<svg version="1.1" id="Layer_1" xmlns="http://www.w3.org/2000/svg" xmlns:xlink="http://www.w3.org/1999/xlink" x="0px" y="0px"
	 viewBox="0 0 512 512" style="enable-background:new 0 0 512 512;" xml:space="preserve">
<path style="fill:#334F55;" d="M467.862,388.414V242.759c0-90.052-73.284-163.31-163.362-163.31h-97
	c-90.078,0-163.362,73.259-163.362,163.31v145.655H0v17.655h52.966h8.828h26.483v17.655c0,4.875,3.948,8.828,8.828,8.828h26.483
	h17.655h8.828h17.655h26.483c4.879,0,8.828-3.953,8.828-8.828v-17.655h105.931v17.655c0,4.875,3.948,8.828,8.828,8.828h26.483
	h17.655h8.828h17.655h26.483c4.879,0,8.828-3.953,8.828-8.828v-17.655h26.483h8.828H512v-17.655H467.862z"/>
<g>
	<path style="fill:#D8D8D8;" d="M185.379,414.897h-17.655v-26.483h-17.655v26.483h-8.828v-26.483h-17.655v26.483h-17.655v-8.828
		v-8.828c0-9.737,7.94-17.655,17.707-17.655h44.034c9.767,0,17.707,7.918,17.707,17.655v8.828V414.897z"/>
	<path style="fill:#D8D8D8;" d="M406.069,414.897h-17.655v-26.483h-17.655v26.483h-8.828v-26.483h-17.655v26.483h-17.655v-8.828
		v-8.828c0-9.737,7.94-17.655,17.707-17.655h44.034c9.767,0,17.707,7.918,17.707,17.655v8.828L406.069,414.897L406.069,414.897z"/>
</g>
<path style="fill:#EAE8D2;" d="M422.469,388.414c-3.954-15.185-17.677-26.483-34.107-26.483h-44.034
	c-16.429,0-30.152,11.297-34.106,26.483H201.779c-3.954-15.185-17.677-26.483-34.107-26.483h-44.035
	c-16.429,0-30.152,11.297-34.106,26.483H61.793V242.759c0-80.315,65.362-145.655,145.707-145.655h97
	c80.345,0,145.707,65.34,145.707,145.655v145.655H422.469z"/>
<g>
	<path style="fill:#334F55;" d="M185.379,229.517c-29.207,0-52.966,23.759-52.966,52.966v8.828h17.655v-8.828
		c0-19.47,15.836-35.31,35.31-35.31c9.047,0,17.224,3.517,23.477,9.131c-8.3,1.438-14.65,8.644-14.65,17.351
		c0,9.737,7.922,17.655,17.655,17.655c3.23,0,6.22-0.935,8.828-2.457v2.457h17.655v-8.828
		C238.345,253.276,214.586,229.517,185.379,229.517z"/>
	<path style="fill:#334F55;" d="M344.276,229.517c-29.207,0-52.966,23.759-52.966,52.966v8.828h17.655v-8.828
		c0-19.47,15.836-35.31,35.31-35.31c9.047,0,17.224,3.517,23.477,9.131c-8.3,1.438-14.65,8.644-14.65,17.351
		c0,9.737,7.922,17.655,17.655,17.655c3.23,0,6.22-0.935,8.828-2.457v2.457h17.655v-8.828
		C397.241,253.276,373.483,229.517,344.276,229.517z"/>
</g>
<g>
</g>
<g>
</g>
<g>
</g>
<g>
</g>
<g>
</g>
<g>
</g>
<g>
</g>
<g>
</g>
<g>
</g>
<g>
</g>
<g>
</g>
<g>
</g>
<g>
</g>
<g>
</g>
<g>
</g>
</svg>
