<?xml version="1.0" encoding="utf-8"?>
<!-- Generator: Adobe Illustrator 21.0.0, SVG Export Plug-In . SVG Version: 6.00 Build 0)  -->
<svg version="1.1" id="Capa_1" xmlns="http://www.w3.org/2000/svg" xmlns:xlink="http://www.w3.org/1999/xlink" x="0px" y="0px"
	 viewBox="0 0 19.5 19.9" style="enable-background:new 0 0 19.5 19.9;" xml:space="preserve">
<style type="text/css">
	.st0{fill:#3B5150;}
</style>
<g>
	<path class="st0" d="M9.8,0C4.4,0,0,4.5,0,10s4.4,10,9.8,10s9.8-4.5,9.8-10S15.1,0,9.8,0z M9.8,19.1c-5,0-9-4.1-9-9.2s4-9.2,9-9.2
		s9,4.1,9,9.2S14.7,19.1,9.8,19.1z"/>
	<path class="st0" d="M13.4,6.2c-0.1-0.1-0.4-0.1-0.5,0L9.8,9.4L6.6,6.2c-0.1-0.1-0.4-0.1-0.5,0C6,6.4,6,6.6,6.1,6.8L9.2,10
		l-3.1,3.2c-0.1,0.1-0.1,0.4,0,0.5s0.2,0.1,0.3,0.1s0.2,0,0.3-0.1l3.1-3.2l3.1,3.2c0.1,0.1,0.2,0.1,0.3,0.1s0.2,0,0.3-0.1
		s0.1-0.4,0-0.5L10.3,10l3.1-3.2C13.5,6.6,13.5,6.4,13.4,6.2z"/>
</g>
</svg>
