<?xml version="1.0" encoding="iso-8859-1"?>
<!-- Generator: Adobe Illustrator 19.0.0, SVG Export Plug-In . SVG Version: 6.00 Build 0)  -->
<svg version="1.1" id="Layer_1" xmlns="http://www.w3.org/2000/svg" xmlns:xlink="http://www.w3.org/1999/xlink" x="0px" y="0px"
	 viewBox="0 0 512 512" style="enable-background:new 0 0 512 512;" xml:space="preserve">
<path style="fill:#334F55;" d="M467.862,375.172V229.517c0-90.052-73.284-163.31-163.362-163.31h-97
	c-90.078,0-163.362,73.259-163.362,163.31v145.655H0v17.655h52.966h8.828h26.483v17.655c0,19.47,15.862,35.31,35.362,35.31h44.034
	c19.5,0,35.362-15.84,35.362-35.31v-17.655h105.931v17.655c0,19.47,15.862,35.31,35.362,35.31h44.034
	c19.5,0,35.362-15.84,35.362-35.31v-17.655h26.483h8.828H512v-17.655H467.862z"/>
<g>
	<path style="fill:#EAE8D2;" d="M185.379,410.483c0,9.737-7.94,17.655-17.707,17.655h-44.035c-9.767,0-17.707-7.918-17.707-17.655
		v-17.655h79.448V410.483z"/>
	<path style="fill:#EAE8D2;" d="M406.069,410.483c0,9.737-7.94,17.655-17.707,17.655h-44.034c-9.767,0-17.707-7.918-17.707-17.655
		v-17.655h79.448L406.069,410.483L406.069,410.483z"/>
	<path style="fill:#EAE8D2;" d="M414.897,375.172h-8.828h-79.448h-8.828H194.207h-8.828h-79.448h-8.828h-35.31V229.517
		c0-80.315,65.362-145.655,145.707-145.655h97c80.345,0,145.707,65.34,145.707,145.655v145.655H414.897z"/>
</g>
<path style="fill:#334F55;" d="M185.379,198.621c-29.207,0-52.966,23.759-52.966,52.966s23.759,52.966,52.966,52.966
	s52.966-23.759,52.966-52.966S214.586,198.621,185.379,198.621z"/>
<path style="fill:#77C9C9;" d="M220.199,256.437c-1.814-7.82-8.803-13.679-17.164-13.679c-9.733,0-17.655,7.918-17.655,17.655
	c0,9.737,7.922,17.655,17.655,17.655c2.672,0,5.181-0.642,7.454-1.709c-6.406,6.491-15.287,10.537-25.109,10.537
	c-19.474,0-35.31-15.84-35.31-35.31s15.836-35.31,35.31-35.31s35.31,15.84,35.31,35.31
	C220.69,253.248,220.422,254.836,220.199,256.437z"/>
<path style="fill:#334F55;" d="M326.621,198.621c-29.207,0-52.966,23.759-52.966,52.966s23.759,52.966,52.966,52.966
	s52.966-23.759,52.966-52.966S355.828,198.621,326.621,198.621z"/>
<path style="fill:#77C9C9;" d="M326.621,286.897c-9.823,0-18.704-4.045-25.109-10.537c2.273,1.067,4.782,1.709,7.454,1.709
	c9.733,0,17.655-7.918,17.655-17.655c0-9.737-7.922-17.655-17.655-17.655c-8.361,0-15.35,5.859-17.164,13.679
	c-0.223-1.601-0.491-3.19-0.491-4.851c0-19.47,15.836-35.31,35.31-35.31c19.474,0,35.31,15.84,35.31,35.31
	S346.095,286.897,326.621,286.897z"/>
<path style="fill:#334F55;" d="M256,286.897c-14.603,0-26.483,11.879-26.483,26.483s11.879,26.483,26.483,26.483
	s26.483-11.879,26.483-26.483S270.603,286.897,256,286.897z"/>
<circle style="fill:#EAE8D2;" cx="256" cy="313.379" r="8.828"/>
<g>
</g>
<g>
</g>
<g>
</g>
<g>
</g>
<g>
</g>
<g>
</g>
<g>
</g>
<g>
</g>
<g>
</g>
<g>
</g>
<g>
</g>
<g>
</g>
<g>
</g>
<g>
</g>
<g>
</g>
</svg>
