<?xml version="1.0" encoding="iso-8859-1"?>
<!-- Generator: Adobe Illustrator 19.0.0, SVG Export Plug-In . SVG Version: 6.00 Build 0)  -->
<svg version="1.1" id="Layer_1" xmlns="http://www.w3.org/2000/svg" xmlns:xlink="http://www.w3.org/1999/xlink" x="0px" y="0px"
	 viewBox="0 0 508 508" style="enable-background:new 0 0 508 508;" xml:space="preserve">
<circle style="fill:#324A5E;" cx="254" cy="254" r="254"/>
<path style="fill:#84DBFF;" d="M262.5,207.2l21.3-3.7v-36.7l-21.3-3.7c-2-7.3-4.9-14.2-8.6-20.6l12.4-17.7l-25.9-25.9l-17.7,12.4
	c-6.4-3.7-13.3-6.6-20.6-8.6l-3.7-21.3h-36.7l-3.7,21.3c-7.3,2-14.2,4.9-20.6,8.6l-17.7-12.4l-25.9,25.9l12.4,17.7
	c-3.7,6.4-6.6,13.3-8.6,20.6l-21.3,3.7v36.7l21.3,3.7c2,7.3,4.9,14.2,8.6,20.6l-12.4,17.7l25.9,25.9l17.7-12.4
	c6.4,3.7,13.3,6.6,20.6,8.6l3.7,21.3h36.7l3.7-21.3c7.3-2,14.2-4.9,20.6-8.6l17.7,12.4l25.9-25.9L254,227.8
	C257.7,221.4,260.6,214.5,262.5,207.2z"/>
<circle style="fill:#324A5E;" cx="180.1" cy="185.1" r="57.8"/>
<circle style="fill:#84DBFF;" cx="180.1" cy="185.1" r="42.8"/>
<path style="fill:#FFD05B;" d="M418.8,208.9l12.8-4l-3-22.5l-13.4-0.5c-1.8-4.3-4.1-8.4-6.9-12l6.2-11.9l-18-13.8l-9.9,9.1
	c-4.2-1.8-8.7-3-13.4-3.6l-4-12.8l-22.5,3l-0.5,13.4c-4.3,1.8-8.4,4.1-12,6.9l-11.9-6.2l-13.8,18l9.1,9.9c-1.8,4.2-3,8.7-3.6,13.4
	l-12.8,4l3,22.5l13.4,0.5c1.8,4.3,4.1,8.4,6.9,12l-6.2,11.9l18,13.8l9.9-9.1c4.2,1.8,8.7,3,13.4,3.6l4,12.8l22.5-3l0.5-13.4
	c4.3-1.8,8.4-4.1,12-6.9l11.9,6.2l13.8-18l-9.1-9.9C417,218,418.2,213.6,418.8,208.9z"/>
<circle style="fill:#324A5E;" cx="366.4" cy="202.1" r="35.8"/>
<circle style="fill:#FFD05B;" cx="366.4" cy="202.1" r="26.6"/>
<path style="fill:#FFFFFF;" d="M356.8,352.2l16.3-5.1l-3.8-28.7l-17-0.7c-2.3-5.5-5.3-10.6-8.9-15.3l7.9-15.1l-23-17.6l-12.6,11.6
	c-5.4-2.2-11.1-3.8-17.1-4.6l-5.1-16.3l-28.7,3.8l-0.7,17c-5.5,2.3-10.6,5.3-15.3,8.9l-15.1-7.9l-17.6,23l11.6,12.6
	c-2.2,5.4-3.8,11.1-4.6,17.1l-16.3,5.1l3.8,28.7l17,0.7c2.3,5.5,5.3,10.6,8.9,15.3l-7.9,15.1l23,17.6l12.6-11.6
	c5.4,2.2,11.1,3.8,17.1,4.6l5.1,16.3l28.7-3.8l0.7-17c5.5-2.3,10.6-5.3,15.3-8.9l15.1,7.9l17.6-23l-11.6-12.6
	C354.5,363.8,356.1,358.1,356.8,352.2z"/>
<circle style="fill:#324A5E;" cx="290" cy="343.5" r="45.7"/>
<circle style="fill:#FFFFFF;" cx="290" cy="343.5" r="33.8"/>
<g>
</g>
<g>
</g>
<g>
</g>
<g>
</g>
<g>
</g>
<g>
</g>
<g>
</g>
<g>
</g>
<g>
</g>
<g>
</g>
<g>
</g>
<g>
</g>
<g>
</g>
<g>
</g>
<g>
</g>
</svg>
