<?xml version="1.0" encoding="iso-8859-1"?>
<!-- Generator: Adobe Illustrator 19.0.0, SVG Export Plug-In . SVG Version: 6.00 Build 0)  -->
<svg version="1.1" id="Layer_1" xmlns="http://www.w3.org/2000/svg" xmlns:xlink="http://www.w3.org/1999/xlink" x="0px" y="0px"
	 viewBox="0 0 512 512" style="enable-background:new 0 0 512 512;" xml:space="preserve">
<path style="fill:#334F55;" d="M467.579,401.567V256c0-89.997-73.24-163.211-163.263-163.211h-96.941
	c-90.023,0-163.263,73.214-163.263,163.211v145.567H0v17.644h52.933h405.823H512v-17.644H467.579z"/>
<path style="fill:#C5D35E;" d="M61.756,401.567V256c0-80.266,65.323-145.567,145.619-145.567h96.941
	c80.296,0,145.619,65.301,145.619,145.567v145.567H61.756z"/>
<g>
	<path style="fill:#334F55;" d="M202.033,278.099l-88.222,8.822c-4.85,0.487-8.383,4.807-7.9,9.658
		c0.457,4.549,4.29,7.944,8.77,7.944c0.293,0,0.586-0.013,0.887-0.043l88.222-8.822c4.85-0.487,8.383-4.807,7.9-9.658
		C211.208,281.153,206.995,277.642,202.033,278.099z"/>
	<path style="fill:#334F55;" d="M397.88,286.921l-88.222-8.822c-4.902-0.465-9.167,3.054-9.658,7.9
		c-0.483,4.85,3.05,9.171,7.9,9.658l88.222,8.822c0.302,0.03,0.595,0.043,0.888,0.043c4.48,0,8.314-3.395,8.771-7.944
		C406.262,291.728,402.73,287.408,397.88,286.921z"/>
	<path style="fill:#334F55;" d="M260.17,304.522h-8.65c-17.076,0-30.964,13.854-30.964,30.878v22.056
		c0,4.872,3.946,8.822,8.822,8.822h52.933c4.876,0,8.822-3.95,8.822-8.822V335.4C291.134,318.376,277.246,304.522,260.17,304.522z"
		/>
</g>
<path style="fill:#E4AD4B;" d="M273.489,348.634H238.2V335.4c0-7.297,5.979-13.233,13.32-13.233h8.65
	c7.34,0,13.32,5.936,13.32,13.233L273.489,348.634L273.489,348.634z"/>
<g>
</g>
<g>
</g>
<g>
</g>
<g>
</g>
<g>
</g>
<g>
</g>
<g>
</g>
<g>
</g>
<g>
</g>
<g>
</g>
<g>
</g>
<g>
</g>
<g>
</g>
<g>
</g>
<g>
</g>
</svg>
